<svg width="287" height="229" viewBox="0 0 287 229" fill="none" xmlns="http://www.w3.org/2000/svg">
<path d="M124.838 83.4454C120.789 83.4312 116.738 83.4079 112.685 83.3755L107.284 117.003L194.031 119.077L146.323 83.4085C139.159 83.4461 131.997 83.4584 124.838 83.4454Z" fill="#F9E3B7"/>
<path d="M66.4001 83.0259L53.9932 88.5126L107.284 117.003L112.679 83.3677C97.26 83.2512 81.8251 83.0356 66.4001 83.0259Z" fill="#605530"/>
<path d="M102.16 158.564L164.076 163.373L113.802 197.028L102.16 158.564Z" fill="#595454"/>
<path d="M60.3384 131.01L53.9932 88.5127L107.29 117.003L60.3384 131.01Z" fill="#837E3A"/>
<path d="M62.9396 138.801L17.0605 113.657L54.7551 88.5127L62.9396 138.801Z" fill="#3C2415"/>
<path d="M113.802 196.717L182.304 148.609L209.794 167.326L198.426 183.314L113.802 196.717Z" fill="#A2847F"/>
<path d="M146.323 83.4083L194.045 119.077L230.278 82.9209C202.282 82.781 174.301 83.2646 146.323 83.4083Z" fill="#F9E3B7"/>
<path d="M235.752 82.9541C233.82 82.9386 231.886 82.927 229.951 82.9192L194.037 119.077L282.381 100.238L253.477 83.1969C247.569 83.0979 241.662 83.0007 235.752 82.9541Z" fill="#F9E3B7"/>
<path d="M209.425 138.799L194.037 118.351C223.485 111.46 252.933 107.117 282.381 100.226C258.062 113.938 233.744 125.096 209.425 138.799Z" fill="#C2AE85"/>
<path d="M62.941 138.798C60.2782 122.035 56.6559 105.272 53.9932 88.5085L107.284 117.003C92.1869 124.269 78.0436 131.535 62.941 138.798Z" fill="#513219"/>
<path d="M195.898 117.751C175.856 127.524 157.708 134.217 137.668 143.99L103.68 114.274C135.045 114.408 164.525 117.628 195.898 117.751Z" fill="#7C5535"/>
<path d="M54.9049 88.5126L1.09766 86.8364L17.3288 113.657L54.9049 88.5126Z" fill="#605530"/>
<path d="M102.099 158.914C113.731 152.716 127.713 147.22 139.345 141.024C113.197 140.022 88.3014 139.303 62.1553 138.305C76.6695 145.501 87.5828 151.716 102.099 158.914Z" fill="#595454"/>
<path d="M103.971 158.565L138.095 141.44L209.425 138.801L225.148 161.348L164.077 163.373L103.971 158.565Z" fill="#F9E3B7"/>
<path d="M225.148 161.348L194.037 162.379L173.761 187.333L209.426 190.932L225.148 161.348Z" fill="#F5D38C"/>
<path d="M173.76 187.333L209.425 190.932L181.814 208.728L113.802 196.718L173.76 187.333Z" fill="#C2AE85"/>
<path d="M113.802 196.718L173.76 187.333L181.814 208.728L113.802 196.718Z" fill="#766758"/>
<path d="M102.16 158.978L133.622 141.976L162.336 164.176L102.16 158.978Z" fill="#585759"/>
<path d="M62.9395 138.34L107.29 117.003L138.096 141.44L62.9395 138.34Z" fill="#423F40"/>
<path d="M209.426 138.8L195.898 117.751L138.096 141.44L209.426 138.8Z" fill="#C29C75"/>
<path d="M40.1937 86.4888L12.7754 91.6434L18.1068 111.951L40.1937 86.4888Z" fill="#797535"/>
<path d="M171.451 200.998L161.889 198.473L149.997 210.831L158.71 226.012C160.738 226.816 162.765 227.566 164.793 228.3L177.029 222.211L175.914 205.681C174.448 204.119 173.001 202.54 171.451 200.998Z" fill="#766758"/>
<path d="M172.335 201.231L161.89 198.479L176.068 220.712L177.027 222.217L175.862 205.04C174.627 203.785 173.451 202.516 172.335 201.231Z" fill="#C2AE85"/>
<path d="M89.0273 162.334L83.4104 163.853L81.0234 173.508L89.9576 178.573C91.2259 178.379 92.4825 178.169 93.7294 177.946L98.1557 171.333L92.6884 163.369C91.4726 163.024 90.2684 162.655 89.0273 162.334Z" fill="#766758"/>
<path d="M89.5398 162.195L83.4102 163.853L97.2193 170.845L98.1535 171.319L92.4725 163.076C91.4704 162.807 90.4928 162.513 89.5398 162.195Z" fill="#C2AE85"/>
<path d="M189.366 218.214L189.271 212.896L181.133 208.549L174.551 215.281C174.433 216.446 174.339 217.612 174.258 218.765L179.201 224.204L187.593 221.207C188.189 220.222 188.795 219.243 189.366 218.214Z" fill="#766758"/>
<path d="M189.374 218.705L189.271 212.896L179.837 223.495L179.2 224.211L187.921 221.104C188.388 220.271 188.872 219.472 189.374 218.705Z" fill="#C2AE85"/>
<path d="M176.74 216.272L175.128 213.59L169.781 213.768L168.468 219.133C168.751 219.762 169.05 220.38 169.346 220.995L173.424 222.316L176.74 218.321C176.742 217.641 176.755 216.963 176.74 216.272Z" fill="#766758"/>
<path d="M176.888 216.52L175.128 213.59L173.526 221.762L173.419 222.316L176.864 218.165C176.855 217.606 176.862 217.056 176.888 216.52Z" fill="#C2AE85"/>
<path d="M246.028 124.671C245.7 124.522 245.411 124.298 245.183 124.018L231.213 134.805L231.273 146.847C232.318 147.33 233.297 147.945 234.186 148.677C234.353 148.815 234.513 148.958 234.668 149.106L248.334 136.676L251.035 126.881C249.361 126.159 247.692 125.422 246.028 124.671Z" fill="#DCC6B9"/>
<path d="M243.556 145.559L238.279 151.829L243.622 158.658L250.692 156.801L249.872 150.254L243.556 145.559Z" fill="#C29C75"/>
<path d="M243.622 158.658L244.018 158.126L249.872 150.254L250.692 156.801" fill="#E38248"/>
<path d="M235.095 149.545L253.715 136.66L253.206 131.696L253.317 127.879C252.553 127.554 251.791 127.225 251.031 126.893L248.33 136.687L234.664 149.117C234.812 149.251 234.955 149.397 235.095 149.545Z" fill="#E38248"/>
<path d="M232.709 161.622C232.571 161.559 232.45 161.465 232.354 161.348L226.492 165.873L226.517 170.923C226.956 171.128 227.367 171.389 227.739 171.7C227.809 171.758 227.875 171.818 227.933 171.88L233.667 166.667L234.801 162.558C234.103 162.248 233.406 161.936 232.709 161.622Z" fill="#DCC6B9"/>
<path d="M231.672 170.385L229.456 173.016L231.699 175.881L234.665 175.102L234.321 172.356L231.672 170.385Z" fill="#C29C75"/>
<path d="M231.699 175.881L231.864 175.658L234.321 172.356L234.665 175.102" fill="#E38248"/>
<path d="M228.121 172.059L235.935 166.652L235.721 164.57L235.768 162.967C235.445 162.831 235.127 162.694 234.808 162.554L233.674 166.663L227.94 171.876C228.003 171.937 228.063 171.997 228.121 172.059Z" fill="#E38248"/>
<path d="M258.843 129.573C258.706 129.51 258.585 129.416 258.49 129.299L252.628 133.824L252.653 138.874C253.091 139.077 253.501 139.335 253.873 139.641C253.943 139.7 254.009 139.76 254.067 139.822L259.801 134.609L260.935 130.499C260.241 130.198 259.542 129.886 258.843 129.573Z" fill="#DCC6B9"/>
<path d="M257.806 138.336L255.592 140.966L257.833 143.833L260.799 143.054L260.455 140.306L257.806 138.336Z" fill="#C29C75"/>
<path d="M257.833 143.833L258 143.609L260.455 140.306L260.799 143.054" fill="#E38248"/>
<path d="M254.256 140.008L262.079 134.603L261.865 132.519L261.912 130.919C261.592 130.783 261.271 130.643 260.953 130.505L259.818 134.615L254.085 139.828C254.141 139.886 254.198 139.946 254.256 140.008Z" fill="#E38248"/>
<path d="M225.371 88.9709C225.368 89.973 225.131 90.9606 224.68 91.8552L225.371 88.9709Z" fill="#754D25" stroke="#010101" stroke-width="0.194222" stroke-miterlimit="10"/>
<path d="M86.8769 74.552L79.2129 100.69L154.437 101.277L86.8769 74.552Z" fill="#EDAF86"/>
<path d="M32.9307 87.6542L86.8777 74.552L79.2137 100.69L32.9307 87.6542Z" fill="#E7BF77"/>
<path d="M38.534 107.42L32.9307 87.6541L79.2137 100.69L38.534 107.42Z" fill="#837E3A"/>
<path d="M105.983 111.936L38.5332 107.42L79.213 100.69L105.983 111.936Z" fill="#5B5C27"/>
<path d="M154.437 101.277L105.982 111.936L79.2129 100.69L154.437 101.277Z" fill="#707033"/>
<path d="M165.838 110.475L154.437 101.277L105.982 111.936L165.838 110.475Z" fill="#615426"/>
<path d="M32.9307 87.6541L1.6377 89.7711L7.63915 97.6778L32.9307 87.6541Z" fill="#797535"/>
<path d="M38.5335 107.42L7.63867 97.6778L32.9302 87.6541L38.5335 107.42Z" fill="#706F3F"/>
<path d="M10.0879 79.9648L0 89.7789L32.9303 87.6541L10.0879 79.9648Z" fill="#E7BF77"/>
<path d="M86.8769 74.552L11.2197 79.9591L32.9298 87.6542L86.8769 74.552Z" fill="#9B9341"/>
<path d="M74.4622 68.3311L86.8769 74.552L11.2197 79.9591L74.4622 68.3311Z" fill="#BAB367"/>
<path d="M142.345 67.0239L86.8775 74.552L74.4629 68.331L142.345 67.0239Z" fill="#D0C787"/>
<path d="M192.862 80.433L86.877 74.552L142.345 67.0239L192.862 80.433Z" fill="#E5E09E"/>
<path d="M224.493 76.3233L192.862 80.433L142.345 67.0239L224.493 76.3233Z" fill="#EEEBB1"/>
<path d="M86.877 74.552L154.437 101.277L192.862 80.433L86.877 74.552Z" fill="#E3DC9A"/>
<path d="M224.493 76.3232L230.998 92.1931L192.862 80.433L224.493 76.3232Z" fill="#DCD38C"/>
<path d="M154.438 101.277L230.998 92.193L192.862 80.4329L154.438 101.277Z" fill="#D5CC88"/>
<path d="M165.838 110.475L154.438 101.277L209.478 101.001L165.838 110.475Z" fill="#95924F"/>
<path d="M230.998 92.1931L209.478 101.001L154.438 101.277L230.998 92.1931Z" fill="#DAD69F"/>
<path d="M38.534 107.42L32.9307 87.6541L79.2137 100.69L38.534 107.42Z" fill="#B77C57"/>
<path d="M105.983 111.936L38.5332 107.42L79.213 100.69L105.983 111.936Z" fill="#A45B56"/>
<path d="M154.437 101.277L105.982 111.936L79.2129 100.69L154.437 101.277Z" fill="#B77C57"/>
<path d="M165.838 110.475L154.437 101.277L105.982 111.936L165.838 110.475Z" fill="#A45B56"/>
<path d="M32.9307 87.6541L1.6377 89.7711L7.63915 97.6778L32.9307 87.6541Z" fill="#E38248"/>
<path d="M38.5335 107.42L7.63867 97.6778L32.9302 87.6541L38.5335 107.42Z" fill="#B77C57"/>
<path d="M86.8769 74.552L11.2197 79.9591L32.9298 87.6542L86.8769 74.552Z" fill="#ECCA8F"/>
<path d="M74.4622 68.3311L86.8769 74.552L11.2197 79.9591L74.4622 68.3311Z" fill="#BAB367"/>
<path d="M142.345 67.0239L224.501 76.3232C124.454 72.4543 74.4402 69.7902 74.4609 68.331C74.4791 67.3508 97.1072 66.9151 142.345 67.0239Z" fill="#E7BF77"/>
<path d="M224.495 76.3233L152.769 101.287L72.9209 69.3411L224.495 76.3233Z" fill="#BAB367"/>
<path d="M154.439 101.279L231.004 92.1853L224.501 76.3154L154.439 101.279Z" fill="#E38248"/>
<path d="M230.251 91.6026L162.487 107.622L148.785 86.0012L230.251 91.6026Z" fill="#EDAF86"/>
<path d="M94.7119 78.2925L162.81 106.795L201.526 84.593L94.7119 78.2925Z" fill="#F2C7A9"/>
<path d="M162.663 110.491L150.438 101.298L209.478 101.001L162.663 110.491Z" fill="#A45B56"/>
<path d="M230.998 92.1931L209.478 101.001L154.438 101.277L230.998 92.1931Z" fill="#F38D61"/>
<path d="M111.483 65.1342L113.597 60.8574L118.73 62.4675L118.959 67.9504L111.483 65.1342Z" fill="#192F3A"/>
<path d="M118.959 67.9503L118.468 62.1761L121.639 59.4512L123.659 64.7029L118.959 67.9503Z" fill="#223E4C"/>
<path d="M113.882 75.7911L115.245 66.719L120.256 66.6841L122.781 75.6008L113.882 75.7911Z" fill="#786A3D"/>
<path d="M120.11 66.6259L124.317 63.6155L128.087 70.5473L122.635 75.5426L120.11 66.6259Z" fill="#899854"/>
<path d="M115.246 66.7189L113.193 64.363L108.207 72.1533L113.882 75.791L115.246 66.7189Z" fill="#4E5047"/>
<path d="M113.626 58.1245L115.448 54.6052L118.34 55.9512L118.584 61.4321L113.626 58.1245Z" fill="#192F3A"/>
<path d="M118.584 61.4323L118.142 55.6523L120.43 53.0283L123.182 57.2449L118.584 61.4323Z" fill="#223E4C"/>
<path d="M115.935 51.8746L117.098 49.2856L118.976 50.315L119.163 54.384L115.935 51.8746Z" fill="#192F3A"/>
<path d="M119.162 54.384L118.848 50.0898L120.316 48.1689L122.118 51.327L119.162 54.384Z" fill="#223E4C"/>
<path d="M115.861 65.8004L116.693 58.7754L120.484 57.2061L122.974 63.5085L115.861 65.8004Z" fill="#786A3D"/>
<path d="M120.365 57.21L122.793 54.3005L126.141 59.964L122.974 63.5086L120.365 57.21Z" fill="#899854"/>
<path d="M116.692 58.7752L113.32 57.0078L110.714 60.364L115.861 65.8002L116.692 58.7752Z" fill="#4E5047"/>
<path d="M117.44 56.4465L117.813 52.2765L119.686 51.7812L121.234 55.3782L117.44 56.4465Z" fill="#786A3D"/>
<path d="M119.627 51.7698L120.998 50.0723L122.661 51.6571L121.175 55.3687L119.627 51.7698Z" fill="#899854"/>
<path d="M117.813 52.2766L116.129 50.7927L114.432 54.38L117.44 56.4465L117.813 52.2766Z" fill="#4E5047"/>
<path d="M116.692 49.5829L118.499 36.2205L118.94 49.9811L116.692 49.5829Z" fill="#4E5047"/>
<path d="M118.94 49.9811L121.175 48.6817L118.499 36.2205L118.94 49.9811Z" fill="#899854"/>
<path d="M130.202 64.973L131.696 62.7375L135.271 63.6329L135.409 66.5249L130.202 64.973Z" fill="#192F3A"/>
<path d="M135.409 66.5248L135.091 63.4755L137.315 62.0674L138.703 64.8564L135.409 66.5248Z" fill="#223E4C"/>
<path d="M131.834 70.6131L132.823 65.843L136.321 65.8702L138.047 70.5937L131.834 70.6131Z" fill="#786A3D"/>
<path d="M136.22 65.8372L139.168 64.2874L141.773 67.9776L137.946 70.5607L136.22 65.8372Z" fill="#899854"/>
<path d="M132.823 65.843L131.399 64.5825L127.888 68.6437L131.834 70.6131L132.823 65.843Z" fill="#4E5047"/>
<path d="M131.725 61.2963L133.012 59.457L135.024 60.1931L135.174 63.0851L131.725 61.2963Z" fill="#192F3A"/>
<path d="M135.174 63.0851L134.889 60.0339L136.495 58.6704L138.4 60.9195L135.174 63.0851Z" fill="#223E4C"/>
<path d="M133.362 58.0217L134.186 56.666L135.493 57.2273L135.608 59.3735L133.362 58.0217Z" fill="#192F3A"/>
<path d="M135.607 59.3735L135.403 57.1069L136.437 56.1067L137.682 57.7887L135.607 59.3735Z" fill="#223E4C"/>
<path d="M133.256 65.3632L133.864 61.6672L136.517 60.8748L138.23 64.2193L133.256 65.3632Z" fill="#786A3D"/>
<path d="M136.435 60.8748L138.14 59.3638L140.455 62.38L138.229 64.2193L136.435 60.8748Z" fill="#899854"/>
<path d="M133.863 61.6672L131.517 60.7058L129.684 62.4499L133.255 65.3633L133.863 61.6672Z" fill="#4E5047"/>
<path d="M134.396 60.4475L134.673 58.2508L135.982 58.0061L137.049 59.9172L134.396 60.4475Z" fill="#786A3D"/>
<path d="M135.941 58.0004L136.905 57.1167L138.058 57.9674L137.008 59.9116L135.941 58.0004Z" fill="#899854"/>
<path d="M134.673 58.2509L133.504 57.4526L132.304 59.3308L134.395 60.4475L134.673 58.2509Z" fill="#4E5047"/>
<path d="M133.9 56.8214L135.215 49.7905L135.468 57.0505L133.9 56.8214Z" fill="#4E5047"/>
<path d="M135.467 57.0505L137.033 56.3863L135.215 49.7905L135.467 57.0505Z" fill="#899854"/>
<path d="M138.838 70.8268L140.331 68.5913L143.909 69.4867L144.047 72.3786L138.838 70.8268Z" fill="#192F3A"/>
<path d="M144.046 72.3785L143.726 69.3293L145.951 67.9211L147.34 70.7082L144.046 72.3785Z" fill="#223E4C"/>
<path d="M140.471 76.4669L141.457 71.6968L144.957 71.724L146.684 76.4474L140.471 76.4669Z" fill="#786A3D"/>
<path d="M144.856 71.691L147.805 70.1411L150.407 73.8294L146.583 76.4145L144.856 71.691Z" fill="#899854"/>
<path d="M141.458 71.6968L140.034 70.4363L136.524 74.4975L140.471 76.4669L141.458 71.6968Z" fill="#4E5047"/>
<path d="M140.362 67.1501L141.648 65.3108L143.66 66.0469L143.812 68.9389L140.362 67.1501Z" fill="#192F3A"/>
<path d="M143.812 68.9388L143.524 65.8876L145.133 64.5242L147.036 66.7733L143.812 68.9388Z" fill="#223E4C"/>
<path d="M141.999 63.8757L142.821 62.522L144.128 63.0813L144.242 65.2275L141.999 63.8757Z" fill="#192F3A"/>
<path d="M144.243 65.2273L144.041 62.9607L145.072 61.9604L146.319 63.6424L144.243 65.2273Z" fill="#223E4C"/>
<path d="M141.893 71.2172L142.5 67.5212L145.152 66.7268L146.865 70.0733L141.893 71.2172Z" fill="#786A3D"/>
<path d="M145.07 66.7288L146.778 65.2178L149.091 68.234L146.865 70.0733L145.07 66.7288Z" fill="#899854"/>
<path d="M142.501 67.5212L140.155 66.5598L138.321 68.3039L141.893 71.2172L142.501 67.5212Z" fill="#4E5047"/>
<path d="M143.031 66.3015L143.309 64.1048L144.618 63.8601L145.684 65.7713L143.031 66.3015Z" fill="#786A3D"/>
<path d="M144.577 63.8542L145.54 62.9705L146.694 63.8212L145.643 65.7653L144.577 63.8542Z" fill="#899854"/>
<path d="M143.309 64.1049L142.14 63.3066L140.939 65.1848L143.031 66.3015L143.309 64.1049Z" fill="#4E5047"/>
<path d="M142.535 62.6754L143.85 55.6445L144.104 62.9045L142.535 62.6754Z" fill="#4E5047"/>
<path d="M144.105 62.9045L145.67 62.2403L143.851 55.6445L144.105 62.9045Z" fill="#899854"/>
<path d="M37.5566 73.8645L39.0288 70.6851L42.8278 71.7746L43.0978 75.795L37.5566 73.8645Z" fill="#192F3A"/>
<path d="M43.098 75.795L42.6318 71.5629L44.9101 69.5042L46.4891 73.3245L43.098 75.795Z" fill="#223E4C"/>
<path d="M39.5127 81.6468L40.3478 74.9598L44.0284 74.8413L46.0463 81.3439L39.5127 81.6468Z" fill="#786A3D"/>
<path d="M43.9189 74.8006L46.9527 72.5146L49.8485 77.5333L45.9369 81.3032L43.9189 74.8006Z" fill="#899854"/>
<path d="M40.3475 74.9597L38.7957 73.2681L35.2803 79.0792L39.5124 81.6468L40.3475 74.9597Z" fill="#4E5047"/>
<path d="M39 68.6787L40.2741 66.0605L42.4222 66.9967L42.7038 71.0151L39 68.6787Z" fill="#192F3A"/>
<path d="M42.7036 71.0152L42.2705 66.7792L43.902 64.8098L45.9996 67.8552L42.7036 71.0152Z" fill="#223E4C"/>
<path d="M40.5811 64.0463L41.3871 62.1235L42.7855 62.8441L42.9991 65.8293L40.5811 64.0463Z" fill="#192F3A"/>
<path d="M42.9982 65.8295L42.6855 62.6831L43.7285 61.2439L45.1114 63.5299L42.9982 65.8295Z" fill="#223E4C"/>
<path d="M40.7822 74.2741L41.2639 69.1001L44.018 67.8765L45.9621 72.4601L40.7822 74.2741Z" fill="#786A3D"/>
<path d="M43.9307 67.8823L45.6612 65.7012L48.223 69.7993L45.9622 72.4601L43.9307 67.8823Z" fill="#899854"/>
<path d="M41.2646 69.1L38.7552 67.8647L36.9023 70.376L40.7829 74.2741L41.2646 69.1Z" fill="#4E5047"/>
<path d="M41.7695 67.3753L41.9676 64.3066L43.333 63.9084L44.5372 66.5227L41.7695 67.3753Z" fill="#786A3D"/>
<path d="M43.29 63.9008L44.265 62.6287L45.5158 63.7629L44.4923 66.515L43.29 63.9008Z" fill="#899854"/>
<path d="M41.9677 64.3068L40.7033 63.2483L39.5225 65.915L41.7696 67.3755L41.9677 64.3068Z" fill="#4E5047"/>
<path d="M41.0938 62.349L42.1756 52.502L42.7524 62.5995L41.0938 62.349Z" fill="#4E5047"/>
<path d="M42.7516 62.5995L44.3695 61.6051L42.1748 52.502L42.7516 62.5995Z" fill="#899854"/>
<path d="M51.2998 73.402L52.3544 71.7336L54.9978 72.3241L55.1512 74.445L51.2998 73.402Z" fill="#192F3A"/>
<path d="M55.1507 74.445L54.8613 72.2134L56.4695 71.1375L57.5396 73.1593L55.1507 74.445Z" fill="#223E4C"/>
<path d="M52.6016 77.5139L53.2406 73.9927L55.8101 73.948L57.1638 77.3857L52.6016 77.5139Z" fill="#786A3D"/>
<path d="M55.7334 73.9264L57.8698 72.7339L59.849 75.3947L57.0891 77.3622L55.7334 73.9264Z" fill="#899854"/>
<path d="M53.2397 73.9925L52.1695 73.0933L49.666 76.1406L52.6007 77.5138L53.2397 73.9925Z" fill="#4E5047"/>
<path d="M52.3506 70.6732L53.2615 69.3L54.7531 69.8031L54.9163 71.924L52.3506 70.6732Z" fill="#192F3A"/>
<path d="M54.9165 71.924L54.6504 69.6885L55.806 68.6572L57.2452 70.2732L54.9165 71.924Z" fill="#223E4C"/>
<path d="M53.4922 68.2397L54.071 67.2297L55.0401 67.6162L55.1644 69.1914L53.4922 68.2397Z" fill="#192F3A"/>
<path d="M55.1649 69.1915L54.9746 67.5309L55.7146 66.7773L56.6605 67.9893L55.1649 69.1915Z" fill="#223E4C"/>
<path d="M53.5488 73.6332L53.9276 70.9064L55.8601 70.2751L57.1808 72.701L53.5488 73.6332Z" fill="#786A3D"/>
<path d="M55.7998 70.279L57.0253 69.137L58.7792 71.3084L57.1807 72.7009L55.7998 70.279Z" fill="#899854"/>
<path d="M53.9272 70.9064L52.187 70.2441L50.8721 71.559L53.5484 73.6333L53.9272 70.9064Z" fill="#4E5047"/>
<path d="M54.2949 70.0012L54.4581 68.3834L55.4156 68.1794L56.2333 69.5642L54.2949 70.0012Z" fill="#786A3D"/>
<path d="M55.3838 68.1757L56.0752 67.5095L56.9395 68.1136L56.2034 69.5605L55.3838 68.1757Z" fill="#899854"/>
<path d="M54.4581 68.3835L53.5841 67.8184L52.7373 69.2187L54.295 70.0014L54.4581 68.3835Z" fill="#4E5047"/>
<path d="M53.8652 67.3464L54.7004 62.1606L55.0209 67.4882L53.8652 67.3464Z" fill="#4E5047"/>
<path d="M55.0207 67.4882L56.1569 66.9696L54.7002 62.1606L55.0207 67.4882Z" fill="#899854"/>
<path d="M57.748 77.5429L58.8046 75.8726L61.448 76.4649L61.6014 78.5858L57.748 77.5429Z" fill="#192F3A"/>
<path d="M61.6009 78.5859L61.3096 76.3524L62.9177 75.2764L63.9898 77.2982L61.6009 78.5859Z" fill="#223E4C"/>
<path d="M59.0508 81.6528L59.6878 78.1316L62.2574 78.0869L63.613 81.5246L59.0508 81.6528Z" fill="#786A3D"/>
<path d="M62.1836 78.0656L64.32 76.873L66.2991 79.5339L63.5373 81.5033L62.1836 78.0656Z" fill="#899854"/>
<path d="M59.688 78.1314L58.6197 77.2322L56.1162 80.2795L59.0509 81.6527L59.688 78.1314Z" fill="#4E5047"/>
<path d="M58.8008 74.8143L59.7117 73.4392L61.2033 73.9442L61.3645 76.0631L58.8008 74.8143Z" fill="#192F3A"/>
<path d="M61.3647 76.063L61.0986 73.8275L62.2543 72.7981L63.6934 74.414L61.3647 76.063Z" fill="#223E4C"/>
<path d="M59.9424 72.3786L60.5212 71.3687L61.4903 71.7571L61.6146 73.3303L59.9424 72.3786Z" fill="#192F3A"/>
<path d="M61.6151 73.3302L61.4229 71.6696L62.1628 70.916L63.1087 72.128L61.6151 73.3302Z" fill="#223E4C"/>
<path d="M59.999 77.7722L60.3778 75.0472L62.3103 74.416L63.629 76.8399L59.999 77.7722Z" fill="#786A3D"/>
<path d="M62.25 74.4179L63.4755 73.2759L65.2294 75.4473L63.629 76.8398L62.25 74.4179Z" fill="#899854"/>
<path d="M60.3774 75.047L58.6352 74.3828L57.3223 75.6996L59.9986 77.772L60.3774 75.047Z" fill="#4E5047"/>
<path d="M60.7451 74.1402L60.9083 72.5223L61.8638 72.3203L62.6834 73.7032L60.7451 74.1402Z" fill="#786A3D"/>
<path d="M61.834 72.3166L62.5254 71.6484L63.3878 72.2525L62.6517 73.6994L61.834 72.3166Z" fill="#899854"/>
<path d="M60.9083 72.5222L60.0343 71.959L59.1875 73.3593L60.7452 74.1401L60.9083 72.5222Z" fill="#4E5047"/>
<path d="M60.3135 71.4872L61.1506 66.3015L61.4691 71.6271L60.3135 71.4872Z" fill="#4E5047"/>
<path d="M61.4689 71.6271L62.6071 71.1104L61.1504 66.3015L61.4689 71.6271Z" fill="#899854"/>
<g opacity="0.78">
<path d="M61.498 67.3074L62.3449 65.9653L64.4696 66.4412L64.592 68.1445L61.498 67.3074Z" fill="#192F3A"/>
<path d="M64.5924 68.1445L64.3594 66.3518L65.6509 65.4875L66.5114 67.1112L64.5924 68.1445Z" fill="#223E4C"/>
<path d="M62.5449 70.6092L63.0557 67.7813L65.1203 67.7444L66.2079 70.5062L62.5449 70.6092Z" fill="#786A3D"/>
<path d="M65.0605 67.7268L66.7775 66.7693L68.3662 68.9057L66.1482 70.4886L65.0605 67.7268Z" fill="#899854"/>
<path d="M63.0562 67.7813L62.1977 67.0569L60.1875 69.506L62.5453 70.6092L63.0562 67.7813Z" fill="#4E5047"/>
<path d="M62.3438 65.1147L63.074 64.0115L64.2724 64.4155L64.4044 66.1188L62.3438 65.1147Z" fill="#192F3A"/>
<path d="M64.4041 66.1188L64.1904 64.3242L65.1169 63.4968L66.2744 64.7942L64.4041 66.1188Z" fill="#223E4C"/>
<path d="M63.2598 63.1588L63.724 62.3489L64.5047 62.6596L64.6038 63.924L63.2598 63.1588Z" fill="#192F3A"/>
<path d="M64.6036 63.9242L64.4502 62.5899L65.0445 61.9839L65.8039 62.9589L64.6036 63.9242Z" fill="#223E4C"/>
<path d="M63.3047 67.4919L63.6096 65.3031L65.1614 64.7942L66.2219 66.7422L63.3047 67.4919Z" fill="#786A3D"/>
<path d="M65.1133 64.7961L66.098 63.8794L67.508 65.6255L66.2223 66.7422L65.1133 64.7961Z" fill="#899854"/>
<path d="M63.6093 65.3032L62.2109 64.769L61.1562 65.8256L63.3043 67.492L63.6093 65.3032Z" fill="#4E5047"/>
<path d="M63.9043 64.5748L64.0344 63.2755L64.8035 63.1123L65.46 64.2233L63.9043 64.5748Z" fill="#786A3D"/>
<path d="M64.7803 63.1083L65.3357 62.5742L66.0272 63.0578L65.4367 64.2193L64.7803 63.1083Z" fill="#899854"/>
<path d="M64.0352 63.2755L63.3341 62.821L62.6543 63.9475L63.9051 64.5749L64.0352 63.2755Z" fill="#4E5047"/>
<path d="M63.5586 62.4422L64.2306 58.2781L64.487 62.5548L63.5586 62.4422Z" fill="#4E5047"/>
<path d="M64.4878 62.5548L65.4007 62.1392L64.2314 58.2781L64.4878 62.5548Z" fill="#899854"/>
</g>
<path d="M25.4238 78.1993L26.6746 76.2202L29.8094 76.9214L29.9919 79.4365L25.4238 78.1993Z" fill="#192F3A"/>
<path d="M29.9912 79.4367L29.6475 76.7895L31.5528 75.5154L32.823 77.9101L29.9912 79.4367Z" fill="#223E4C"/>
<path d="M26.9678 83.0744L27.7252 78.8986L30.7706 78.8462L32.3768 82.921L26.9678 83.0744Z" fill="#786A3D"/>
<path d="M30.6816 78.819L33.2162 77.407L35.5624 80.5611L32.2898 82.8957L30.6816 78.819Z" fill="#899854"/>
<path d="M27.7252 78.8986L26.457 77.8323L23.4893 81.4448L26.9678 83.0743L27.7252 78.8986Z" fill="#4E5047"/>
<path d="M26.6709 74.9638L27.7508 73.3362L29.5182 73.9324L29.7124 76.4457L26.6709 74.9638Z" fill="#192F3A"/>
<path d="M29.7121 76.4455L29.3975 73.7964L30.7667 72.5747L32.472 74.4897L29.7121 76.4455Z" fill="#223E4C"/>
<path d="M28.0244 72.0794L28.71 70.8811L29.8618 71.3395L30.0074 73.2059L28.0244 72.0794Z" fill="#192F3A"/>
<path d="M30.0075 73.2059L29.7803 71.2364L30.6582 70.345L31.7808 71.7803L30.0075 73.2059Z" fill="#223E4C"/>
<path d="M28.0898 78.4732L28.5404 75.2414L30.8323 74.4917L32.3957 77.3681L28.0898 78.4732Z" fill="#786A3D"/>
<path d="M30.7607 74.4956L32.2135 73.1418L34.2936 75.7172L32.3961 77.3681L30.7607 74.4956Z" fill="#899854"/>
<path d="M28.5412 75.2414L26.4766 74.4548L24.9189 76.0144L28.0906 78.4733L28.5412 75.2414Z" fill="#4E5047"/>
<path d="M28.9756 74.1673L29.1698 72.2484L30.3041 72.0076L31.2732 73.6487L28.9756 74.1673Z" fill="#786A3D"/>
<path d="M30.2676 72.0036L31.0872 71.2131L32.1107 71.9279L31.2387 73.6429L30.2676 72.0036Z" fill="#899854"/>
<path d="M29.1702 72.2484L28.133 71.5803L27.1309 73.2409L28.976 74.1674L29.1702 72.2484Z" fill="#4E5047"/>
<path d="M28.4648 71.0209L29.4554 64.8718L29.836 71.186L28.4648 71.0209Z" fill="#4E5047"/>
<path d="M29.8367 71.186L31.1846 70.5742L29.4561 64.8718L29.8367 71.186Z" fill="#899854"/>
<path d="M16.9065 85.7099C16.6385 84.3717 15.8034 80.1824 15.7412 79.8367L15.9743 85.8342C16.285 85.7954 16.5958 85.7527 16.9065 85.7099Z" fill="#D3C529"/>
<path d="M17.7848 85.5818L15.4541 76.23L15.9766 80.7864L16.903 85.71L17.7848 85.5818Z" fill="#C29955"/>
<path d="M17.8378 85.5819C18.1602 85.5294 18.4846 85.475 18.8089 85.4168L17.9699 81.3711L17.1289 74.3345L17.8378 85.5819Z" fill="#675924"/>
<path d="M16.0876 85.8186L15.3107 80.3144L14.6504 73.9536L14.7028 79.555L15.1981 85.9293L16.0876 85.8186Z" fill="#C29955"/>
<path d="M13.6945 86.1158C13.3488 84.3814 12.735 81.2933 12.6807 81L12.8749 86.2226L13.6945 86.1158Z" fill="#807B61"/>
<path d="M14.5417 86.0109L12.4053 77.3933L12.9277 81.9498L13.7046 86.1139L14.5417 86.0109Z" fill="#C0AF55"/>
<path d="M14.7278 85.9879L15.6037 85.8811L14.9103 82.5269L14.0693 75.4824L14.7278 85.9879Z" fill="#304B22"/>
<path d="M12.4143 86.2888C12.5814 86.2636 12.7503 86.2422 12.9193 86.2189L12.2531 81.478L11.5928 75.1172L11.6472 80.7166L12.0822 86.349C12.1929 86.3257 12.3095 86.3063 12.4143 86.2888Z" fill="#988A64"/>
<g opacity="0.45">
<path d="M22.625 83.4744C22.6541 83.6686 23.1067 86.345 23.1067 86.345L22.7959 86.4692L22.625 83.4744Z" fill="#D3C529"/>
<path d="M22.4873 81.8257L22.7145 83.9077L23.1069 86.3452L23.3788 86.2287L22.4873 81.8257Z" fill="#C29955"/>
<path d="M22.9902 80.9553L23.3787 86.2284L23.6894 86.1041L23.3534 84.1716L22.9902 80.9553Z" fill="#675924"/>
<path d="M22.1982 80.7864L22.2934 83.3462L22.5478 86.3897L22.8489 86.4596L22.4954 83.6939L22.1982 80.7864Z" fill="#C29955"/>
<path d="M21.6699 84.0066C21.6991 84.2008 22.1516 86.8772 22.1516 86.8772L21.8408 87.0015L21.6699 84.0066Z" fill="#807B61"/>
<path d="M21.5312 82.3577L21.7585 84.4397L22.1508 86.8772L22.4227 86.7607L21.5312 82.3577Z" fill="#C0AF55"/>
<path d="M22.0332 81.4875L22.4236 86.7607L22.7343 86.6364L22.3983 84.7039L22.0332 81.4875Z" fill="#304B22"/>
<path d="M21.2422 81.3186L21.3374 83.8784L21.5918 86.9219L21.8928 86.9918L21.5393 84.2242L21.2422 81.3186Z" fill="#988A64"/>
<path d="M26.1466 82.6335C26.1369 82.8783 26.0204 86.4189 26.0204 86.4189L25.6455 86.4034L26.1466 82.6335Z" fill="#D3C529"/>
<path d="M26.374 80.5339L26.1468 83.2142L26.0205 86.4189L26.3487 86.4247L26.374 80.5339Z" fill="#C29955"/>
<path d="M27.1352 79.7378L26.3486 86.4249L26.7254 86.4404L26.7973 83.8844L27.1352 79.7378Z" fill="#675924"/>
<path d="M26.2937 79.1006L25.8062 82.2936L25.3867 86.1683L25.7052 86.4189L25.9519 82.8296L26.2937 79.1006Z" fill="#C29955"/>
<path d="M24.9601 82.7676C24.9484 83.0123 24.8319 86.553 24.8319 86.553L24.457 86.5374L24.9601 82.7676Z" fill="#807B61"/>
<path d="M25.1865 80.666L24.9573 83.3482L24.8311 86.5529L25.1612 86.5568L25.1865 80.666Z" fill="#C0AF55"/>
<path d="M25.9477 79.8716L25.1611 86.5567L25.536 86.5742L25.6078 84.0182L25.9477 79.8716Z" fill="#304B22"/>
<path d="M25.1053 79.2327L24.6178 82.4276L24.1982 86.3023L24.5168 86.5529L24.7634 82.9637L25.1053 79.2327Z" fill="#988A64"/>
</g>
<path d="M82.1595 81.4857C82.1692 80.7788 82.2061 78.5724 82.212 78.3782L81.6992 81.4449L82.1595 81.4857Z" fill="#D3C529"/>
<path d="M82.5923 81.5147L82.4544 76.5232L82.2291 78.8888L82.1611 81.4856L82.5923 81.5147Z" fill="#C29955"/>
<path d="M82.6182 81.5147C82.7794 81.5147 82.9406 81.5302 83.1018 81.5361L83.1212 79.3996L83.4514 75.7405L82.6182 81.5147Z" fill="#675924"/>
<path d="M81.7534 81.4526L81.9573 78.5781L82.3031 75.2764L81.7456 78.1217L81.3184 81.4099L81.7534 81.4526Z" fill="#C29955"/>
<path d="M80.5769 81.3476C80.5924 80.4309 80.6196 78.7994 80.6235 78.646L80.1768 81.3165L80.5769 81.3476Z" fill="#807B61"/>
<path d="M80.9938 81.3846L80.8656 76.7854L80.6403 79.153L80.582 81.3496L80.9938 81.3846Z" fill="#C0AF55"/>
<path d="M81.0859 81.3942L81.5171 81.4331L81.5326 79.6579L81.8628 75.9988L81.0859 81.3942Z" fill="#304B22"/>
<path d="M79.9454 81.309L80.194 81.3264L80.3688 78.8521L80.7145 75.5503L80.1571 78.3956L79.7803 81.2973L79.9454 81.309Z" fill="#988A64"/>
<path d="M88.2502 81.839C88.1318 80.2406 87.7627 75.2355 87.7356 74.8237L87.5996 81.8468C87.823 81.8468 88.0405 81.8448 88.2502 81.839Z" fill="#D3C529"/>
<path d="M88.8715 81.8158L87.7295 70.5781L87.8635 75.9658L88.2519 81.8391C88.4617 81.8352 88.6682 81.8274 88.8715 81.8158Z" fill="#C29955"/>
<path d="M88.9092 81.8137C89.1345 81.8021 89.3617 81.7866 89.589 81.7632L89.2102 76.9271L88.9791 68.6008L88.9092 81.8137Z" fill="#675924"/>
<path d="M87.6849 81.8469L87.4246 75.3172L87.2828 67.8066L87.042 74.3422L87.0672 81.8469H87.6849Z" fill="#C29955"/>
<path d="M86.0154 81.8451C85.8639 79.7727 85.592 76.0845 85.5687 75.7349L85.4502 81.8528C85.6386 81.847 85.827 81.8451 86.0154 81.8451Z" fill="#807B61"/>
<path d="M86.6074 81.8449L85.5547 71.489L85.6887 76.8748L86.0247 81.8449H86.6074Z" fill="#C0AF55"/>
<path d="M86.7373 81.845H87.3491L87.0345 77.8324L86.8033 69.5081L86.7373 81.845Z" fill="#304B22"/>
<path d="M85.1216 81.8605H85.4732L85.2498 76.2281L85.108 68.7175L84.8672 75.2531L84.8885 81.8799C84.9662 81.8702 85.0439 81.8624 85.1216 81.8605Z" fill="#988A64"/>
<path d="M260.538 98.0274C260.476 96.1862 260.28 90.4236 260.268 89.9497L259.717 98.006C259.991 98.0118 260.264 98.0235 260.538 98.0274Z" fill="#D3C529"/>
<path d="M261.316 98.0312L260.481 85.0767L260.36 91.2665L260.543 98.0274C260.801 98.0312 261.058 98.0332 261.316 98.0312Z" fill="#C29955"/>
<path d="M261.362 98.0293C261.65 98.0293 261.945 98.0293 262.225 98.0041L262.007 92.4338L262.164 82.8684L261.362 98.0293Z" fill="#675924"/>
<path d="M259.814 98.012L259.839 90.5072L260.066 81.8799L259.408 89.3691L259.033 97.9828C259.293 97.9919 259.554 98.0016 259.814 98.012Z" fill="#C29955"/>
<path d="M257.705 97.9266C257.625 95.5396 257.482 91.2939 257.472 90.8918L256.99 97.9071C257.223 97.911 257.468 97.9169 257.705 97.9266Z" fill="#807B61"/>
<path d="M258.453 97.9537L257.676 86.0168L257.556 92.2067L257.709 97.9265L258.453 97.9537Z" fill="#C0AF55"/>
<path d="M258.618 97.9615L259.395 97.9946L259.216 93.376L259.374 83.8086L258.618 97.9615Z" fill="#304B22"/>
<path d="M256.575 97.9013C256.724 97.9013 256.872 97.9013 257.021 97.9013L257.043 91.4376L257.268 82.8103L256.611 90.2995L256.281 97.9072C256.378 97.9052 256.475 97.9013 256.575 97.9013Z" fill="#988A64"/>
<path d="M276.463 99.4899C276.393 98.0274 276.172 93.4476 276.16 93.0806L275.492 99.4899C275.817 99.4821 276.139 99.4879 276.463 99.4899Z" fill="#D3C529"/>
<path d="M277.381 99.4918L276.41 89.198L276.257 94.1273L276.451 99.4995C276.772 99.4937 277.076 99.4937 277.381 99.4918Z" fill="#C29955"/>
<path d="M277.436 99.4919C277.773 99.4919 278.113 99.4919 278.453 99.4686L278.209 95.0423L278.403 87.4404L277.436 99.4919Z" fill="#675924"/>
<path d="M275.608 99.4783L275.651 93.5118L275.936 86.6558L275.144 92.6087L274.686 99.455L275.608 99.4783Z" fill="#C29955"/>
<path d="M273.116 99.4164C273.025 97.5188 272.864 94.1452 272.854 93.8247L272.271 99.4028C272.553 99.4047 272.835 99.4105 273.116 99.4164Z" fill="#807B61"/>
<path d="M273.998 99.4377L273.114 89.9519L272.959 94.8715L273.13 99.4163L273.998 99.4377Z" fill="#C0AF55"/>
<path d="M274.194 99.4415L275.105 99.4667L274.911 95.7959L275.117 88.1921L274.194 99.4415Z" fill="#304B22"/>
<path d="M271.79 99.3987H272.318L272.355 94.2615L272.641 87.4036L271.848 93.3584L271.442 99.4045C271.549 99.4026 271.664 99.3968 271.79 99.3987Z" fill="#988A64"/>
<g opacity="0.33">
<path d="M39.806 37.7022C39.7944 37.4051 35.8866 35.6279 35.8866 35.6279L24.1052 35.6551L16.9325 35.8746L13.9629 37.0399L39.806 37.7022Z" fill="#9C9CCD"/>
<path d="M30.0426 33.406L35.8867 35.6279L16.9307 35.8746L30.0426 33.406Z" fill="#413C45"/>
<path d="M41.3948 20.9291L43.3564 20.6494L59.1797 21.6885L62.7009 23.421L66.6048 28.4882L56.581 36.7931L39.4118 39.0908L23.1204 38.6732L17.6123 36.6183L20.8286 30.7295L30.0969 28.2144L39.2583 22.9568L41.3948 20.9291Z" fill="#C7CAE6"/>
<path d="M41.3946 20.9292L31.7263 25.8042L27.5952 27.3113L27.1504 28.533L31.6389 29.7605L38.6503 26.2625L41.3946 20.9292Z" fill="#DFE8F6"/>
<path d="M21.1124 31.6563L31.6392 29.7607L27.1507 28.5332L24.4452 28.7099L18.3389 30.1608L21.1124 31.6563Z" fill="#DFE8F6"/>
<path d="M17.6123 36.6185L21.1121 31.6562L18.3387 30.1606L16.1478 30.8501L14.3008 34.0062L17.6123 36.6185Z" fill="#EDEFF8"/>
<path d="M31.6387 29.7606L34.4918 34.5093L44.77 37.1605L60.4728 36.7293L66.6044 28.4885L38.6501 26.2627L31.6387 29.7606Z" fill="#9C9CCD"/>
<path d="M25.9893 38.8248L30.1009 36.8826L39.7266 35.4298L48.8938 35.558C48.8938 35.558 49.628 34.2489 50.6749 34.278C51.7217 34.3072 55.1186 34.0994 55.1186 34.0994L68.4986 34.8413L77.5396 38.3858L62.3903 39.2793L41.2201 39.8464L25.9893 38.8248Z" fill="#EDEFF8"/>
<path d="M41.2143 39.8483C40.6142 39.5376 43.141 38.0285 43.141 38.0285L30.1009 36.8826L25.9893 38.8248L41.2143 39.8483Z" fill="#DFE8F6"/>
<path d="M43.1406 38.0284L45.6985 37.2223L39.7262 35.4277L30.1006 36.8825L43.1406 38.0284Z" fill="#9C9CCD"/>
<path d="M45.6989 37.2223L51.6906 36.0104L48.8938 35.5579L39.7266 35.4277L45.6989 37.2223Z" fill="#DFE8F6"/>
<path d="M51.6903 36.0105L57.0042 39.4133L43.1406 38.0285L45.6985 37.2224L51.6903 36.0105Z" fill="#DFE8F6"/>
<path d="M57.0041 39.4134L41.2119 39.8484L43.1405 38.0286L57.0041 39.4134Z" fill="#C7CAE6"/>
<path d="M72.5129 38.7238L68.277 37.6206L51.6904 36.0105L67.4923 36.5135L73.6705 36.8029L77.5394 38.3878L72.5129 38.7238Z" fill="#DFE8F6"/>
</g>
<g opacity="0.72">
<g opacity="0.82">
<path d="M173.989 32.8505L183.007 30.3004L204.674 25.2079L220.41 24.2795L207.147 27.9212L204.228 29.8809L197.597 31.2812L186.19 32.6835L173.989 32.8505Z" fill="#DFE8F6"/>
<path d="M229.22 32.0835C229.22 31.6504 225.507 28.8322 225.507 28.8322L214.106 28.1816L207.155 28.0825L204.241 29.5994L229.22 32.0835Z" fill="#9C9CCD"/>
<path d="M229.218 32.0835L225.771 32.5166L173.989 32.8506L197.597 30.6831L204.228 29.5994L229.218 32.0835Z" fill="#9C9CCD"/>
<path d="M219.936 25.2566L225.506 28.8322L207.146 28.0825L219.936 25.2566Z" fill="#413C45"/>
<path d="M231.411 7.74933L233.32 7.45605L248.598 9.89548L251.939 12.6262L255.52 20.232L245.494 31.7415L228.783 34.0839L213.03 32.5223L207.778 29.207L211.119 20.8185L220.191 17.6974L229.261 10.5772L231.411 7.74933Z" fill="#C7CAE6"/>
<path d="M231.411 7.74927L221.861 14.2829L217.804 16.2348L217.326 17.9906L221.622 20.0377L228.546 15.3569L231.411 7.74927Z" fill="#DFE8F6"/>
<path d="M211.357 22.1837L221.622 20.0376L217.326 17.9905L214.7 18.0876L208.731 19.8434L211.357 22.1837Z" fill="#DFE8F6"/>
<path d="M207.778 29.2069L211.358 22.1839L208.732 19.8435L206.584 20.7214L204.675 25.2079L207.778 29.2069Z" fill="#EDEFF8"/>
<path d="M221.622 20.0377L224.199 27.1209L234.046 31.5842L249.264 31.8755L255.52 20.2319L228.546 15.3569L221.622 20.0377Z" fill="#AFAFD3"/>
<path d="M215.802 32.9088L219.857 30.3198L229.232 28.766L238.1 29.4905C238.1 29.4905 238.862 27.6259 239.876 27.7308C240.889 27.8357 244.183 27.7308 244.183 27.7308L257.105 29.5934L265.721 35.288L251.024 35.7017L230.499 35.288L215.802 32.9088Z" fill="#EDEFF8"/>
<path d="M230.499 35.29C229.929 34.8025 232.441 32.7534 232.441 32.7534L219.861 30.3198L215.806 32.9088L230.499 35.29Z" fill="#DFE8F6"/>
<path d="M232.434 32.7535L234.942 31.7299L229.232 28.7681L219.854 30.3199L232.434 32.7535Z" fill="#9C9CCD"/>
<path d="M234.942 31.7299L240.79 30.316L238.1 29.4925L229.231 28.7681L234.942 31.7299Z" fill="#DFE8F6"/>
<path d="M240.79 30.3159L245.803 35.5832L232.435 32.7534L234.942 31.7299L240.79 30.3159Z" fill="#DFE8F6"/>
<path d="M245.803 35.5832L230.498 35.29L232.434 32.7534L245.803 35.5832Z" fill="#C7CAE6"/>
<path d="M260.841 35.4842L256.784 33.6313L240.79 30.3159L256.068 31.9746L262.036 32.7534L265.72 35.2899L260.841 35.4842Z" fill="#DFE8F6"/>
</g>
<g opacity="0.46">
<path d="M266.546 34.6685C266.546 34.9248 269.519 36.4009 269.519 36.4009L278.454 36.2067L283.892 35.9095L286.139 34.8627L266.546 34.6685Z" fill="#9C9CCD"/>
<path d="M273.954 38.2303L269.52 36.4008L283.882 35.9036L273.954 38.2303Z" fill="#413C45"/>
<path d="M265.378 49.1769L263.892 49.4469L251.899 48.7884L249.226 47.3434L246.259 43.0278L253.837 35.7037L266.84 33.4624L279.185 33.5789L283.363 35.2706L280.939 40.4039L273.922 42.7151L266.992 47.3939L265.378 49.1769Z" fill="#C7CAE6"/>
<path d="M265.378 49.1768L272.692 44.8204L275.819 43.4589L276.153 42.3965L272.751 41.4041L267.444 44.5291L265.378 49.1768Z" fill="#DFE8F6"/>
<path d="M280.724 39.6094L272.751 41.404L276.154 42.3965L278.203 42.2042L282.827 40.8582L280.724 39.6094Z" fill="#DFE8F6"/>
<path d="M283.363 35.2705L280.724 39.6094L282.827 40.8583L284.486 40.229L285.878 37.4769L283.363 35.2705Z" fill="#EDEFF8"/>
<path d="M272.751 41.4042L270.577 37.3469L262.785 35.2104L250.887 35.8184L246.259 43.0279L267.444 44.5292L272.751 41.4042Z" fill="#9C9CCD"/>
<path d="M277.012 33.4915L273.905 35.2395L266.613 36.6379L259.666 36.6651C259.666 36.6651 259.115 37.8052 258.32 37.7974C257.526 37.7896 254.954 38.0169 254.954 38.0169L244.814 37.5779L237.956 34.651L249.431 33.6527L265.477 32.8447L277.012 33.4915Z" fill="#EDEFF8"/>
<path d="M265.475 32.8369C265.932 33.0952 264.019 34.4354 264.019 34.4354L273.903 35.2317L277.01 33.4837L265.475 32.8369Z" fill="#DFE8F6"/>
<path d="M264.018 34.4353L262.082 35.1714L266.609 36.63L273.9 35.2316L264.018 34.4353Z" fill="#9C9CCD"/>
<path d="M262.082 35.1714L257.543 36.3076L259.664 36.6572L266.609 36.63L262.082 35.1714Z" fill="#DFE8F6"/>
<path d="M257.544 36.3077L253.51 33.4487L264.019 34.4354L262.083 35.1715L257.544 36.3077Z" fill="#DFE8F6"/>
<path d="M253.51 33.4487L265.476 32.8369L264.019 34.4354L253.51 33.4487Z" fill="#C7CAE6"/>
<path d="M241.761 34.2781L244.973 35.1657L257.543 36.3077L245.57 36.1096L240.889 35.9542L237.952 34.6432L241.761 34.2781Z" fill="#DFE8F6"/>
</g>
</g>
<path d="M235.445 82.4897L243.373 71.1724L253.749 68.9272L260.574 74.9132L264.973 94.7859L258.212 97.2195L236.467 93.1253L235.445 82.4897Z" fill="#413C45"/>
<path d="M258.212 97.2197L251.477 81.9325L260.574 74.9133L264.973 94.7861L258.212 97.2197Z" fill="#83827A"/>
<path d="M251.476 81.9323L246.634 74.48L253.748 68.9272L260.573 74.9132L251.476 81.9323Z" fill="#908E82"/>
<path d="M246.634 74.48L237.531 76.0435L243.373 71.1724L253.749 68.9272L246.634 74.48Z" fill="#8D8E7C"/>
<path d="M216.725 0C216.725 0 220.803 1.2974 223.522 3.49599C223.522 3.49599 226.047 9.84122 228.442 11.597C228.442 11.597 230.384 14.4113 233.063 17.5499C233.063 17.5499 238.338 24.3826 238.736 26.7346L240.775 32.8002L216.049 28.5856L216.167 23.2833L216.913 8.20781L216.725 0Z" fill="#8D8E7C"/>
<path d="M217.408 32.2505C217.796 32.3165 245.799 39.1997 245.799 39.1997L240.777 32.7632L216.851 28.7273L217.408 32.2505Z" fill="#908E82"/>
<path d="M213.57 53.4323L216.317 55.6309L217.051 63.3648L226.513 62.9569L225.13 70.1257L237.176 83.2939L246.547 61.007L245.796 39.0754L217.4 32.2485L213.57 53.4323Z" fill="#83827A"/>
<path d="M243.012 86.0034L239.195 76.1195L246.362 55.9185L246.615 72.3263L243.012 86.0034Z" fill="#7B7778"/>
<path d="M215.242 2.82393L216.499 0.337891L219.148 0.46025L217.018 29.0516L206.23 31.2133L215.242 2.82393Z" fill="#4D4753"/>
<path d="M202.105 33.8353L218.519 32.0019L216.676 28.2515L203.601 31.629L202.105 33.8353Z" fill="#46414D"/>
<path d="M203.765 62.4579C204.131 61.9529 214.545 53.1585 214.545 53.1585L218.519 32.002L202.105 33.8354L198.863 53.982L203.765 62.4579Z" fill="#4D4753"/>
<path d="M220.711 75.0221L218.864 85.6013L231.463 87.8427L224.452 66.9949L225.689 50.0005L221.212 59.261L220.711 75.0221Z" fill="#423B4A"/>
<path d="M243.477 90.4899C243.562 89.9927 244.174 85.5003 244.174 85.5003L240.357 75.6183L232.783 64.3865L227.626 58.6977L227.432 51.8475L225.684 50.0005C225.684 50.0005 224.307 66.5754 224.165 66.8978C224.023 67.2202 231.46 87.8504 231.46 87.8504L243.477 90.4899Z" fill="#4D4753"/>
<path d="M237.574 92.4379L229.993 72.0368L212.583 47.93L200.932 41.1226L209.672 59.3231L212.123 69.914L217.703 77.4459L227.303 84.9448L237.574 92.4379Z" fill="#83827A"/>
<path d="M191.906 87.4523L194.755 90.4588L237.574 92.4379L218.062 77.444L212.583 69.9102L191.906 87.4523Z" fill="#3D3645"/>
<path d="M201.355 39.0869L194.314 65.1748L216.436 62.1799L201.355 39.0869Z" fill="#413C45"/>
<path d="M190.835 88.9923C190.835 85.7935 194.08 64.9846 194.08 64.9846L204.005 60.1038L210.053 59.3269L212.578 70.4966L190.835 88.9923Z" fill="#4D4753"/>
<path d="M216.437 62.1799L221.29 49.2932L201.827 40.561L216.437 62.1799Z" fill="#4D4753"/>
<path d="M213.653 90.684L209.503 87.0055L199.817 82.4801L191.916 80.7651L198.094 84.3835L199.409 86.2616L202.515 87.6775L207.895 89.173L213.653 90.684Z" fill="#83827A"/>
<path d="M187.381 88.8407C187.402 88.3163 189.311 84.9815 189.311 84.9815L194.777 84.3872H198.094L199.409 86.2653L187.381 88.8407Z" fill="#4D4753"/>
<path d="M187.381 88.8407L189.001 89.4195L213.653 90.6839L202.515 87.6773L199.409 86.2615L187.381 88.8407Z" fill="#3D3645"/>
<path d="M192.141 80.7632L189.312 84.9817L198.094 84.3835L192.141 80.7632Z" fill="#413C45"/>
<path d="M187.544 59.4666L186.649 59.082L179.249 61.7681L177.522 65.0039L175.438 74.1167L179.643 88.157L187.488 91.2568L195.072 89.637L197.737 85.7273L196.562 75.5598L192.396 71.6462L188.426 62.9121L187.544 59.4666Z" fill="#4D4753"/>
<path d="M187.545 59.4668L191.769 67.5037L193.607 69.9237L193.746 72.0465L191.598 74.4452L188.532 68.6865L187.545 59.4668Z" fill="#8D8E7C"/>
<path d="M196.381 77.203L191.598 74.445L193.746 72.0464L194.993 72.2076L197.747 74.4237L196.381 77.203Z" fill="#7B7778"/>
<path d="M197.738 85.7275L196.382 77.2031L197.747 74.4238L198.728 75.5173L199.416 80.9574L197.738 85.7275Z" fill="#8D8E7C"/>
<path d="M191.598 74.4452L190.017 82.9405L185.105 88.1573L177.841 88.2563L175.438 74.117L188.531 68.6865L191.598 74.4452Z" fill="#423D48"/>
<path d="M193.732 90.0587L191.93 86.8696L187.54 84.8419L183.279 85.5683C183.279 85.5683 183.009 83.3095 182.522 83.4163C182.034 83.5232 180.469 83.3445 180.469 83.3445L174.219 85.3877L169.833 92.1078L176.813 92.8517L186.612 92.6943L193.732 90.0587Z" fill="#3D3645"/>
<path d="M186.612 92.6844C186.907 92.1017 185.815 89.5943 185.815 89.5943L191.93 86.8752L193.732 90.0644L186.612 92.6844Z" fill="#83827A"/>
<path d="M185.816 89.5944L184.672 88.3184L187.539 84.8418L191.928 86.8695L185.816 89.5944Z" fill="#7B7778"/>
<path d="M184.672 88.3184L181.957 86.516L183.278 85.5682L187.539 84.8418L184.672 88.3184Z" fill="#8D8E7C"/>
<path d="M181.957 86.5159L179.306 92.7815L185.816 89.5943L184.672 88.3182L181.957 86.5159Z" fill="#4D4753"/>
<path d="M179.306 92.7817L186.612 92.6846L185.816 89.5945L179.306 92.7817Z" fill="#453F4A"/>
<path d="M172.146 92.4144L174.172 90.2488L181.956 86.5159L174.595 88.26L171.713 89.1029L169.831 92.0978L172.146 92.4144Z" fill="#2F2A36"/>
<path d="M113.391 95.8035L111.478 96.8484L112.602 98.3109C118.257 99.0878 124.124 99.6783 130.203 100.082C156.306 101.813 183.647 100.179 210.43 99.6433L210.321 93.3272L198.691 89.5632L187.531 89.4292L135.789 87.9706L92.3955 85.3369L91.3584 87.652L91.3778 88.8077L93.5531 90.4333L108.601 91.9871L113.391 95.8035Z" fill="url(#paint0_linear_108_54294)"/>
<path d="M185.022 93.269L184.841 95.2229L193.653 96.0114L210.325 93.607L210.131 82.3945C207.53 82.5557 199.668 83.0102 192.029 83.1404C182.707 83.3016 163.09 85.0496 142.825 85.6147C122.56 86.1799 92.3936 85.337 92.3936 85.337C92.3936 85.337 96.7247 87.6308 101.019 87.7745C105.313 87.9182 155.632 93.9197 155.632 93.9197L150.713 94.8713L156.949 95.7046L164.537 95.8172L171.302 94.2285" fill="#83827A"/>
<path d="M223.366 98.6528L229.605 94.749L238.201 93.8691L244.113 95.8055L248.473 102.446L242.905 103.345L224.586 102.223L223.366 98.6528Z" fill="#413C45"/>
<path d="M242.905 103.345L236.748 98.2762L244.113 95.8057L248.473 102.446L242.905 103.345Z" fill="#83827A"/>
<path d="M236.748 98.276L232.444 95.823L238.201 93.8691L244.113 95.8055L236.748 98.276Z" fill="#908E82"/>
<path d="M232.445 95.823L224.89 96.4562L229.605 94.749L238.202 93.8691L232.445 95.823Z" fill="#8D8E7C"/>
<path d="M204.879 71.0908C204.879 71.0908 208.34 71.4793 210.686 72.1862C210.686 72.1862 213.017 74.2935 215.077 74.8568C215.077 74.8568 216.791 75.7813 219.144 76.799C219.144 76.799 223.79 79.0384 224.194 79.825L226.109 81.8449L205.283 80.7184L205.199 78.9316L205.304 73.8449L204.879 71.0908Z" fill="#8D8E7C"/>
<path d="M206.554 81.9438C206.873 81.9613 230.527 83.9501 230.527 83.9501L226.105 81.8428L205.966 80.7649L206.554 81.9438Z" fill="#908E82"/>
<path d="M204.08 89.1225L206.45 89.8314L207.331 92.4282L215.226 92.1796L214.318 94.6093L224.84 98.9035L231.908 91.2862L230.525 83.9096L206.553 81.9441L204.08 89.1225Z" fill="#83827A"/>
<path d="M229.813 99.7463L226.282 96.464L231.579 89.575L232.354 95.0986L229.813 99.7463Z" fill="#7B7778"/>
<path d="M203.737 72.0582L204.702 71.2075L206.92 71.2172L206.124 80.872L197.18 81.7266L203.737 72.0582Z" fill="#4D4753"/>
<path d="M193.821 82.6569L207.479 81.847L205.811 80.606L194.996 81.8975L193.821 82.6569Z" fill="#46414D"/>
<path d="M196.193 92.2786C196.483 92.1038 204.886 89.0195 204.886 89.0195L207.479 81.8469L193.822 82.6588L191.806 89.4818L196.193 92.2786Z" fill="#4D4753"/>
<path d="M210.792 96.3105L209.611 99.8958L220.222 100.502L213.643 93.5623L214.092 87.825L210.67 90.9966L210.792 96.3105Z" fill="#423B4A"/>
<path d="M230.354 101.253C230.411 101.084 230.766 99.5637 230.766 99.5637L227.235 96.2814L220.525 92.5912L216.019 90.7344L215.63 88.431L214.1 87.8289C214.1 87.8289 213.517 93.4263 213.41 93.5351C213.304 93.6439 220.23 100.506 220.23 100.506L230.354 101.253Z" fill="#4D4753"/>
<path d="M225.49 101.978L218.449 95.1956L203.067 87.2811L193.092 85.1252L201.026 91.1519L203.438 94.6907L208.362 97.1631L216.645 99.5753L225.49 101.978Z" fill="#83827A"/>
<path d="M187.141 100.836L189.627 101.815L225.49 101.978L208.662 97.1575L203.822 94.6851L187.141 100.836Z" fill="#3D3645"/>
<path d="M193.377 84.4358L188.388 93.304L206.779 92.0357L193.377 84.4358Z" fill="#413C45"/>
<path d="M186.297 101.366C186.188 100.29 188.185 93.2438 188.185 93.2438L196.313 91.4822L201.342 91.1482L203.841 94.8792L186.297 101.366Z" fill="#4D4753"/>
<path d="M206.778 92.0357L210.392 87.6386L193.821 84.9253L206.778 92.0357Z" fill="#4D4753"/>
<path d="M205.432 101.669L201.835 100.479L193.583 99.0686L186.917 98.583L192.208 99.7289L193.371 100.347L196.016 100.787L200.565 101.228L205.432 101.669Z" fill="#83827A"/>
<path d="M183.405 101.357C183.405 101.18 184.885 100.034 184.885 100.034L189.436 99.7698L192.207 99.729L193.373 100.347L183.405 101.357Z" fill="#4D4753"/>
<path d="M183.403 101.356L184.78 101.533L205.432 101.669L196.016 100.787L193.371 100.346L183.403 101.356Z" fill="#3D3645"/>
<path d="M187.108 98.5791L184.886 100.034L192.208 99.7289L187.108 98.5791Z" fill="#413C45"/>
<path d="M182.532 91.461L181.769 91.3425L175.676 92.335L174.344 93.444L172.916 96.538L176.915 101.217L183.579 102.168L189.862 101.535L191.956 100.185L190.623 96.7749L187.007 95.5066L183.388 92.6108L182.532 91.461Z" fill="#4D4753"/>
<path d="M182.531 91.4609L186.338 94.1179L187.958 94.9123L188.148 95.6251L186.433 96.4583L183.673 94.5549L182.531 91.4609Z" fill="#8D8E7C"/>
<path d="M190.528 97.3303L186.434 96.4582L188.149 95.625L189.195 95.6658L191.575 96.3786L190.528 97.3303Z" fill="#7B7778"/>
<path d="M191.955 100.185L190.527 97.3303L191.574 96.3787L192.431 96.736L193.194 98.5598L191.955 100.185Z" fill="#8D8E7C"/>
<path d="M186.434 96.4581L185.406 99.3384L181.479 101.152L175.41 101.271L172.916 96.5377L183.674 94.5547L186.434 96.4581Z" fill="#423D48"/>
<path d="M188.756 101.702L187.14 100.65L183.4 100.018L179.863 100.312C179.863 100.312 179.56 99.5542 179.156 99.597C178.752 99.6397 177.437 99.597 177.437 99.597L172.284 100.354L168.847 102.67L174.708 102.839L182.895 102.67L188.756 101.702Z" fill="#3D3645"/>
<path d="M182.895 102.66C183.122 102.465 182.118 101.628 182.118 101.628L187.137 100.64L188.753 101.692L182.895 102.66Z" fill="#83827A"/>
<path d="M182.121 101.628L181.121 101.213L183.399 100.009L187.138 100.64L182.121 101.628Z" fill="#7B7778"/>
<path d="M181.122 101.213L178.789 100.638L179.863 100.302L183.4 100.009L181.122 101.213Z" fill="#8D8E7C"/>
<path d="M178.789 100.638L176.79 102.778L182.121 101.628L181.121 101.213L178.789 100.638Z" fill="#4D4753"/>
<path d="M176.79 102.778L182.894 102.66L182.121 101.628L176.79 102.778Z" fill="#453F4A"/>
<path d="M170.793 102.739L172.411 101.986L178.789 100.638L172.696 101.312L170.317 101.628L168.847 102.66L170.793 102.739Z" fill="#2F2A36"/>
<path d="M154.113 76.0028L170.57 75.6279L178.428 88.4116L146.655 89.1341L154.113 76.0028Z" fill="#D75227"/>
<path style="mix-blend-mode:color-burn" d="M154.113 76.0028L170.57 75.6279L178.428 88.4116L146.655 89.1341L154.113 76.0028Z" fill="url(#paint1_linear_108_54294)"/>
<path d="M154.113 76.0027L161.69 88.7922L146.655 89.134L154.113 76.0027Z" fill="#EE6F30"/>
<path d="M154.362 88.9592L154.114 76.0027L151.895 86.1333L151.719 89.0194L154.362 88.9592Z" fill="#44220F"/>
<path d="M154.062 76.1485C154.063 76.1806 154.077 76.211 154.1 76.2332C154.123 76.2553 154.154 76.2675 154.187 76.267C154.219 76.2655 154.249 76.2517 154.271 76.2285C154.293 76.2054 154.305 76.1746 154.305 76.1426L154.27 74.6627C154.27 74.6469 154.267 74.6312 154.26 74.6167C154.254 74.6022 154.245 74.5891 154.233 74.5781C154.222 74.5671 154.209 74.5584 154.194 74.5526C154.179 74.5468 154.164 74.5439 154.148 74.5442C154.116 74.5452 154.085 74.5588 154.063 74.5821C154.041 74.6053 154.029 74.6364 154.029 74.6685L154.062 76.1485Z" fill="#44220F"/>
<path d="M154.199 75.3849L154.122 75.4343L166.133 94.0927L166.209 94.0432L154.199 75.3849Z" fill="#44220F"/>
<path d="M154.13 75.374L143.104 89.6594L143.177 89.7152L154.202 75.4298L154.13 75.374Z" fill="#44220F"/>
<path d="M153.703 75.4685C153.704 75.5027 153.719 75.535 153.743 75.5587C153.768 75.5823 153.801 75.5952 153.835 75.5947L154.484 75.5792C154.518 75.5782 154.55 75.564 154.573 75.5397C154.597 75.5154 154.61 75.4829 154.61 75.449C154.61 75.432 154.606 75.4153 154.6 75.3997C154.593 75.3841 154.583 75.37 154.571 75.3583C154.558 75.3465 154.544 75.3373 154.528 75.3313C154.512 75.3252 154.495 75.3223 154.478 75.3228L153.829 75.3364C153.812 75.3366 153.796 75.3403 153.78 75.3471C153.764 75.3539 153.75 75.3637 153.739 75.376C153.727 75.3883 153.718 75.4028 153.712 75.4187C153.706 75.4345 153.703 75.4515 153.703 75.4685Z" fill="#44220F"/>
<path d="M166.319 92.861L165.927 92.8699L165.968 94.6815L166.36 94.6726L166.319 92.861Z" fill="#44220F"/>
<path d="M166.486 93.6439L165.791 93.6597L165.798 93.9762L166.493 93.9604L166.486 93.6439Z" fill="#44220F"/>
<path d="M142.751 89.3745L142.358 89.3823L142.395 91.1944L142.787 91.1866L142.751 89.3745Z" fill="#44220F"/>
<path d="M143.471 89.5758L142.776 89.5916L142.784 89.9081L143.479 89.8923L143.471 89.5758Z" fill="#44220F"/>
<path d="M154.626 75.9911L170.57 75.6279L170.729 75.8901L154.626 75.9911Z" fill="#F8CB31"/>
<path d="M133.005 87.0171C132.995 87.0118 132.983 87.009 132.972 87.009C132.96 87.009 132.949 87.0118 132.939 87.0171L128.738 88.6194C128.705 88.6313 128.678 88.655 128.661 88.6858C128.645 88.7166 128.64 88.7525 128.649 88.7864C128.665 88.8753 128.703 88.9587 128.76 89.0292C128.817 89.0997 128.89 89.1551 128.973 89.1904C128.983 89.1957 128.994 89.1984 129.006 89.1984C129.017 89.1984 129.029 89.1957 129.039 89.1904C129.907 88.7321 130.803 88.3305 131.723 87.9882L132.281 88.0872L132.372 87.9455L132.079 87.8561C132.424 87.7299 132.772 87.6114 133.12 87.4968C133.129 87.4938 133.138 87.4887 133.146 87.482C133.154 87.4754 133.16 87.4672 133.164 87.458C133.192 87.3773 133.192 87.2896 133.163 87.2093C133.134 87.1291 133.078 87.0613 133.005 87.0171Z" fill="#3D2411"/>
<g style="mix-blend-mode:multiply" opacity="0.5">
<path d="M128.7 88.767C128.714 88.8375 128.744 88.904 128.786 88.9623C128.828 89.0206 128.882 89.0692 128.944 89.1049C128.951 89.1096 128.96 89.1121 128.968 89.1119C128.976 89.1118 128.984 89.1091 128.991 89.1043C128.998 89.0994 129.003 89.0926 129.006 89.0847C129.009 89.0768 129.009 89.0683 129.007 89.0603C128.993 88.9896 128.964 88.9227 128.921 88.8644C128.879 88.806 128.825 88.7576 128.762 88.7223C128.755 88.7177 128.747 88.7152 128.738 88.7153C128.73 88.7155 128.722 88.7181 128.715 88.723C128.708 88.7279 128.703 88.7347 128.701 88.7426C128.698 88.7504 128.697 88.759 128.7 88.767Z" fill="#2D1311"/>
</g>
<g style="mix-blend-mode:multiply" opacity="0.26">
<path d="M132.28 88.0814C132.292 88.06 132.305 88.0387 132.319 88.0173C132.286 88.0173 131.93 87.9338 131.894 87.9241L131.725 87.9804C131.781 87.9979 132.218 88.0678 132.28 88.0814Z" fill="#2D1311"/>
<path d="M128.734 88.8835C128.726 88.8498 128.731 88.8144 128.747 88.7837C128.763 88.753 128.789 88.7291 128.821 88.7165L133.022 87.1142C133.033 87.1095 133.044 87.107 133.056 87.107C133.067 87.107 133.078 87.1095 133.089 87.1142L133.125 87.1433C133.094 87.0936 133.053 87.0507 133.005 87.0171C132.995 87.0118 132.983 87.009 132.972 87.009C132.96 87.009 132.949 87.0118 132.939 87.0171L128.738 88.6194C128.705 88.6313 128.678 88.655 128.661 88.6858C128.645 88.7166 128.64 88.7525 128.649 88.7864C128.672 88.9034 128.732 89.0101 128.82 89.0913C128.779 89.0277 128.75 88.9574 128.734 88.8835Z" fill="#2D1311"/>
</g>
<path d="M132.314 88.8836C131.408 88.3516 130.453 87.9068 129.463 87.5552L129.195 87.1182L129.051 87.1628L129.222 87.4716C128.981 87.3901 128.736 87.3143 128.492 87.2425C128.465 87.2328 128.435 87.2328 128.408 87.2425C128.361 87.2613 128.317 87.2875 128.278 87.3201C128.264 87.3341 128.254 87.3512 128.249 87.3699C128.244 87.3886 128.243 87.4083 128.246 87.4274C128.25 87.4465 128.259 87.4644 128.271 87.4796C128.283 87.4947 128.299 87.5066 128.317 87.5144C129.193 87.8912 130.065 88.2912 130.927 88.6797L130.595 88.8157L130.723 89.0099L131.236 88.8157C131.512 88.938 131.788 89.0604 132.065 89.1789C132.091 89.1885 132.119 89.1885 132.145 89.1789C132.232 89.1586 132.308 89.1058 132.357 89.0312C132.368 89.0055 132.37 88.9767 132.362 88.9497C132.354 88.9228 132.337 88.8994 132.314 88.8836Z" fill="#643B16"/>
<g style="mix-blend-mode:multiply" opacity="0.5">
<path d="M130.692 88.9728L130.723 89.0214L130.791 88.9961L131.236 88.8271C131.209 88.8097 131.181 88.7954 131.151 88.7844L130.692 88.9728Z" fill="#2D1311"/>
</g>
<g style="mix-blend-mode:multiply" opacity="0.5">
<path d="M132.096 89.138C132.113 89.1632 132.18 89.138 132.244 89.1011C132.308 89.0642 132.345 88.9981 132.327 88.9729C132.31 88.9476 132.242 88.9729 132.178 89.0078C132.113 89.0428 132.077 89.1108 132.096 89.138Z" fill="#2D1311"/>
</g>
<path opacity="0.4" d="M132.145 89.1964C132.232 89.1762 132.308 89.1233 132.357 89.0488C132.373 89.0221 132.379 88.9901 132.372 88.9595C132.343 89.1051 132.223 88.9769 132.223 88.9769L130.451 88.2234C130.451 88.2234 132.219 89.0294 132.131 89.0333C132.044 89.0372 128.864 87.5805 128.684 87.5086C128.549 87.4516 128.419 87.3834 128.295 87.3047L128.27 87.3241C128.257 87.3381 128.247 87.3552 128.241 87.3739C128.236 87.3926 128.235 87.4123 128.239 87.4314C128.242 87.4505 128.251 87.4684 128.263 87.4835C128.275 87.4987 128.291 87.5106 128.309 87.5183C129.185 87.8951 130.057 88.2952 130.919 88.6837L130.587 88.8196L130.715 89.0138L131.228 88.8196C131.504 88.942 131.78 89.0643 132.057 89.1828C132.07 89.1909 132.085 89.1962 132.1 89.1985C132.115 89.2009 132.13 89.2002 132.145 89.1964Z" fill="#2D1311"/>
<path opacity="0.4" d="M132.247 88.8837C132.247 88.8837 130.589 87.9747 130.558 88.0194C130.888 88.3399 132.247 88.8837 132.247 88.8837Z" fill="#2D1311"/>
<path d="M128.515 87.2869C128.515 87.2869 129.495 87.6365 130.008 87.8695C130.521 88.1026 129.064 87.6423 128.515 87.2869Z" fill="#895221"/>
<path opacity="0.3" d="M133.034 87.2114C133.034 87.2114 131.323 87.8057 131.329 87.93C131.335 88.0543 133.518 87.4056 133.034 87.2114Z" fill="#895221"/>
<path opacity="0.3" d="M130.132 88.4485C130.047 88.3339 129.039 88.7825 129.105 88.9321C129.171 89.0816 130.202 88.53 130.132 88.4485Z" fill="#895221"/>
<path d="M129.94 87.7919C129.431 87.5025 129.163 86.9043 129.12 86.3197C129.114 85.7318 129.234 85.1494 129.474 84.6125C129.48 84.9821 129.618 85.3375 129.862 85.6147C129.375 84.5542 129.891 83.4413 130.48 82.4314C130.245 83.4452 130.696 83.8104 130.954 84.4241L131.204 83.6472C131.234 84.024 131.474 84.3425 131.657 84.6708C131.839 84.999 131.937 85.5953 131.748 85.9235C131.882 85.8023 131.972 85.6395 132.003 85.4613C132.159 85.7718 132.224 86.1204 132.189 86.4664C132.155 86.8124 132.023 87.1415 131.808 87.4151C131.584 87.6782 131.278 87.8584 130.939 87.9267C130.601 87.9951 130.249 87.9476 129.94 87.7919Z" fill="#ED1C26"/>
<path d="M132.055 85.0186C132.077 84.8739 132.069 84.7264 132.032 84.5849C131.995 84.4434 131.929 84.3108 131.84 84.1951C132.322 84.4262 132.339 85.1215 132.055 85.0186Z" fill="#EE3026"/>
<path d="M129.188 84.6456C129.269 84.5949 129.327 84.5153 129.35 84.4231C129.374 84.331 129.361 84.2333 129.315 84.1503C129.23 83.983 129.198 83.7943 129.221 83.6084C129.221 83.6084 128.979 83.9231 129.091 84.2047C129.157 84.3424 129.19 84.4932 129.188 84.6456Z" fill="#EE3026"/>
<path d="M130.989 83.4881C131.043 83.454 131.081 83.4009 131.096 83.3395C131.112 83.2782 131.103 83.2132 131.073 83.1579C131.017 83.0477 130.996 82.923 131.013 82.8005C130.97 82.8545 130.939 82.9174 130.924 82.9847C130.909 83.052 130.909 83.1218 130.925 83.189C130.969 83.2825 130.991 83.3848 130.989 83.4881Z" fill="#EE3026"/>
<path d="M129 86.5527C128.909 86.4282 128.853 86.2822 128.837 86.1291C128.821 85.9761 128.845 85.8215 128.907 85.6807C128.551 86.1876 128.786 86.5197 129 86.5527Z" fill="#EE3026"/>
<path d="M132.296 87.052C132.402 86.9556 132.481 86.8335 132.526 86.6973C132.571 86.5612 132.58 86.4158 132.552 86.2751C132.727 86.6209 132.783 87.0559 132.296 87.052Z" fill="#EE3026"/>
<path d="M131.818 87.4192C131.975 87.2213 132.089 86.9921 132.151 86.747C132.213 86.5019 132.222 86.2464 132.177 85.9975C132.177 86.4287 131.954 86.6559 131.637 86.6676C131.282 86.6812 131.202 85.9975 131.406 85.308C131.473 85.1263 131.489 84.9298 131.452 84.7399C131.415 84.5499 131.326 84.3736 131.197 84.2301C131.197 84.2301 131.144 84.7623 130.88 84.9409C130.87 84.6994 130.807 84.463 130.694 84.2491C130.582 84.0351 130.423 83.8488 130.229 83.7038C130.319 84.0556 130.353 84.4194 130.328 84.7817C129.775 84.2631 130.031 83.5115 130.031 83.5115C130.031 83.5115 129.643 84.2689 129.874 84.9468C130.105 85.6246 130.091 85.644 130.045 86.2364C129.946 85.8946 129.585 86.0927 129.419 85.5722C129.206 85.9569 129.133 86.4037 129.212 86.8366C129.323 87.2407 129.583 87.5878 129.94 87.8077C130.251 87.9645 130.606 88.0115 130.947 87.9409C131.288 87.8704 131.595 87.6865 131.818 87.4192Z" fill="#F26424"/>
<path d="M131.897 87.3065C131.95 87.2482 131.984 87.176 131.997 87.0987C132.024 86.8909 131.963 87.0734 131.897 87.3065Z" fill="#F38B20"/>
<path d="M131.368 87.3006C131.562 86.9296 131.461 86.7024 131.106 86.1916C131.3 86.516 131.42 87.052 131.09 87.0734C130.76 87.0947 130.702 86.8112 130.76 86.4189C130.774 86.1351 130.686 85.8555 130.513 85.6303C130.513 85.6303 130.785 86.3509 130.482 86.2479C130.179 86.145 130.41 85.5468 130.558 85.3564C129.95 85.9197 130.249 86.2479 130.311 86.7393C130.373 87.2307 129.74 87.1142 129.843 86.6461C129.88 86.5262 129.869 86.397 129.815 86.2843C129.76 86.1715 129.665 86.0837 129.548 86.0382C129.548 86.0382 129.822 86.213 129.591 87.12C129.557 87.238 129.551 87.3624 129.573 87.4832C129.679 87.6061 129.805 87.7105 129.946 87.792C130.255 87.9506 130.609 88 130.95 87.9323C131.291 87.8647 131.599 87.6838 131.824 87.4191C131.851 87.3861 131.875 87.353 131.9 87.32V87.3064C131.68 87.5531 131.208 87.5997 131.368 87.3006Z" fill="#F3A21E"/>
<path d="M129.48 86.8307C129.48 86.8307 129.218 86.6656 129.342 86.248C129.426 86.45 129.377 86.6617 129.48 86.8307Z" fill="#F3A21E"/>
<path d="M130.131 85.5119C130.192 85.4148 130.227 85.303 130.232 85.1881C130.236 85.0731 130.21 84.9591 130.156 84.8574C130.141 85.1352 130.249 85.3469 130.131 85.5119Z" fill="#F3A21E"/>
<path d="M131.615 86.5218C131.642 86.3466 131.605 86.1674 131.512 86.0168C131.558 86.0373 131.598 86.0686 131.63 86.1079C131.661 86.1472 131.683 86.1934 131.693 86.2428C131.703 86.2922 131.701 86.3433 131.688 86.3918C131.674 86.4404 131.649 86.4849 131.615 86.5218Z" fill="#F3A21E"/>
<path d="M130.659 86.6287C130.659 86.6287 130.624 87.3046 131.135 87.1356C130.832 87.2812 130.537 87.2696 130.659 86.6287Z" fill="#F3D80D"/>
<path d="M129.783 86.7043C129.783 86.7043 129.695 87.1161 130.051 87.1258C129.75 87.1743 129.707 86.9413 129.783 86.7043Z" fill="#F3D80D"/>
<path d="M130.257 86.3354C130.209 86.2107 130.195 86.0758 130.215 85.9438C130.234 85.8118 130.288 85.6871 130.37 85.5818C130.26 85.8169 130.221 86.0786 130.257 86.3354Z" fill="#F3D80D"/>
<path d="M130.355 87.889C130.827 87.9337 131.298 87.7999 131.676 87.5142C131.443 87.7181 131.173 88.0308 130.355 87.889Z" fill="#F3D80D"/>
<path d="M76.5854 58.1383C76.9625 58.0924 77.3418 58.0665 77.7216 58.0606L76.1543 56.7593L71.8076 53.5566L69.7585 51.1191L69.5391 51.3386L71.2599 53.8402L75.8629 57.4566L76.5854 58.1383Z" fill="#74501F"/>
<path d="M77.7219 58.0605C78.2224 58.0549 78.7229 58.0749 79.2213 58.1207L76.4303 55.959L73.4665 53.5487L70.188 50.9248L69.7627 51.119L71.8117 53.5565L76.1584 56.7592L77.7219 58.0605Z" fill="#987633"/>
<path d="M77.0479 56.6427L77.613 57.2933L78.0015 55.8134L77.5723 55.4482C77.3936 55.8211 77.2149 56.2154 77.0479 56.6427Z" fill="#74501F"/>
<path d="M81.5765 51.8864C81.3175 51.8139 81.0456 51.7537 80.7607 51.7058L82.1358 51.0454L85.8746 49.4742L87.8013 48.136L87.9217 48.303L86.2242 49.7189L82.2291 51.529L81.5765 51.8864Z" fill="#74501F"/>
<path d="M80.7614 51.7055C80.4079 51.6453 80.0369 51.6046 79.6562 51.5735L82.0763 50.4975L84.6652 49.2817L87.5261 47.9629L87.8019 48.1358L85.8752 49.4739L82.1365 51.0452L80.7614 51.7055Z" fill="#987633"/>
<path d="M78.1182 56.1241C78.2036 56.6679 78.2684 57.2344 78.3124 57.8235L79.3165 55.0112L81.7151 47.3511L83.6884 43.4356L83.4631 43.1753L81.3966 46.6169L78.6523 54.8053L78.1182 56.1241Z" fill="#74501F"/>
<path d="M78.3223 57.8235C78.3864 58.5596 78.4233 59.3287 78.4427 60.1192L80.078 55.1646L81.9173 49.8643L83.912 44.0182L83.6886 43.4355L81.7173 47.3549L79.3167 55.0112L78.3223 57.8235Z" fill="#987633"/>
<path d="M76.197 55.9474C76.5854 56.2252 76.9855 56.5301 77.3856 56.8719L76.2863 54.1179L73.0817 46.8928L71.9358 42.5034L71.627 42.5423L72.4252 46.7025L75.727 54.5898L76.197 55.9474Z" fill="#74501F"/>
<path d="M77.3854 56.8719C77.8846 57.2934 78.3876 57.7615 78.8906 58.2606L76.8746 53.5119L74.7751 48.3475L72.4328 42.6763L71.9355 42.5034L73.0912 46.887L76.2861 54.1179L77.3854 56.8719Z" fill="#987633"/>
<path d="M77.5801 55.4405L78.0093 55.8057L77.7044 55.1958C77.6617 55.2832 77.6209 55.3589 77.5801 55.4405Z" fill="#987633"/>
<path d="M72.9414 77.9566L75.4372 76.8359L75.9868 77.4108L75.0332 78.4344L72.9414 77.9566Z" fill="#936A32"/>
<path d="M75.9871 77.4109L76.999 75.8241L75.8221 75.7251L75.4375 76.836L75.9871 77.4109Z" fill="#543613"/>
<path d="M75.8223 75.725L76.3564 73.373L77.2925 71.5356L76.9992 75.8241L75.8223 75.725Z" fill="#5F3C15"/>
<path d="M76.3564 73.373L77.0615 61.8401L77.4285 68.8457L77.2926 71.5356L76.3564 73.373Z" fill="#5A3713"/>
<path d="M77.0615 61.8402L77.4286 68.8458L78.0579 63.0191L77.5141 58.4685L77.0615 61.8402Z" fill="#7F6226"/>
<path d="M76.7412 57.4896L77.0617 61.8421L77.5142 58.4685L77.6133 57.2857L77.0481 56.6428C76.9393 56.9089 76.8364 57.1925 76.7412 57.4896Z" fill="#594018"/>
<path d="M77.5137 58.4685L78.0575 63.0191L79.7006 63.3648L77.5137 58.4685Z" fill="#816427"/>
<path d="M78.5352 61.9624L80.4968 69.2729L79.9316 62.3703L78.5352 61.9624Z" fill="#9C6928"/>
<path d="M77.3857 60.4612L80.2894 76.1815L79.4348 61.341L77.3857 60.4612Z" fill="#865924"/>
<path d="M77.2923 71.5356L76.999 75.8241L78.0867 74.1324L77.2923 71.5356Z" fill="#926F2A"/>
<path d="M78.3452 75.1501L79.0988 68.6495L78.2675 59.5852L77.3818 67.9678L78.3102 75.5755" fill="#6B431A"/>
<path d="M79.3496 70.856L80.3751 73.175L80.478 78.4656L79.3496 70.856Z" fill="#895F25"/>
<path d="M80.375 73.1748L81.0625 75.0646L80.4799 78.4965L80.4779 78.4654L80.375 73.1748Z" fill="#7B5622"/>
<path d="M80.25 68.8611L81.8174 74.9422L81.0618 75.0645L80.3743 73.1748L80.25 68.8611Z" fill="#975630"/>
<path d="M75.3993 77.271L74.6768 79.0229L77.6095 78.6441L78.4835 77.1622L76.9958 76.3582L75.3993 77.271Z" fill="#975630"/>
<path d="M79.244 67.3171L80.454 78.4674L77.8223 78.211L79.244 67.3171Z" fill="#8E6828"/>
<path d="M79.149 57.3381L78.007 55.8057L77.6108 57.2856L77.5137 58.4684L79.7006 63.3648L79.149 57.3381Z" fill="#845F25"/>
<path d="M79.7884 59.9346L80.3264 63.4209L79.701 63.3646L79.1494 57.3379L79.7884 59.9346Z" fill="#A7782B"/>
<path d="M80.3266 63.4463L81.1229 71.4735L80.882 74.6568L80.3654 71.7745L79.7012 63.3647L80.3266 63.4463Z" fill="#B2802C"/>
<path d="M81.3965 75.2939L82.2569 75.3911L82.993 76.6516L82.218 78.0713L81.3965 75.2939Z" fill="#9B5F26"/>
<path d="M81.818 74.9421L81.0625 75.0587L81.4665 77.7331L82.6415 78.0691L81.818 74.9421Z" fill="#865924"/>
<path d="M82.1423 76.4417L88.6623 78.2829L80.6973 77.9877L82.1423 76.4417Z" fill="#975630"/>
<path d="M79.6348 65.3167L79.7299 70.9394L80.3573 73.9945L80.6486 70.3956L79.6348 65.3167Z" fill="#975630"/>
<path d="M78.0868 74.1323L75.9873 77.4108L77.6848 77.0321L78.0868 74.1323Z" fill="#956E2A"/>
<path d="M77.834 74.9036L77.4961 78.2131L78.6731 79.0852L79.8986 79.8873L78.7313 75.0337L77.834 74.9036Z" fill="#8E6828"/>
<path d="M80.9377 73.4644L80.4482 78.2189L83.1149 80.1436L81.8039 77.1682L80.9377 73.4644Z" fill="#975630"/>
<path d="M77.2982 66.9695L78.6752 77.0302L77.0088 72.0892L77.2982 66.9695Z" fill="#7E5A23"/>
<path d="M86.6602 37.947L91.8731 40.6117L102.297 40.2641L97.3171 37.5994L86.6602 37.947Z" fill="#EF6F31"/>
<path d="M86.6602 37.9468L85.6172 49.7613L88.513 50.8043L91.8731 40.6115L86.6602 37.9468Z" fill="#906851"/>
<path d="M88.5127 50.8043L97.3168 50.6878L102.297 40.2639L91.8727 40.6116L88.5127 50.8043Z" fill="#F6A478"/>
<path d="M64.0273 42.4818L70.5143 51.3558C70.5143 51.3558 74.6163 50.5362 74.2628 50.3711C73.9093 50.206 70.7999 41.4641 70.7999 41.4641L64.0273 42.4818Z" fill="#EF6F31"/>
<path d="M64.0273 42.482L71.0329 35.7017L77.1606 34.5305L70.7979 41.4642L64.0273 42.482Z" fill="#F6A478"/>
<path d="M74.2628 50.3712L79.1591 46.9122L77.1606 34.5305L70.7979 41.4642L74.2628 50.3712Z" fill="#BE7149"/>
<path d="M72.4175 46.9043L67.8223 52.6144L74.0063 55.3646L76.067 53.4748L72.4175 46.9043Z" fill="#EF6F31"/>
<path d="M74.0061 55.3647L68.3911 58.245L60.6514 54.2265L67.822 52.6145" fill="#BE7149"/>
<path d="M63.8852 48.2503L60.6514 54.2265L67.822 52.6144L72.4173 46.9043L63.8852 48.2503Z" fill="#F6A478"/>
<path d="M78.522 24.4485L73.9268 30.1605L80.1108 32.9088L82.1715 31.019L78.522 24.4485Z" fill="#F6A478"/>
<path d="M80.1106 32.9089L74.4956 35.7892L66.7559 31.7727L73.9265 30.1606" fill="#BE7149"/>
<path d="M69.9897 25.7944L66.7559 31.7726L73.9265 30.1605L78.5218 24.4485L69.9897 25.7944Z" fill="#EF6F31"/>
<path d="M79.5415 31.0385L76.1562 39.3765L87.2754 37.376L91.4027 27.2065L79.5415 31.0385Z" fill="#EE6F30"/>
<path d="M76.1562 39.3765L83.5658 45.3468L91.1424 42.1461L87.2754 37.376L76.1562 39.3765Z" fill="#B45427"/>
<path d="M91.4026 27.2065L91.6998 27.7504L95.0773 33.9111L91.1423 42.1461L87.2754 37.376" fill="#F5A982"/>
<path d="M264.959 77.1429C265.336 77.0961 265.716 77.0702 266.096 77.0653L264.528 75.764L260.182 72.5593L258.133 70.1218L257.913 70.3432L259.634 72.8429L264.237 76.4612L264.959 77.1429Z" fill="#74501F"/>
<path d="M266.096 77.0651C266.583 77.0651 267.084 77.0807 267.595 77.1234L264.798 74.9617L261.835 72.5534L258.552 69.9294L258.127 70.1237L260.176 72.5611L264.523 75.7658L266.096 77.0651Z" fill="#987633"/>
<path d="M265.422 75.6395L265.987 76.2902L266.376 74.8102L265.948 74.4451C265.77 74.8238 265.589 75.22 265.422 75.6395Z" fill="#74501F"/>
<path d="M269.951 70.8908C269.692 70.8196 269.42 70.7594 269.135 70.7102L270.51 70.0498L274.249 68.4785L276.175 67.1384L276.296 67.3055L274.598 68.7233L270.599 70.5315L269.951 70.8908Z" fill="#74501F"/>
<path d="M269.135 70.7104C268.782 70.6502 268.411 70.6075 268.03 70.5783L270.45 69.5023L273.039 68.2846L275.9 66.9658L276.176 67.1387L274.249 68.4788L270.51 70.0501L269.135 70.7104Z" fill="#987633"/>
<path d="M266.492 75.1289C266.578 75.6727 266.646 76.2379 266.686 76.8284L267.683 74.016L270.081 66.354L272.053 62.4346L271.827 62.1743L269.761 65.6179L267.019 73.8063L266.492 75.1289Z" fill="#74501F"/>
<path d="M266.695 76.8281C266.759 77.5642 266.796 78.3333 266.816 79.1238L268.451 74.1692L270.29 68.8689L272.285 63.015L272.062 62.4324L270.09 66.3537L267.692 74.0158L266.695 76.8281Z" fill="#987633"/>
<path d="M264.571 74.9521C264.959 75.2292 265.356 75.5367 265.76 75.8746L264.66 73.1167L261.456 65.8916L260.29 61.5081L259.983 61.545L260.78 65.7052L264.081 73.5925L264.571 74.9521Z" fill="#74501F"/>
<path d="M265.769 75.8707C266.268 76.2941 266.771 76.7603 267.276 77.2594L265.258 72.5107L263.159 67.3463L260.816 61.6751L260.31 61.5042L261.475 65.8877L264.68 73.1128L265.769 75.8707Z" fill="#987633"/>
<path d="M265.964 74.4452L266.391 74.8103L266.086 74.1985L265.964 74.4452Z" fill="#987633"/>
<path d="M261.315 96.9612L263.811 95.8406L264.361 96.4135L263.409 97.439L261.315 96.9612Z" fill="#936A32"/>
<path d="M264.361 96.4136L265.375 94.8268L264.196 94.7297L263.812 95.8407L264.361 96.4136Z" fill="#543613"/>
<path d="M264.196 94.7296L264.732 92.3776L265.667 90.5403L265.375 94.8268L264.196 94.7296Z" fill="#5F3C15"/>
<path d="M264.732 92.3776L265.436 80.8447L265.803 87.8484L265.667 90.5403L264.732 92.3776Z" fill="#5A3713"/>
<path d="M265.436 80.8446L265.803 87.8482L266.432 82.0216L265.888 77.4729L265.436 80.8446Z" fill="#7F6226"/>
<path d="M265.114 76.4923L265.437 80.8448L265.887 77.4731L265.986 76.2903L265.421 75.6396C265.312 75.9116 265.209 76.197 265.114 76.4923Z" fill="#594018"/>
<path d="M265.888 77.4729L266.432 82.0216L268.075 82.3692L265.888 77.4729Z" fill="#816427"/>
<path d="M266.909 80.967L268.871 88.2775L268.306 81.373L266.909 80.967Z" fill="#9C6928"/>
<path d="M265.762 79.4658L268.663 95.1842L267.809 80.3456L265.762 79.4658Z" fill="#865924"/>
<path d="M265.666 90.5403L265.375 94.8268L266.461 93.137L265.666 90.5403Z" fill="#926F2A"/>
<path d="M266.719 94.1528L267.473 87.6542L266.641 78.5879L265.756 86.9705L266.684 94.5782" fill="#6B431A"/>
<path d="M267.723 89.8606L268.748 92.1796L268.851 97.4702L267.723 89.8606Z" fill="#895F25"/>
<path d="M268.748 92.1794L269.436 94.0673L268.855 97.4992L268.851 97.47L268.748 92.1794Z" fill="#7B5622"/>
<path d="M268.624 87.864L270.191 93.9451L269.436 94.0675L268.748 92.1796L268.624 87.864Z" fill="#975630"/>
<path d="M263.772 96.2737L263.05 98.0275L265.983 97.6488L266.857 96.1669L265.369 95.3608L263.772 96.2737Z" fill="#975630"/>
<path d="M267.618 86.3218L268.828 97.4701L266.196 97.2157L267.618 86.3218Z" fill="#8E6828"/>
<path d="M267.523 76.3408L266.383 74.8103L265.985 76.2903L265.888 77.4731L268.075 82.3694L267.523 76.3408Z" fill="#845F25"/>
<path d="M268.162 78.9395L268.7 82.4238L268.075 82.3695L267.523 76.3408L268.162 78.9395Z" fill="#A7782B"/>
<path d="M268.7 82.451L269.496 90.4781L269.257 93.6614L268.738 90.7772L268.074 82.3694L268.7 82.451Z" fill="#B2802C"/>
<path d="M269.771 94.2964L270.631 94.3935L271.367 95.654L270.592 97.0757L269.771 94.2964Z" fill="#9B5F26"/>
<path d="M270.192 93.9451L269.437 94.0635L269.84 96.738L271.016 97.074L270.192 93.9451Z" fill="#865924"/>
<path d="M270.518 95.4463L277.036 97.2875L269.071 96.9904L270.518 95.4463Z" fill="#975630"/>
<path d="M268.011 84.3213L268.104 89.944L268.731 92.9972L269.023 89.3982L268.011 84.3213Z" fill="#975630"/>
<path d="M266.461 93.1372L264.361 96.4137L266.059 96.0369L266.461 93.1372Z" fill="#956E2A"/>
<path d="M266.208 93.9082L265.87 97.2177L267.047 98.0879L268.273 98.8919L267.105 94.0383L266.208 93.9082Z" fill="#8E6828"/>
<path d="M269.312 92.467L268.822 97.2216L271.489 99.1463L270.18 96.1728L269.312 92.467Z" fill="#975630"/>
<path d="M265.672 85.9741L267.049 96.0329L265.383 91.0919L265.672 85.9741Z" fill="#7E5A23"/>
<path d="M255.079 51.9019L260.649 50.0996L267.773 42.4822L262.368 44.1214L255.079 51.9019Z" fill="#EF6F31"/>
<path d="M255.079 51.9017L262.698 60.9933L265.482 59.6823L260.649 50.0994L255.079 51.9017Z" fill="#906851"/>
<path d="M265.482 59.6825L271.625 53.3741L267.773 42.4822L260.649 50.0996L265.482 59.6825Z" fill="#F6A478"/>
<path d="M252.4 61.4867L258.887 70.3607C258.887 70.3607 262.991 69.5392 262.636 69.376C262.28 69.2129 259.165 60.469 259.165 60.469L252.4 61.4867Z" fill="#EF6F31"/>
<path d="M252.4 61.4846L259.406 54.7063L265.534 53.5332L259.171 60.4689L252.4 61.4846Z" fill="#F6A478"/>
<path d="M262.637 69.3759L267.533 65.9148L265.535 53.5332L259.172 60.4689L262.637 69.3759Z" fill="#BE7149"/>
<path d="M260.782 41.0662L257.1 45.642L262.054 47.8445L263.707 46.3315L260.782 41.0662Z" fill="#EF6F31"/>
<path d="M262.053 47.8446L257.555 50.1539L251.352 46.9337L257.099 45.6421" fill="#BE7149"/>
<path d="M253.942 42.1441L251.352 46.9336L257.099 45.642L260.781 41.0662L253.942 42.1441Z" fill="#F6A478"/>
<path d="M262.419 37.5159L260.415 40.0077L263.113 41.208L264.012 40.3826L262.419 37.5159Z" fill="#F6A478"/>
<path d="M263.112 41.2079L260.663 42.4645L257.285 40.7107L260.414 40.0076" fill="#BE7149"/>
<path d="M258.695 38.1044L257.285 40.7108L260.414 40.0077L262.418 37.5159L258.695 38.1044Z" fill="#EF6F31"/>
<path d="M277.904 64.4736L275.899 66.9655L278.597 68.1658L279.496 67.3403L277.904 64.4736Z" fill="#F6A478"/>
<path d="M278.598 68.1661L276.149 69.4227L272.771 67.6708L275.9 66.9658" fill="#BE7149"/>
<path d="M274.182 65.0621L272.771 67.6705L275.9 66.9655L277.905 64.4736L274.182 65.0621Z" fill="#EF6F31"/>
<path d="M275.954 45.5664L272.856 46.3608L274.296 48.9381L275.511 48.8157L275.954 45.5664Z" fill="#F6A478"/>
<path d="M274.296 48.9381L271.583 48.4759L269.93 45.0479L272.857 46.3608" fill="#BE7149"/>
<path d="M272.622 43.8047L269.93 45.0477L272.857 46.3606L275.954 45.5663L272.622 43.8047Z" fill="#EF6F31"/>
<path d="M253.124 57.208L251.119 59.6999L253.817 60.9002L254.716 60.0747L253.124 57.208Z" fill="#F6A478"/>
<path d="M253.817 60.9L251.368 62.1566L247.99 60.4028L251.119 59.6997" fill="#BE7149"/>
<path d="M249.4 57.7946L247.99 60.403L251.119 59.6999L253.124 57.208L249.4 57.7946Z" fill="#EF6F31"/>
<path d="M267.916 50.0432L264.53 58.3811L275.649 56.3806L279.777 46.2112L267.916 50.0432Z" fill="#EE6F30"/>
<path d="M264.53 58.3811L271.94 64.3515L279.518 61.1488L275.649 56.3806L264.53 58.3811Z" fill="#B45427"/>
<path d="M279.777 46.2112L280.076 46.7531L283.451 52.9157L279.518 61.1488L275.649 56.3806" fill="#F5A982"/>
<path d="M20.9988 72.2969C20.7571 72.2671 20.514 72.2502 20.2705 72.2464L21.2766 71.4113L24.0675 69.3545L25.3824 67.7891L25.5242 67.9308L24.4191 69.5371L21.463 71.8677L20.9988 72.2969Z" fill="#74501F"/>
<path d="M20.2729 72.2464C19.9487 72.2429 19.6246 72.2559 19.3018 72.2853L21.0925 70.8966L22.9978 69.3428L25.1051 67.657L25.377 67.7813L24.0621 69.3467L21.277 71.4035L20.2729 72.2464Z" fill="#987633"/>
<path d="M20.7016 71.3319L20.3404 71.7494L20.0859 70.7997L20.3598 70.5647C20.4802 70.8094 20.5948 71.0619 20.7016 71.3319Z" fill="#74501F"/>
<path d="M17.7945 68.2824C17.9669 68.2343 18.142 68.196 18.3189 68.1678L17.4352 67.7425L15.0287 66.7423L13.7916 65.8838L13.7139 65.9906L14.8054 66.9015L17.373 68.0668L17.7945 68.2824Z" fill="#74501F"/>
<path d="M18.3193 68.1679C18.5466 68.1291 18.7835 68.1019 19.0282 68.0825L17.4745 67.391L15.8119 66.6141L13.9746 65.7673L13.7979 65.8781L15.0292 66.7423L17.4298 67.7523L18.3193 68.1679Z" fill="#987633"/>
<path d="M20.016 71.0035C19.9617 71.3531 19.9176 71.717 19.884 72.0951L19.245 70.2888L17.7048 65.3692L16.4385 62.8443L16.5841 62.6772L17.9107 64.8875L19.6723 70.1451L20.016 71.0035Z" fill="#74501F"/>
<path d="M19.8841 72.0951C19.8434 72.567 19.8201 73.0662 19.8065 73.5692L18.7577 70.3879L17.5768 66.9851L16.2949 63.225L16.4387 62.854L17.705 65.3789L19.2452 70.2985L19.8841 72.0951Z" fill="#987633"/>
<path d="M21.2438 70.891C20.9913 71.0697 20.7368 71.2658 20.4805 71.4834L21.1855 69.7121L23.2442 65.0721L23.9862 62.2578L24.1804 62.2831L23.6676 64.9536L21.5448 70.0189L21.2438 70.891Z" fill="#74501F"/>
<path d="M20.4867 71.4834C20.1663 71.7553 19.8439 72.0544 19.5156 72.3748L20.8111 69.3256L22.159 66.0102L23.6623 62.3685L23.9886 62.2578L23.2466 65.0721L21.1879 69.7121L20.4867 71.4834Z" fill="#987633"/>
<path d="M20.3598 70.5646L20.0859 70.7996L20.2802 70.4111L20.3598 70.5646Z" fill="#987633"/>
<path d="M23.3396 85.0223L21.7373 84.3018L21.3838 84.6708L21.9956 85.3292L23.3396 85.0223Z" fill="#936A32"/>
<path d="M21.384 84.6709L20.7334 83.6532L21.4889 83.5891L21.7375 84.3019L21.384 84.6709Z" fill="#543613"/>
<path d="M21.4888 83.5891L21.1451 82.08L20.5449 80.8992L20.7333 83.6532L21.4888 83.5891Z" fill="#5F3C15"/>
<path d="M21.1446 82.08L20.692 74.6743L20.457 79.1705L20.5444 80.8991L21.1446 82.08Z" fill="#5A3713"/>
<path d="M20.6927 74.6744L20.4577 79.1706L20.0537 75.4299L20.4033 72.5088L20.6927 74.6744Z" fill="#7F6226"/>
<path d="M20.9002 71.8795L20.6943 74.6743L20.403 72.5088L20.3408 71.7494L20.7021 71.3318C20.772 71.5092 20.838 71.6917 20.9002 71.8795Z" fill="#594018"/>
<path d="M20.4032 72.5088L20.0536 75.4299L18.999 75.6532L20.4032 72.5088Z" fill="#816427"/>
<path d="M19.7468 74.752L18.4863 79.4463L18.8515 75.0142L19.7468 74.752Z" fill="#9C6928"/>
<path d="M20.4846 73.7886L18.6201 83.8823L19.1698 74.3538L20.4846 73.7886Z" fill="#865924"/>
<path d="M20.545 80.8992L20.7334 83.6532L20.0342 82.5675L20.545 80.8992Z" fill="#926F2A"/>
<path d="M19.8694 83.22L19.3857 79.0462L19.9199 73.2253L20.487 78.6072L19.8927 83.4919" fill="#6B431A"/>
<path d="M19.2244 80.4622L18.566 81.9518L18.5 85.3488L19.2244 80.4622Z" fill="#895F25"/>
<path d="M18.5659 81.9517L18.125 83.1636L18.4979 85.368L18.4998 85.3486L18.5659 81.9517Z" fill="#7B5622"/>
<path d="M18.6457 79.1821L17.6396 83.086L18.1252 83.1637L18.5661 81.9517L18.6457 79.1821Z" fill="#975630"/>
<path d="M21.7604 84.5814L22.2246 85.7079L20.3406 85.4632L19.7793 84.5115L20.7368 83.9949L21.7604 84.5814Z" fill="#975630"/>
<path d="M19.2925 78.1897L18.5156 85.3487L20.2054 85.1856L19.2925 78.1897Z" fill="#8E6828"/>
<path d="M19.3525 71.7823L20.0847 70.7996L20.3392 71.7493L20.4032 72.5087L18.999 75.6532L19.3525 71.7823Z" fill="#845F25"/>
<path d="M18.9424 73.4506L18.5967 75.688L18.9987 75.6531L19.3522 71.7822L18.9424 73.4506Z" fill="#A7782B"/>
<path d="M18.5967 75.7055L18.0859 80.8602L18.2394 82.9034L18.5715 81.0524L18.9988 75.6531L18.5967 75.7055Z" fill="#B2802C"/>
<path d="M17.9112 83.3113L17.3577 83.3734L16.8857 84.1833L17.3829 85.0962L17.9112 83.3113Z" fill="#9B5F26"/>
<path d="M17.6396 83.0862L18.1252 83.1619L17.8649 84.8788L17.1113 85.0944L17.6396 83.0862Z" fill="#865924"/>
<path d="M17.4296 84.0493L13.2441 85.2321L18.3599 85.0418L17.4296 84.0493Z" fill="#975630"/>
<path d="M19.0393 76.906L18.9791 80.5166L18.5751 82.4782L18.3906 80.167L19.0393 76.906Z" fill="#975630"/>
<path d="M20.0342 82.5674L21.384 84.6708L20.2925 84.428L20.0342 82.5674Z" fill="#956E2A"/>
<path d="M20.1967 83.0627L20.4122 85.1856L19.6587 85.7469L18.8701 86.2616L19.6198 83.1463L20.1967 83.0627Z" fill="#8E6828"/>
<path d="M18.2041 82.1362L18.5168 85.1894L16.8057 86.4266L17.6466 84.5154L18.2041 82.1362Z" fill="#975630"/>
<path d="M20.5409 77.9663L19.6572 84.4261L20.7274 81.2545L20.5409 77.9663Z" fill="#7E5A23"/>
<path d="M14.5296 59.3327L11.1831 61.0438L4.49023 60.8205L7.68712 59.1094L14.5296 59.3327Z" fill="#EF6F31"/>
<path d="M14.53 59.3328L15.2001 66.9191L13.3414 67.5872L11.1836 61.0439L14.53 59.3328Z" fill="#906851"/>
<path d="M13.3409 67.587L7.68713 67.5132L4.49023 60.8203L11.1831 61.0437L13.3409 67.587Z" fill="#F6A478"/>
<path d="M29.0629 62.2441L24.8988 67.9426C24.8988 67.9426 22.2632 67.4163 22.4905 67.3095C22.7177 67.2026 24.7143 61.5916 24.7143 61.5916L29.0629 62.2441Z" fill="#EF6F31"/>
<path d="M29.063 62.244L24.5629 57.8915L20.6299 57.1379L24.7144 61.5914L29.063 62.244Z" fill="#F6A478"/>
<path d="M22.4911 67.3093L19.3467 65.0874L20.6305 57.1379L24.715 61.5914L22.4911 67.3093Z" fill="#BE7149"/>
<path d="M23.6753 65.0835L26.6255 68.7504L22.6556 70.5159L21.3311 69.302L23.6753 65.0835Z" fill="#EF6F31"/>
<path d="M22.6562 70.516L26.261 72.365L31.2311 69.7857L26.6261 68.7505" fill="#BE7149"/>
<path d="M29.1548 65.9478L31.231 69.7856L26.626 68.7504L23.6758 65.0835L29.1548 65.9478Z" fill="#F6A478"/>
<path d="M19.7564 50.6646L22.7066 54.3315L18.7348 56.0969L17.4121 54.883L19.7564 50.6646Z" fill="#F6A478"/>
<path d="M18.7344 56.097L22.3391 57.946L27.3093 55.3667L22.7062 54.3315" fill="#BE7149"/>
<path d="M25.2329 51.5288L27.3091 55.3667L22.7061 54.3315L19.7559 50.6646L25.2329 51.5288Z" fill="#EF6F31"/>
<path d="M19.0998 54.8968L21.2751 60.2515L14.1355 58.9658L11.4844 52.436L19.0998 54.8968Z" fill="#EE6F30"/>
<path d="M21.2751 60.2513L16.5166 64.0833L11.6514 62.0285L14.1355 58.9656L21.2751 60.2513Z" fill="#B45427"/>
<path d="M11.4838 52.436L11.2935 52.7856L9.12402 56.74L11.6508 62.0286L14.1349 58.9658" fill="#F5A982"/>
<path d="M107.191 73.0117C107.009 72.9904 106.822 72.9768 106.628 72.9729L107.405 72.33L109.555 70.7452L110.567 69.5391L110.676 69.6478L109.825 70.885L107.549 72.6757L107.191 73.0117Z" fill="#74501F"/>
<path d="M106.628 72.9728C106.389 72.9728 106.14 72.9728 105.888 73.0039L107.267 71.9338L108.733 70.7412L110.357 69.4438L110.567 69.539L109.555 70.7451L107.405 72.33L106.628 72.9728Z" fill="#987633"/>
<path d="M106.962 72.2679L106.683 72.5903L106.488 71.8581L106.7 71.6775C106.791 71.8659 106.881 72.062 106.962 72.2679Z" fill="#74501F"/>
<path d="M104.723 69.9197C104.856 69.883 104.99 69.8532 105.127 69.8304L104.445 69.5041L102.596 68.7272L101.644 68.0649L101.584 68.1465L102.423 68.8476L104.402 69.743L104.723 69.9197Z" fill="#74501F"/>
<path d="M105.126 69.8304C105.301 69.8013 105.483 69.7799 105.672 69.7644L104.475 69.2322L103.193 68.6321L101.78 67.9795L101.644 68.065L102.595 68.7272L104.444 69.5041L105.126 69.8304Z" fill="#987633"/>
<path d="M106.432 72.0153C106.391 72.2852 106.358 72.5649 106.333 72.8562L105.839 71.4656L104.653 67.6764L103.682 65.7341L103.792 65.604L104.816 67.3073L106.175 71.3569L106.432 72.0153Z" fill="#74501F"/>
<path d="M106.332 72.8563C106.301 73.2195 106.282 73.6001 106.272 73.9925L105.464 71.5414L104.553 68.9194L103.566 66.0236L103.677 65.738L104.648 67.6803L105.835 71.4695L106.332 72.8563Z" fill="#987633"/>
<path d="M107.383 71.928C107.189 72.0659 106.995 72.2174 106.801 72.3845L107.345 71.0249L108.929 67.4512L109.5 65.2837L109.654 65.3012L109.265 67.3599L107.63 71.2599L107.383 71.928Z" fill="#74501F"/>
<path d="M106.795 72.3844C106.548 72.5942 106.299 72.8253 106.051 73.072L107.047 70.7238L108.086 68.1698L109.252 65.3633L109.5 65.2798L108.929 67.4473L107.344 71.021L106.795 72.3844Z" fill="#987633"/>
<path d="M106.702 71.6775L106.49 71.8582L106.642 71.5571C106.659 71.5979 106.679 71.6368 106.702 71.6775Z" fill="#987633"/>
<path d="M108.992 82.814L107.758 82.2605L107.486 82.5441L107.956 83.051L108.992 82.814Z" fill="#936A32"/>
<path d="M107.486 82.5442L106.985 81.7595L107.568 81.7109L107.758 82.2606L107.486 82.5442Z" fill="#543613"/>
<path d="M107.568 81.711L107.302 80.5476L106.84 79.6387L106.986 81.7596L107.568 81.711Z" fill="#5F3C15"/>
<path d="M107.302 80.5476L106.954 74.8433L106.773 78.3082L106.839 79.6386L107.302 80.5476Z" fill="#5A3713"/>
<path d="M106.954 74.8432L106.774 78.3081L106.461 75.4258L106.731 73.1748L106.954 74.8432Z" fill="#7F6226"/>
<path d="M107.113 72.6912L106.955 74.8432L106.73 73.1749L106.682 72.5922L106.961 72.2698C107.016 72.4038 107.066 72.5436 107.113 72.6912Z" fill="#594018"/>
<path d="M106.73 73.1748L106.46 75.4258L105.648 75.5968L106.73 73.1748Z" fill="#816427"/>
<path d="M106.226 74.9036L105.255 78.52L105.535 75.1056L106.226 74.9036Z" fill="#9C6928"/>
<path d="M106.793 74.1616L105.357 81.9363L105.781 74.5967L106.793 74.1616Z" fill="#865924"/>
<path d="M106.84 79.6387L106.985 81.7596L106.447 80.9225L106.84 79.6387Z" fill="#926F2A"/>
<path d="M106.319 81.4255L105.946 78.2112L106.358 73.7285L106.797 77.8732L106.337 81.6372" fill="#6B431A"/>
<path d="M105.824 79.3025L105.315 80.4503L105.265 83.0665L105.824 79.3025Z" fill="#895F25"/>
<path d="M105.314 80.4504L104.975 81.3846L105.262 83.0821L105.264 83.0666L105.314 80.4504Z" fill="#7B5622"/>
<path d="M105.377 78.3159L104.602 81.3225L104.974 81.3846L105.314 80.4504L105.377 78.3159Z" fill="#975630"/>
<path d="M107.776 82.4743L108.133 83.3424L106.682 83.156L106.251 82.4218L106.987 82.0237L107.776 82.4743Z" fill="#975630"/>
<path d="M105.875 77.5527L105.276 83.0667L106.578 82.9405L105.875 77.5527Z" fill="#8E6828"/>
<path d="M105.92 72.6156L106.486 71.8582L106.682 72.5904L106.73 73.175L105.648 75.5969L105.92 72.6156Z" fill="#845F25"/>
<path d="M105.606 73.9012L105.34 75.6259L105.649 75.5968L105.921 72.6155L105.606 73.9012Z" fill="#A7782B"/>
<path d="M105.34 75.6375L104.945 79.6074L105.064 81.1825L105.32 79.7569L105.648 75.5967L105.34 75.6375Z" fill="#B2802C"/>
<path d="M104.81 81.4973L104.385 81.5459L104.021 82.1693L104.404 82.8724L104.81 81.4973Z" fill="#9B5F26"/>
<path d="M104.602 81.3225L104.975 81.3808L104.775 82.7034L104.194 82.8705L104.602 81.3225Z" fill="#865924"/>
<path d="M104.441 82.0664L101.217 82.9754L105.156 82.8297L104.441 82.0664Z" fill="#975630"/>
<path d="M105.682 76.562L105.633 79.3433L105.324 80.8543L105.181 79.0752L105.682 76.562Z" fill="#975630"/>
<path d="M106.447 80.9224L107.486 82.5441L106.645 82.3577L106.447 80.9224Z" fill="#956E2A"/>
<path d="M106.573 81.3052L106.738 82.9425L106.158 83.3717L105.55 83.7699L106.129 81.3693L106.573 81.3052Z" fill="#8E6828"/>
<path d="M105.037 80.5923L105.278 82.9443L103.959 83.896L104.608 82.4238L105.037 80.5923Z" fill="#975630"/>
<path d="M106.838 77.3796L106.156 82.3556L106.982 79.9123L106.838 77.3796Z" fill="#7E5A23"/>
<path d="M102.208 63.0249L99.6283 64.3437L94.4736 64.1708L96.9364 62.854L102.208 63.0249Z" fill="#EF6F31"/>
<path d="M102.207 63.0249L102.722 68.869L101.29 69.3857L99.6279 64.3437L102.207 63.0249Z" fill="#906851"/>
<path d="M101.291 69.3855L96.9364 69.3272L94.4736 64.1707L99.6283 64.3435L101.291 69.3855Z" fill="#F6A478"/>
<path d="M113.402 65.2682L110.198 69.6556C110.198 69.6556 108.168 69.2497 108.343 69.1681C108.518 69.0865 110.058 64.7632 110.058 64.7632L113.402 65.2682Z" fill="#EF6F31"/>
<path d="M113.402 65.2682L109.935 61.914L106.905 61.3352L110.052 64.7652L113.402 65.2682Z" fill="#F6A478"/>
<path d="M108.339 69.1701L105.917 67.459L106.906 61.3352L110.052 64.7652L108.339 69.1701Z" fill="#BE7149"/>
<path d="M109.252 67.4551L111.524 70.281L108.465 71.6406L107.445 70.7044L109.252 67.4551Z" fill="#EF6F31"/>
<path d="M108.465 71.6406L111.242 73.0642L115.07 71.0773L111.524 70.281" fill="#BE7149"/>
<path d="M113.472 68.1213L115.071 71.0773L111.524 70.281L109.252 67.4551L113.472 68.1213Z" fill="#F6A478"/>
<path d="M106.231 56.3474L108.503 59.1733L105.446 60.5329L104.427 59.5987L106.231 56.3474Z" fill="#F6A478"/>
<path d="M105.447 60.5331L108.223 61.9568L112.053 59.9699L108.504 59.1736" fill="#BE7149"/>
<path d="M110.452 57.0136L112.052 59.9696L108.504 59.1733L106.231 56.3474L110.452 57.0136Z" fill="#EF6F31"/>
<path d="M105.729 59.6085L107.403 63.7318L101.903 62.7432L99.8613 57.7129L105.729 59.6085Z" fill="#EE6F30"/>
<path d="M107.403 63.7318L103.738 66.6859L99.9893 65.101L101.902 62.7432L107.403 63.7318Z" fill="#B45427"/>
<path d="M99.8609 57.7129L99.7133 57.9809L98.043 61.0283L99.9891 65.1011L101.902 62.7432" fill="#F5A982"/>
<defs>
<linearGradient id="paint0_linear_108_54294" x1="148.082" y1="119.117" x2="149.905" y2="94.1996" gradientUnits="userSpaceOnUse">
<stop stop-color="#C5B24C"/>
<stop offset="0.66" stop-color="#01384C"/>
<stop offset="0.97" stop-color="#0C141C"/>
</linearGradient>
<linearGradient id="paint1_linear_108_54294" x1="152.9" y1="76.3" x2="168.522" y2="96.6863" gradientUnits="userSpaceOnUse">
<stop stop-color="#D8C6A6"/>
<stop offset="1" stop-color="#1D5E67"/>
</linearGradient>
</defs>
</svg>
