<svg width="209" height="124" viewBox="0 0 209 124" fill="none" xmlns="http://www.w3.org/2000/svg">
<path d="M120.129 70.1739C120.414 70.87 120.423 71.6486 120.154 72.3512C119.847 73.1423 119.405 73.8743 118.849 74.5149C118.384 75.0786 117.717 75.5842 117.675 76.3706C117.671 76.4226 117.652 76.4723 117.621 76.514C117.589 77.0136 117.524 77.5106 117.427 78.0017C117.28 78.7335 117.056 79.4478 116.759 80.1325C116.612 80.4732 116.446 80.8056 116.263 81.1282C116.232 81.1843 116.197 81.2483 116.16 81.3219C116.206 81.3767 116.237 81.4433 116.248 81.5144C116.258 81.5854 116.249 81.6581 116.221 81.7242C116.193 81.7903 116.147 81.8473 116.088 81.8888C116.03 81.9303 115.96 81.9547 115.889 81.9592C113.94 82.1128 111.988 82.2233 110.033 82.2904L109.481 82.4357C109.463 82.395 109.448 82.3543 109.432 82.3117H109.188L108.722 82.3233C105.257 82.4112 101.793 82.3647 98.329 82.1839C96.8026 82.1025 95.2781 81.9953 93.7555 81.8623C93.5924 82.0928 93.4789 82.3547 93.4223 82.6313C93.3726 82.9341 93.3499 83.2408 93.3545 83.5476C93.341 84.305 93.3545 85.0643 93.3894 85.8217C93.4243 86.5791 93.4843 87.3714 93.5637 88.1462C93.6044 88.5337 93.649 88.9211 93.7013 89.2949C93.76 89.6045 93.7859 89.9194 93.7788 90.2344L93.341 90.2131C93.2449 89.9165 93.18 89.6108 93.1473 89.3008C93.0891 88.9017 93.0349 88.5007 92.9884 88.0978C92.8916 87.2823 92.8296 86.4629 92.7947 85.6396C92.7598 84.8164 92.7424 84.0357 92.7753 83.2357C92.7773 82.8044 92.8554 82.3769 93.0059 81.9727C92.9634 81.9854 92.9186 81.9882 92.875 81.9808C92.8313 81.9734 92.7899 81.9561 92.754 81.9301L92.2523 81.7674C92.2515 81.7571 92.2515 81.7467 92.2523 81.7364C91.4659 81.6589 90.6794 81.5756 89.8949 81.4788C89.4358 81.4226 88.9786 81.3645 88.5195 81.3025C88.0588 81.2701 87.607 81.1601 87.1829 80.9771L87.1694 80.9654L87.181 80.611C87.1978 80.6024 87.2153 80.5952 87.2333 80.5896C87.7563 80.487 88.2793 80.578 88.8043 80.64C89.3292 80.702 89.8484 80.7562 90.3695 80.8105C90.9835 80.8744 91.5956 80.9364 92.2097 81.0042C92.1632 80.8996 92.1167 80.7969 92.0741 80.6904C91.9125 80.2948 91.7728 79.8906 91.6557 79.4797C91.2224 77.9706 91.0682 76.3951 91.2005 74.8307C91.2673 74.041 91.4087 73.2595 91.6228 72.4965C91.7315 72.1228 91.8608 71.7555 92.0102 71.3962C92.0863 71.1882 92.1736 70.9845 92.2717 70.786H91.9831C91.0591 70.8151 90.1312 70.8228 89.2091 70.8964C88.3786 70.9657 87.5593 71.1335 86.7684 71.3962C86.7492 71.4598 86.7226 71.5209 86.689 71.5783L86.1795 71.4892C86.2378 71.3866 86.3109 71.2933 86.3965 71.2122C86.3974 71.1779 86.4063 71.1443 86.4224 71.114C86.4385 71.0838 86.4615 71.0577 86.4895 71.0378C86.6465 70.9286 86.8131 70.8339 86.9873 70.755C86.869 70.5233 86.7649 70.2846 86.6754 70.0402C86.5118 69.6498 86.3695 69.2509 86.2493 68.845C86.2493 68.8276 86.2396 68.8082 86.2338 68.7908C86.1493 69.3125 86.009 69.8236 85.8154 70.3153C85.517 71.1173 85.1374 71.8901 84.8604 72.7018C84.5761 73.5931 84.4772 74.5331 84.5698 75.4641C84.6434 76.4791 84.7848 77.4806 84.7635 78.5015C84.7635 78.5479 84.7635 78.5983 84.7635 78.6467C84.8484 79.1153 84.8627 79.5938 84.8061 80.0666C84.7441 80.5606 84.6473 81.1727 84.3064 81.5524C84.2677 81.5892 84.2192 81.6141 84.1667 81.6238C84.1142 81.6336 84.06 81.6278 84.0107 81.6073C83.9614 81.5867 83.9191 81.5523 83.8891 81.5081C83.859 81.464 83.8425 81.4121 83.8415 81.3587C83.8637 81.1608 83.9072 80.966 83.9712 80.7775C84.0003 80.4017 84.0526 80.0259 84.0797 79.6501C84.0952 79.4254 84.1068 79.2007 84.1165 78.9741C84.0762 78.627 83.9935 78.2861 83.8705 77.9591C83.6865 77.469 83.4211 77.0157 83.2274 76.5295C83.0391 76.0533 82.9355 75.5479 82.9213 75.036C82.8865 73.9803 83.2022 72.9381 83.5974 71.9696C83.9925 71.001 84.5252 70.0189 84.9049 69.0078C85.0953 68.5008 85.2392 67.9775 85.3349 67.4445C85.3901 67.1174 85.4192 66.7864 85.4221 66.4547C85.3993 66.42 85.3816 66.3821 85.3698 66.3423C85.3659 66.3043 85.3659 66.266 85.3698 66.228C85.3698 66.1777 85.3698 66.1254 85.3698 66.075C85.3698 65.9665 85.3698 65.8561 85.3698 65.7457C85.3698 65.5268 85.3601 65.306 85.3466 65.0871C85.3472 65.0585 85.3531 65.0302 85.364 65.0038C85.364 64.8624 85.364 64.719 85.364 64.5757C85.3625 64.4222 85.3768 64.2691 85.4066 64.1185C85.4066 64.0701 85.3969 64.0217 85.3911 63.9713C85.3524 63.5432 85.3233 63.1132 85.2962 62.6831C85.2827 62.4894 85.273 62.2841 85.2672 62.0826C85.244 61.936 85.256 61.786 85.302 61.6449C85.2201 60.9694 85.1806 60.2894 85.1839 59.609C85.1901 58.6094 85.2899 57.6126 85.4822 56.6317C85.5674 56.1836 85.6774 55.7407 85.8115 55.3047L86.3248 55.4597C86.3248 55.4907 86.3093 55.5198 86.3016 55.5508C86.1795 56.0893 86.071 56.6297 85.9936 57.176C85.7284 59.0725 85.7985 61.0008 86.2008 62.873C86.4405 63.8711 86.7327 64.8559 87.0764 65.8232C87.1829 66.1447 87.2856 66.4663 87.3902 66.7917L87.3437 65.7205C87.3069 64.936 87.2682 64.1534 87.2372 63.3708C87.2101 62.7199 87.1442 62.0536 87.1771 61.4008C86.9157 60.556 86.7144 59.6938 86.5747 58.8206C86.4008 57.7205 86.316 56.6083 86.3209 55.4946H86.8885C86.8874 56.781 87.0087 58.0646 87.2507 59.3281C87.2643 59.3881 87.2798 59.4482 87.2914 59.5102C87.4076 59.2622 87.5413 59.0182 87.6556 58.7838C87.8667 58.346 88.0798 57.9082 88.289 57.4704C88.6939 56.62 89.0871 55.7619 89.4164 54.8786C89.7454 54.0092 89.9981 53.1128 90.1719 52.1996C90.2905 51.5324 90.3553 50.8568 90.3656 50.1792C90.2842 49.8305 90.1932 49.4838 90.0847 49.1409C89.6256 47.752 88.9496 46.4444 88.0818 45.2667C87.6943 47.6726 87.3282 50.0862 87.0609 52.5095C87.0202 52.8737 86.9873 53.2398 86.9602 53.604L86.3965 53.5672C86.4372 52.9628 86.4953 52.3584 86.567 51.7502C86.8536 49.2998 87.2275 46.861 87.6343 44.426L88.2038 44.519C88.8841 45.1853 89.4485 45.9604 89.8736 46.8125C90.6821 48.3922 91.1985 50.105 91.3981 51.8683C91.5143 52.8369 91.5628 53.8123 91.5433 54.7875C91.5433 55.2834 91.5259 55.7851 91.4717 56.2772C91.4292 56.7659 91.3284 57.2478 91.1714 57.7126C91.1211 57.854 90.8673 57.9063 90.8402 57.7126C90.7716 57.1756 90.754 56.6334 90.7879 56.0931C90.8131 55.5663 90.8305 55.0374 90.8305 54.5105C90.8305 53.8422 90.8053 53.1701 90.7414 52.5037C90.4937 53.7704 90.1038 55.005 89.5791 56.1842C89.2828 56.8815 88.9573 57.5673 88.6299 58.2511C88.4595 58.6075 88.2871 58.962 88.1186 59.3203C87.9782 59.6724 87.8071 60.0114 87.6072 60.3334C87.5806 60.3712 87.5462 60.4029 87.5064 60.4264C88.5389 64.3568 90.906 67.8881 94.4083 70.0364C97.6936 69.9782 100.979 70.0234 104.264 70.1719C105.427 70.2236 106.582 70.2882 107.732 70.3657C107.91 70.2765 108.086 70.1855 108.26 70.0906C110.16 69.0327 111.768 67.5198 112.939 65.6876C113.877 64.1949 114.583 62.5678 115.031 60.8623L115.585 61.025C115.623 61.0494 115.654 61.0833 115.674 61.1235C115.695 61.1636 115.705 61.2085 115.703 61.2536C115.68 62.0284 115.561 62.8032 115.496 63.5781C115.43 64.3529 115.368 65.0948 115.313 65.8542C115.276 66.3966 115.244 66.9402 115.219 67.4852L115.373 67.1423C115.61 66.6019 115.852 66.0634 116.082 65.521C116.843 63.7609 117.222 61.8595 117.194 59.9422C117.176 58.9811 117.068 58.0239 116.871 57.083C116.745 56.4825 116.58 55.8975 116.42 55.3086C116.42 55.3176 116.42 55.3267 116.42 55.3357L115.838 55.3125C115.868 54.5377 115.868 53.7628 115.838 52.988L116.42 52.9609C116.435 53.3231 116.445 53.6853 116.447 54.0495C116.477 54.0663 116.503 54.0911 116.52 54.1212C117.049 55.0781 117.351 56.2132 117.551 57.2825C117.726 58.2146 117.819 59.1603 117.828 60.1087C117.841 60.12 117.853 60.1338 117.861 60.1494C117.99 60.5615 118.071 60.9873 118.101 61.4182C118.157 61.8269 118.192 62.2434 118.207 62.656C118.262 64.134 118.056 65.6275 117.382 66.9583C117.022 67.6712 116.559 68.3143 116.181 69.0252C116.152 69.0775 116.125 69.1317 116.098 69.186C116.424 69.0601 116.765 68.9787 117.113 68.9438C117.547 68.8809 117.987 68.8809 118.421 68.9438C118.786 68.9882 119.134 69.1242 119.433 69.3393C119.732 69.5544 119.971 69.8415 120.129 70.1739V70.1739ZM119.709 71.5667C119.753 71.2371 119.718 70.9017 119.606 70.5884C119.048 69.0678 117.074 69.554 115.879 69.7535C115.867 69.7544 115.855 69.7544 115.842 69.7535C115.8 69.8639 115.761 69.9763 115.728 70.0925C115.651 70.4094 115.615 70.735 115.621 71.0611L116.057 71.1076C116.066 71.0909 116.078 71.0753 116.09 71.0611C116.369 70.7763 116.805 70.6059 117.167 70.4567C117.508 70.3049 117.879 70.2295 118.252 70.2359C118.603 70.2449 118.939 70.376 119.203 70.6066C119.467 70.8371 119.643 71.1527 119.699 71.4989C119.703 71.526 119.705 71.5453 119.709 71.5667V71.5667ZM119.095 71.9192C119.095 71.3381 118.756 70.8654 118.144 70.8577C117.85 70.8639 117.559 70.9155 117.282 71.0107C117.043 71.0863 116.815 71.2044 116.582 71.2955C116.797 71.6174 116.961 71.971 117.066 72.3434C117.33 73.1026 117.503 73.8898 117.584 74.6893L117.646 74.604C117.861 74.2883 118.074 73.9725 118.293 73.6607C118.651 73.1396 119.087 72.572 119.095 71.9192V71.9192ZM117.545 64.6241C117.658 63.8768 117.707 63.1211 117.69 62.3655C117.69 62.3151 117.69 62.2647 117.69 62.2163C117.646 62.5301 117.593 62.8459 117.526 63.1577C117.296 64.1488 116.97 65.1148 116.551 66.0421C116.34 66.5263 116.125 67.0106 115.912 67.4929C115.716 68.0032 115.481 68.4979 115.211 68.9729C115.197 68.9928 115.183 69.0116 115.166 69.0291C115.166 69.246 115.153 69.463 115.147 69.6799C115.257 69.3619 115.397 69.0551 115.565 68.7637C115.953 68.0702 116.474 67.4503 116.855 66.751C117.203 66.0829 117.436 65.3614 117.545 64.6164V64.6241ZM116.212 79.5765C116.935 77.6192 117.084 75.4962 116.64 73.4573C116.564 73.1072 116.469 72.7613 116.358 72.4209C116.297 72.2408 116.228 72.0664 116.164 71.8901C116.133 71.897 116.1 71.897 116.069 71.8901C114.367 71.6719 112.661 71.4847 110.951 71.3284C111.029 71.5744 111.085 71.8301 111.145 72.0684C111.241 72.4691 111.318 72.8745 111.373 73.2829C111.578 74.7394 111.564 76.2183 111.331 77.6704C111.13 79.0135 110.721 80.3172 110.12 81.5349C111.893 81.473 113.663 81.3761 115.43 81.2444L115.476 81.1572C115.569 80.9751 115.67 80.7969 115.763 80.6148C115.931 80.2772 116.082 79.9306 116.212 79.5765V79.5765ZM114.843 63.4715C114.854 63.3727 114.864 63.2778 114.874 63.1732C114.374 64.444 113.712 65.6451 112.906 66.7472C111.804 68.2377 110.413 69.4897 108.814 70.4276C110.713 70.5671 112.608 70.7369 114.5 70.9371L114.511 70.7434C114.511 70.7201 114.511 70.6988 114.511 70.6756C114.457 70.6152 114.43 70.5357 114.434 70.4548C114.461 68.9051 114.526 67.3522 114.628 65.7961C114.691 65.0199 114.763 64.2451 114.843 63.4715V63.4715ZM110.353 79.3383C110.76 77.9905 110.965 76.5894 110.961 75.1813C110.961 74.4624 110.903 73.7447 110.788 73.035C110.734 72.696 110.668 72.357 110.595 72.0219C110.538 71.7797 110.459 71.5376 110.401 71.2935C110.157 71.2722 109.913 71.249 109.669 71.2296C109.731 71.4233 109.756 71.6538 109.791 71.8107C109.886 72.2485 109.973 72.6882 110.037 73.1318C110.286 74.6654 110.297 76.2282 110.072 77.7654C109.935 78.5061 109.751 79.2373 109.52 79.9543C109.409 80.3281 109.299 80.7001 109.204 81.0778C109.165 81.2347 109.14 81.4032 109.109 81.5698L109.465 81.5582C109.814 80.8403 110.11 80.0984 110.353 79.3383V79.3383ZM109.51 76.4946C109.565 75.5283 109.532 74.5588 109.409 73.5987C109.351 73.1066 109.274 72.6166 109.188 72.1304C109.144 71.8863 109.093 71.6441 109.053 71.4001C109.041 71.3245 109.028 71.2509 109.022 71.1792C105.296 70.8925 101.563 70.7363 97.8234 70.7105C96.6185 70.7027 95.4143 70.7085 94.2107 70.7279C94.0674 71.5415 93.8717 72.3318 93.8059 73.1628C93.7077 74.6748 93.755 76.1927 93.9473 77.6956C94.0101 78.3753 94.1169 79.0501 94.2669 79.716C94.3425 80.0456 94.4509 80.3668 94.5904 80.6749C94.6868 80.8654 94.7929 81.051 94.9081 81.2308C98.1598 81.4801 101.419 81.6092 104.685 81.6182C105.913 81.626 107.14 81.6157 108.365 81.5872C108.42 81.2796 108.494 80.9755 108.586 80.6768C108.708 80.2138 108.849 79.7567 108.973 79.2957C109.252 78.3816 109.43 77.4397 109.504 76.4869L109.51 76.4946ZM94.0577 81.1611C94.0112 81.0662 93.9705 80.9674 93.9298 80.8802C93.7731 80.5139 93.6505 80.1339 93.5637 79.7451C93.4127 79.0087 93.304 78.2643 93.2383 77.5155C93.1531 76.7251 93.095 75.929 93.0814 75.1328C93.0623 74.3269 93.1044 73.5207 93.2073 72.7212C93.2794 72.0451 93.4289 71.3795 93.6528 70.7376C93.3971 70.7376 93.1414 70.7492 92.878 70.755C92.8426 70.9091 92.7914 71.059 92.725 71.2025C92.6475 71.4014 92.5758 71.6028 92.51 71.8069C92.3802 72.1943 92.2639 72.5972 92.171 73.0001C91.8361 74.4336 91.7561 75.9148 91.9346 77.376C92.0245 78.1158 92.184 78.8455 92.4112 79.5552C92.5196 79.9 92.6417 80.239 92.7831 80.5722C92.8528 80.7388 92.9303 80.9034 93.0078 81.0681L93.4688 81.1107L94.0577 81.1611ZM92.5196 70.077C92.8083 70.077 93.1008 70.0615 93.3836 70.0557C91.6116 68.8147 90.1125 67.224 88.9786 65.3815C88.5439 64.6745 88.1619 63.9364 87.8357 63.1732L87.8474 63.3766C87.8958 64.1515 87.9345 64.9108 87.9771 65.6779C88.0643 67.2431 88.1554 68.8063 88.2348 70.3715C88.5951 70.3056 88.9573 70.263 89.306 70.2301C90.3675 70.1235 91.4426 70.1003 92.5138 70.0693L92.5196 70.077ZM87.5587 70.5381L87.6052 70.5245C87.58 70.4794 87.566 70.4289 87.5645 70.3773C87.5374 69.8581 87.5142 69.3371 87.489 68.8179C87.4227 68.731 87.3643 68.6383 87.3147 68.5409C87.2488 68.4034 87.1907 68.262 87.1345 68.1206C87.0183 67.8281 86.9272 67.5239 86.8246 67.2276C86.6309 66.66 86.4372 66.0905 86.257 65.5229C86.1815 65.2943 86.1079 65.0677 86.0342 64.8391C86.0943 65.3079 86.1621 65.7767 86.2454 66.2416C86.3836 67.0409 86.5739 67.8303 86.8149 68.6048C86.9331 68.9923 87.0706 69.3564 87.2023 69.7264C87.2798 69.9201 87.3631 70.1255 87.4503 70.323C87.4948 70.387 87.5219 70.4586 87.5529 70.5303L87.5587 70.5381ZM85.6216 68.9438C85.579 69.0697 85.5364 69.1937 85.4919 69.3138C85.1044 70.356 84.5737 71.3303 84.1708 72.3628C83.7833 73.3585 83.4676 74.4626 83.6536 75.5396C83.7378 75.9568 83.8745 76.3616 84.0603 76.7445C84.0119 76.1634 83.9577 75.5822 83.948 75.0011C83.9358 74.1024 84.0874 73.2091 84.3955 72.3647C84.6725 71.5899 85.0347 70.8325 85.3136 70.0499C85.4469 69.6879 85.5492 69.3153 85.6197 68.9361L85.6216 68.9438Z" fill="#1E1E1E"/>
<path d="M119.607 70.5884C119.718 70.9017 119.753 71.2371 119.709 71.5667C119.709 71.5454 119.709 71.526 119.709 71.5047C119.653 71.1586 119.477 70.843 119.213 70.6124C118.949 70.3818 118.613 70.2507 118.262 70.2417C117.889 70.2353 117.519 70.3107 117.177 70.4625C116.815 70.6117 116.379 70.7821 116.1 71.0669C116.088 71.0811 116.077 71.0967 116.067 71.1134L115.632 71.0669C115.625 70.7408 115.661 70.4152 115.738 70.0983C115.771 69.9821 115.81 69.8698 115.852 69.7594C115.865 69.7603 115.877 69.7603 115.889 69.7594C117.075 69.554 119.049 69.0717 119.607 70.5884Z" fill="#FF5200"/>
<path d="M117.691 62.3652C117.707 63.1209 117.659 63.8766 117.545 64.6239C117.433 65.3682 117.196 66.0884 116.846 66.7547C116.459 67.454 115.949 68.0738 115.556 68.7673C115.388 69.0587 115.247 69.3655 115.137 69.6836C115.137 69.4666 115.149 69.2497 115.157 69.0327C115.173 69.0152 115.188 68.9964 115.201 68.9765C115.472 68.5015 115.706 68.0068 115.903 67.4966C116.116 67.0123 116.331 66.528 116.542 66.0457C116.962 65.1174 117.29 64.15 117.52 63.1575C117.588 62.8456 117.64 62.5299 117.685 62.2161C117.689 62.2645 117.691 62.3149 117.691 62.3652Z" fill="#FF5200"/>
<path d="M117.197 59.9306C117.225 61.8479 116.846 63.7494 116.085 65.5094C115.854 66.0518 115.612 66.5903 115.376 67.1308L115.221 67.4736C115.248 66.9287 115.28 66.385 115.316 65.8426C115.37 65.0833 115.431 64.3246 115.498 63.5665C115.564 62.7917 115.692 62.0169 115.705 61.242C115.707 61.1969 115.697 61.152 115.677 61.1119C115.656 61.0718 115.625 61.0378 115.587 61.0134C115.606 60.9437 115.628 60.8759 115.645 60.8062C115.732 60.4691 115.814 60.1301 115.885 59.7892C116.191 58.317 116.37 56.8212 116.42 55.3184C116.421 55.3094 116.421 55.3003 116.42 55.2913C116.581 55.8724 116.745 56.4651 116.871 57.0656C117.069 58.0084 117.178 58.9676 117.197 59.9306V59.9306Z" fill="#165960"/>
<path d="M116.887 75.4912C116.923 76.8835 116.695 78.27 116.213 79.5766C116.082 79.9326 115.932 80.2811 115.763 80.6207C115.672 80.8027 115.569 80.981 115.476 81.163L115.43 81.2502C113.663 81.3794 111.893 81.4762 110.12 81.5408C110.722 80.323 111.13 79.0193 111.331 77.6763C111.564 76.2241 111.578 74.7452 111.374 73.2888C111.318 72.8803 111.242 72.475 111.145 72.0742C111.089 71.8359 111.033 71.5802 110.951 71.3342C112.662 71.4892 114.368 71.6764 116.069 71.896C116.1 71.9028 116.133 71.9028 116.164 71.896C116.224 72.0723 116.294 72.2466 116.358 72.4268C116.47 72.7671 116.564 73.113 116.641 73.4631C116.786 74.1299 116.868 74.809 116.887 75.4912V75.4912Z" fill="#165960"/>
<path d="M115.843 55.3008L116.424 55.3241C116.374 56.8269 116.195 58.3226 115.889 59.7949L115.321 59.6729L115.333 59.6089C114.792 59.0473 114.323 58.4215 113.934 57.7454C113.298 56.6921 112.828 55.5466 112.542 54.3497C112.557 54.8049 112.584 55.2601 112.615 55.7173C112.641 56.0505 112.104 56.1183 112.034 55.7967C111.862 54.9276 111.786 54.0422 111.808 53.1565C111.833 51.5884 112.073 50.0313 112.522 48.5287C112.734 47.8001 113.006 47.0906 113.336 46.4076C113.636 45.7994 114.037 45.2221 114.636 44.8773C114.651 44.8698 114.667 44.864 114.684 44.8599C114.622 44.5345 114.558 44.2071 114.49 43.8817L115.056 43.7712C115.25 44.7398 115.443 45.7083 115.616 46.6769C115.825 47.7965 116.015 48.9181 116.156 50.0436L115.587 50.1152C115.381 48.5307 115.083 46.9597 114.779 45.3868C114.26 45.9567 113.864 46.6282 113.617 47.3587C113.303 48.1965 113.053 49.0572 112.871 49.9331V49.9331C112.721 51.5883 112.901 53.2569 113.402 54.8417C113.649 55.6308 113.981 56.3913 114.39 57.1101C114.719 57.6697 115.091 58.2033 115.502 58.7062C115.688 57.5795 115.801 56.4421 115.843 55.3008Z" fill="#1E1E1E"/>
<path d="M116.418 52.9588L115.837 52.9859C115.819 52.5036 115.787 52.0174 115.744 51.5448L116.313 51.4944C116.364 51.9774 116.399 52.4655 116.418 52.9588Z" fill="#1E1E1E"/>
<path d="M116.396 41.6675C116.426 41.739 116.429 41.8188 116.405 41.8924C116.381 41.966 116.331 42.0285 116.265 42.0685C116.025 42.2175 115.763 42.3292 115.49 42.3997C115.368 42.4365 115.244 42.4694 115.118 42.5004C115.023 42.5251 114.927 42.5426 114.829 42.5527L114.262 42.6593C113.849 40.4704 113.468 38.2756 113.233 36.0577L113.69 35.7961C113.724 35.821 113.752 35.8526 113.772 35.889C113.792 35.9254 113.805 35.9657 113.808 36.0073C113.82 36.1313 113.838 36.2552 113.851 36.3792C113.882 36.3864 113.911 36.3999 113.937 36.4189C113.963 36.4379 113.984 36.462 114 36.4896C114.245 36.8581 114.457 37.247 114.636 37.6519C114.81 38.08 114.936 38.5255 115.108 38.9536C115.281 39.3817 115.527 39.8253 115.746 40.2534C115.964 40.6815 116.251 41.1018 116.354 41.559V41.5958C116.372 41.6172 116.386 41.6414 116.396 41.6675V41.6675ZM115.294 41.745C115.405 41.7062 115.513 41.6636 115.622 41.6229C115.425 41.2872 115.247 40.9413 115.087 40.5866C114.876 40.1682 114.657 39.7536 114.475 39.3236C114.312 38.9066 114.174 38.4804 114.062 38.047C114.256 39.3449 114.469 40.6369 114.709 41.9212C114.783 41.8941 114.862 41.8728 114.94 41.8515C115.058 41.8244 115.176 41.7856 115.294 41.745Z" fill="#1E1E1E"/>
<path d="M116.319 51.4946L115.749 51.545C115.709 51.0684 115.655 50.5919 115.593 50.1173L116.162 50.0457C116.226 50.5261 116.278 51.0103 116.319 51.4946Z" fill="#1E1E1E"/>
<path d="M115.318 59.6731L115.885 59.7951C115.814 60.1361 115.732 60.475 115.645 60.8121C115.628 60.8818 115.606 60.9496 115.587 61.0194L115.033 60.8567C115.141 60.4654 115.236 60.0708 115.318 59.6731Z" fill="#1E1E1E"/>
<path d="M115.842 52.9938C115.872 53.7686 115.872 54.5434 115.842 55.3183C115.8 56.4622 115.685 57.6022 115.498 58.7314C115.087 58.2285 114.715 57.6949 114.386 57.1353C113.977 56.4165 113.645 55.6561 113.398 54.8669C112.896 53.2764 112.717 51.6016 112.871 49.9409V49.9409C113.058 49.0653 113.312 48.2052 113.63 47.3684C113.877 46.6379 114.273 45.9664 114.792 45.3965C115.097 46.9694 115.395 48.5404 115.6 50.1249C115.662 50.5995 115.716 51.076 115.757 51.5526C115.798 52.0291 115.825 52.5037 115.842 52.9938Z" fill="#165960"/>
<path d="M115.622 41.623C115.513 41.6637 115.405 41.7063 115.294 41.7451C115.184 41.7838 115.058 41.8245 114.94 41.8574C114.863 41.8787 114.783 41.9 114.709 41.9272C114.469 40.6371 114.247 39.345 114.062 38.053C114.175 38.4863 114.312 38.9126 114.475 39.3295C114.657 39.7596 114.876 40.1741 115.087 40.5925C115.247 40.9453 115.426 41.2893 115.622 41.623V41.623Z" fill="#FF5200"/>
<path d="M101.615 45.5765C101.572 45.5765 101.529 45.5668 101.485 45.5649C101.431 45.5619 101.376 45.5619 101.322 45.5649L101.129 45.5784C99.8932 45.7099 98.7494 46.2912 97.9149 47.2114C96.8746 48.3601 96.4969 49.9233 96.1618 51.3897C95.4954 54.3167 95.3869 57.6775 97.4441 60.1066C98.3211 61.1481 99.5747 61.8 100.931 61.9198C101.596 61.9859 102.268 61.8906 102.889 61.6421C103.509 61.3936 104.061 60.9991 104.497 60.4921C105.421 59.388 105.962 57.9235 106.264 56.5308C106.581 55.0724 106.64 53.5695 106.436 52.0909C106.246 50.6276 105.766 49.2169 105.024 47.9417C104.472 46.972 103.588 46.2346 102.535 45.8651C102.489 45.8415 102.443 45.8202 102.395 45.8012C102.239 45.7447 102.079 45.6968 101.917 45.6579C101.818 45.6246 101.717 45.5974 101.615 45.5765V45.5765ZM115.329 59.6088L115.318 59.6727C115.235 60.0692 115.14 60.4637 115.033 60.8563C114.585 62.5618 113.88 64.189 112.941 65.6816C111.77 67.5139 110.163 69.0268 108.263 70.0846C108.088 70.1795 107.912 70.2783 107.734 70.3597C106.579 70.2822 105.424 70.2176 104.267 70.166C100.983 70.0175 97.6973 69.9723 94.4107 70.0304C90.9084 67.8821 88.5413 64.3508 87.5088 60.4205C87.5486 60.397 87.5829 60.3653 87.6095 60.3275C87.8094 60.0055 87.9806 59.6664 88.1209 59.3144C88.2894 58.956 88.4618 58.6015 88.6323 58.2451C88.9597 57.5613 89.2851 56.8756 89.5815 56.1782C90.1062 54.999 90.4961 53.7644 90.7437 52.4977C90.8077 53.1641 90.8348 53.8363 90.8328 54.5046C90.8328 55.0315 90.8154 55.5603 90.7902 56.0872C90.755 56.6279 90.7712 57.1708 90.8387 57.7085C90.8658 57.9022 91.1195 57.8499 91.1699 57.7085C91.3269 57.2437 91.4277 56.7619 91.4702 56.2731C91.5244 55.7811 91.5341 55.2794 91.5418 54.7835C91.5613 53.8082 91.5127 52.8328 91.3965 51.8643C91.197 50.101 90.6805 48.3882 89.872 46.8085C89.447 45.9564 88.8826 45.1812 88.2023 44.515C88.272 44.0927 88.3437 43.6743 88.4153 43.2539C88.7589 43.4454 89.1244 43.5944 89.504 43.6975C89.9417 43.8194 90.3888 43.9049 90.8406 43.9532C91.7573 44.047 92.6833 43.9815 93.5777 43.7595C95.2203 43.345 96.6925 42.4281 97.789 41.1367C98.1112 40.7673 98.381 40.3554 98.5909 39.9124C98.7533 39.6019 98.8483 39.2607 98.8698 38.911C99.6118 38.9904 100.361 39.0388 101.111 39.0524C101.088 39.1241 101.06 39.1946 101.03 39.2635C100.964 39.4159 100.894 39.567 100.82 39.7168C100.667 40.0383 100.507 40.356 100.325 40.6621C100.151 40.9602 99.9605 41.2486 99.7551 41.526C99.6582 41.6597 99.5614 41.7895 99.451 41.9135C99.3135 42.043 99.2001 42.1958 99.1159 42.3648C99.0881 42.4487 99.0898 42.5397 99.1208 42.6225C99.1518 42.7053 99.2102 42.775 99.2863 42.82C99.4646 42.8934 99.6586 42.9201 99.85 42.8975L101.032 42.9285C101.135 42.9431 101.24 42.9431 101.344 42.9285C101.447 42.8901 101.534 42.8159 101.588 42.7193C101.69 42.5779 101.781 42.4345 101.882 42.2873C102.075 41.9792 102.242 41.6552 102.38 41.3188C102.67 40.6253 102.839 39.7691 102.637 39.0311C103.981 38.9748 105.317 38.8089 106.634 38.5352C106.717 39.2709 106.984 39.9741 107.409 40.5807C107.689 40.9216 108.015 41.2227 108.377 41.4757C108.739 41.7546 109.105 42.0258 109.475 42.2951C110.21 42.8447 111.018 43.2887 111.876 43.6142C112.304 43.7679 112.749 43.8731 113.2 43.928C113.6 43.9803 114.119 44.0462 114.506 43.8893C114.568 44.2147 114.632 44.5421 114.7 44.8675C114.683 44.8716 114.667 44.8774 114.651 44.885C114.053 45.2298 113.652 45.807 113.352 46.4153C113.023 47.0952 112.751 47.8015 112.54 48.5267C112.091 50.0292 111.85 51.5864 111.825 53.1544C111.803 54.0401 111.879 54.9256 112.052 55.7947C112.12 56.1162 112.656 56.0484 112.633 55.7152C112.602 55.2581 112.575 54.8029 112.559 54.3477C112.844 55.5464 113.313 56.6938 113.948 57.7492C114.331 58.4229 114.795 59.0474 115.329 59.6088V59.6088ZM106.777 68.6686C107.242 67.9693 107.228 67.0298 107.176 66.224C107.147 65.7668 107.104 65.3116 107.068 64.8564C107.029 64.3683 107.025 63.8259 106.874 63.359C106.861 63.319 106.836 63.2835 106.804 63.2565C106.772 63.2294 106.733 63.2117 106.691 63.2055C106.649 63.1993 106.607 63.2047 106.568 63.2212C106.529 63.2377 106.495 63.2646 106.471 63.299C105.779 63.0859 105.018 63.1053 104.303 63.0549C103.517 63.0084 102.73 62.9755 101.942 62.9677C100.369 62.9287 98.7951 63.0513 97.2466 63.3338C96.8194 63.4171 96.3971 63.5238 95.9816 63.6535C95.7434 63.7271 95.3424 63.8704 95.4005 64.1726C95.3487 64.1813 95.3013 64.2072 95.2661 64.2463C95.2309 64.2853 95.21 64.3352 95.2068 64.3876C95.1758 65.5228 95.2882 66.6734 95.354 67.8066C95.3792 68.2676 95.4393 68.6802 95.8751 68.9301C96.333 69.1545 96.8292 69.2899 97.3376 69.3291C98.4185 69.4725 99.5343 69.4105 100.631 69.4066C101.762 69.4066 102.891 69.3969 104.021 69.3795C104.761 69.366 106.078 69.5229 106.572 68.7984C106.613 68.7927 106.653 68.7782 106.689 68.7558C106.724 68.7334 106.754 68.7037 106.777 68.6686V68.6686Z" fill="#1CD5E8"/>
<path d="M115.062 43.7752L114.496 43.8856C114.109 44.0425 113.59 43.9766 113.191 43.9243C112.739 43.8695 112.294 43.7642 111.866 43.6105C111.008 43.285 110.2 42.841 109.465 42.2914C109.096 42.0221 108.729 41.7509 108.367 41.472C108.005 41.219 107.679 40.9179 107.399 40.577C106.974 39.9704 106.707 39.2673 106.624 38.5315C105.307 38.8052 103.971 38.9711 102.628 39.0274C102.821 39.7712 102.66 40.6216 102.37 41.3151C102.232 41.6515 102.065 41.9756 101.872 42.2836C101.779 42.4308 101.678 42.5742 101.578 42.7156C101.524 42.8122 101.437 42.8865 101.334 42.9248C101.23 42.9394 101.125 42.9394 101.022 42.9248L99.8401 42.8938C99.6486 42.9164 99.4546 42.8898 99.2764 42.8163C99.2003 42.7713 99.1419 42.7016 99.1109 42.6188C99.0799 42.536 99.0781 42.445 99.1059 42.3611C99.1901 42.1921 99.3036 42.0393 99.441 41.9098C99.5476 41.7819 99.6483 41.6521 99.7452 41.5223C99.9506 41.2449 100.141 40.9565 100.315 40.6584C100.497 40.3523 100.658 40.0347 100.811 39.7131C100.884 39.5633 100.954 39.4122 101.02 39.2598C101.051 39.1909 101.078 39.1204 101.101 39.0487C100.351 39.0351 99.6018 38.9867 98.8599 38.9073C98.8384 39.257 98.7433 39.5983 98.581 39.9087C98.3711 40.3517 98.1012 40.7636 97.779 41.133C96.6826 42.4244 95.2103 43.3413 93.5678 43.7558C92.6734 43.9778 91.7474 44.0433 90.8306 43.9495C90.3788 43.9012 89.9318 43.8157 89.494 43.6938C89.1145 43.5907 88.7489 43.4418 88.4054 43.2502L88.4926 42.733C88.9265 42.8493 89.3507 43.0023 89.7885 43.1069C90.2423 43.212 90.7044 43.2768 91.1696 43.3006C92.3486 43.3692 93.5269 43.1565 94.6075 42.6799C95.688 42.2033 96.6396 41.4765 97.3838 40.5596C97.6374 40.2576 97.8521 39.9251 98.0231 39.5698C98.1117 39.3734 98.1767 39.1673 98.2168 38.9557C98.2168 38.9092 98.2342 38.8627 98.2439 38.8201C96.5748 38.6085 94.9331 38.2189 93.3469 37.6578C92.5199 37.3598 91.7096 37.0171 90.9197 36.6312C90.5052 36.4258 90.0713 36.2128 89.6606 35.9668L89.9376 35.4825C90.0209 35.527 90.1042 35.5716 90.1895 35.6142C90.6195 35.835 91.0573 36.0423 91.4989 36.2418C92.3581 36.6223 93.2384 36.9535 94.1353 37.2336C96.159 37.8707 98.2572 38.2406 100.377 38.3339C100.344 38.0391 100.344 37.7415 100.377 37.4467C100.396 37.1619 100.396 36.8249 100.599 36.6002C100.803 36.3755 101.122 36.3735 101.394 36.3367C101.707 36.2958 102.023 36.2751 102.339 36.2748C102.663 36.2734 102.986 36.2941 103.307 36.3367C103.61 36.3794 103.966 36.4123 104.082 36.7474C104.167 37.0529 104.201 37.3703 104.183 37.6869C104.183 37.8417 104.173 37.9963 104.154 38.1499C104.154 38.1712 104.154 38.1925 104.154 38.2138H104.218C107.535 37.8571 110.739 36.8007 113.619 35.1144C113.728 33.22 113.838 31.3268 113.948 29.4349C114.031 28.0285 114.153 26.5544 113.706 25.1926C113.258 23.8309 112.164 22.9843 110.934 22.3451C110.852 22.3025 110.771 22.2637 110.69 22.2231C110.623 22.3138 110.55 22.3999 110.471 22.4807C110.329 22.6058 110.177 22.7198 110.018 22.8216C109.723 23.0178 109.416 23.1938 109.097 23.3485C108.442 23.6746 107.76 23.9448 107.06 24.1563C104.299 24.9931 101.357 24.873 98.5132 24.6677C97.2158 24.5953 95.9255 24.4283 94.6525 24.1679C93.436 23.9006 92.1789 23.4957 91.1658 22.7577C90.669 23.0619 90.2221 23.4408 89.8408 23.8812C89.4142 24.4143 89.1183 25.0399 88.9768 25.7079C88.6456 27.1472 88.8238 28.6736 88.909 30.1322L89.1996 35.1164C89.2868 35.1551 89.3701 35.1958 89.4553 35.2384L88.9555 35.4825C88.9099 35.4911 88.8629 35.4899 88.8177 35.4789C88.7725 35.468 88.7302 35.4475 88.6936 35.4189C88.6569 35.3903 88.6268 35.3543 88.6051 35.3131C88.5835 35.272 88.5709 35.2267 88.5681 35.1803L88.2311 29.2179C88.1497 27.7632 88.0645 26.2174 88.5972 24.8304C89.1299 23.4434 90.2476 22.5059 91.5299 21.8357C94.1295 20.47 97.0623 19.8986 99.9621 19.5751C100.416 19.4992 100.874 19.4532 101.334 19.4375C101.583 19.4375 101.833 19.4375 102.085 19.4375C102.284 19.431 102.482 19.4666 102.666 19.5421C104.268 19.7006 105.856 19.9764 107.418 20.3673C108.945 20.7358 110.413 21.3168 111.778 22.0933C113.039 22.8449 114.016 23.9025 114.403 25.3437C114.791 26.8179 114.645 28.3792 114.56 29.8823C114.462 31.6451 114.362 33.4079 114.262 35.1706C114.261 35.1983 114.257 35.2257 114.248 35.252C114.258 35.3094 114.25 35.3686 114.225 35.4213C114.2 35.474 114.159 35.5177 114.109 35.5464C113.975 35.6278 113.839 35.7072 113.704 35.7866L113.247 36.0481C111.825 36.8492 110.322 37.4984 108.764 37.9852C108.268 38.1402 107.765 38.2738 107.257 38.3939C107.451 39.0467 107.567 39.7247 108.032 40.2497C108.295 40.5239 108.586 40.7699 108.9 40.9838C109.235 41.226 109.572 41.4681 109.921 41.6909C110.607 42.1576 111.348 42.5388 112.127 42.826C112.5 42.9562 112.885 43.0502 113.276 43.1069C113.475 43.1317 113.676 43.144 113.876 43.1437C114.037 43.1437 114.194 43.1224 114.351 43.1437C114.32 42.9849 114.291 42.826 114.26 42.6672L114.827 42.5606C114.905 42.9597 114.984 43.3684 115.062 43.7752ZM110.122 22.0197C110.147 22.0061 110.173 21.9964 110.2 21.9848C107.757 20.8671 105.064 20.3712 102.411 20.0225C102.279 20.0225 102.141 19.9993 102.023 19.9915C101.791 19.976 101.558 19.9722 101.326 19.9741C101.093 19.976 100.905 19.9741 100.694 19.9741C98.9773 20.1712 97.2757 20.4857 95.6017 20.9155C94.2363 21.2637 92.9179 21.7756 91.6752 22.44C92.8104 23.0011 94.0167 23.4052 95.2608 23.641C96.5146 23.8534 97.7797 23.9925 99.0497 24.0575C100.474 24.1708 101.905 24.196 103.333 24.133C104.647 24.0696 105.949 23.8419 107.207 23.4551C107.806 23.2647 108.386 23.0196 108.941 22.7228C109.227 22.5698 109.508 22.3993 109.783 22.2269C109.894 22.165 110.004 22.0836 110.122 22.0197ZM103.484 37.8225C103.497 37.5898 103.488 37.3563 103.459 37.1251C103.456 37.1081 103.452 37.0912 103.447 37.0748C103.429 37.0683 103.411 37.0632 103.393 37.0593C103.267 37.0341 103.141 37.0128 103.005 36.9934C102.781 36.9567 102.554 36.9353 102.327 36.9295C102.081 36.922 101.835 36.9292 101.589 36.9508C101.469 36.9508 101.349 36.9721 101.229 36.9915C101.179 36.9915 101.09 37.0012 101.06 37.036C101.031 37.0709 101.031 37.1852 101.029 37.2297C101.018 37.3498 101.01 37.4719 101.006 37.592C101.006 37.8516 101.016 38.1189 100.991 38.3784C101.804 38.3939 102.62 38.3688 103.431 38.3048C103.431 38.2545 103.431 38.2002 103.447 38.1382C103.47 38.0298 103.478 37.9252 103.484 37.8225ZM101.857 40.8579C102.058 40.2755 102.107 39.6515 102 39.0448H101.704C101.683 39.2686 101.624 39.487 101.527 39.6899C101.383 40.057 101.215 40.4148 101.026 40.7611C100.733 41.2763 100.4 41.7673 100.03 42.2294H100.365H101.084C101.408 41.813 101.668 41.3508 101.857 40.8579V40.8579Z" fill="#1E1E1E"/>
<path d="M114.874 63.1731C114.864 63.2719 114.855 63.3668 114.843 63.4714C114.762 64.2462 114.697 65.0211 114.649 65.7959C114.541 67.3456 114.476 68.8985 114.456 70.4546C114.451 70.5356 114.479 70.615 114.533 70.6755C114.533 70.6987 114.533 70.72 114.533 70.7433L114.522 70.937C112.63 70.7394 110.735 70.5696 108.836 70.4275C110.434 69.4896 111.826 68.2376 112.927 66.747C113.726 65.6439 114.381 64.4427 114.874 63.1731Z" fill="#165960"/>
<path d="M114.26 42.6593C114.291 42.8182 114.32 42.977 114.351 43.1359C114.194 43.1204 114.037 43.1359 113.876 43.1359C113.676 43.1362 113.475 43.1239 113.276 43.0991C112.885 43.0424 112.5 42.9483 112.127 42.8182C111.348 42.531 110.607 42.1498 109.921 41.6831C109.572 41.4603 109.235 41.2182 108.9 40.976C108.583 40.7632 108.29 40.5177 108.024 40.2438C107.552 39.7188 107.432 39.0409 107.25 38.3881C107.757 38.268 108.261 38.1343 108.757 37.9793C110.315 37.4926 111.817 36.8433 113.239 36.0422C113.466 38.2718 113.84 40.4704 114.26 42.6593Z" fill="#165960"/>
<path d="M113.702 25.2158C114.149 26.5717 114.027 28.0517 113.944 29.458C113.835 31.3512 113.726 33.2444 113.615 35.1376C110.736 36.8238 107.531 37.8802 104.214 38.2369H104.15C104.15 38.2156 104.15 38.1943 104.15 38.173C104.169 38.0194 104.179 37.8648 104.179 37.71C104.197 37.3935 104.163 37.0761 104.078 36.7705C103.962 36.4354 103.606 36.4025 103.303 36.3599C102.982 36.3173 102.659 36.2965 102.335 36.2979C102.019 36.2982 101.703 36.3189 101.39 36.3599C101.118 36.3967 100.791 36.4064 100.595 36.6233C100.4 36.8403 100.402 37.1851 100.373 37.4698C100.34 37.7647 100.34 38.0622 100.373 38.357C98.2532 38.2637 96.155 37.8938 94.1313 37.2568C93.2344 36.9766 92.3542 36.6455 91.495 36.265C91.0533 36.0713 90.6155 35.8582 90.1855 35.6373C90.1003 35.5947 90.017 35.5502 89.9337 35.5056C89.7651 35.4165 89.5985 35.3255 89.43 35.2422C89.3448 35.1996 89.2615 35.1589 89.1743 35.1201L88.8954 30.136C88.8101 28.6774 88.6319 27.1509 88.9632 25.7117C89.1046 25.0437 89.4005 24.4181 89.8271 23.885C90.2084 23.4446 90.6553 23.0656 91.1521 22.7615C92.1691 23.4995 93.4262 23.9044 94.6389 24.1717C95.9119 24.4321 97.2022 24.5991 98.4995 24.6715C101.343 24.8768 104.286 24.9969 107.046 24.1601C107.754 23.951 108.443 23.6821 109.105 23.3562C109.423 23.2015 109.731 23.0254 110.025 22.8293C110.185 22.7274 110.336 22.6134 110.478 22.4883C110.557 22.4075 110.63 22.3215 110.697 22.2307C110.779 22.2714 110.86 22.3101 110.941 22.3527C112.164 22.9842 113.258 23.8617 113.702 25.2158Z" fill="#1CD5E8"/>
<path d="M110.955 75.1735C110.962 76.584 110.759 77.9877 110.353 79.3382C110.109 80.1018 109.812 80.8469 109.462 81.5678L109.105 81.5795C109.136 81.4129 109.161 81.2444 109.2 81.0874C109.295 80.7097 109.405 80.3378 109.516 79.9639C109.747 79.2469 109.931 78.5158 110.068 77.775C110.294 76.2378 110.282 74.6751 110.033 73.1415C109.969 72.6979 109.882 72.2582 109.787 71.8204C109.752 71.6538 109.727 71.433 109.665 71.2393C109.909 71.2586 110.153 71.2819 110.397 71.3032C110.455 71.5473 110.535 71.7894 110.591 72.0315C110.668 72.3666 110.734 72.7056 110.785 73.0446C110.898 73.7486 110.955 74.4605 110.955 75.1735V75.1735Z" fill="#FF5200"/>
<path d="M110.862 84.5279C111.139 86.3623 110.814 88.2374 110.523 90.0505C110.286 91.6858 109.897 93.2954 109.361 94.8584L108.848 94.6782C109.067 94.0041 109.235 93.3223 109.402 92.6288C109.623 91.6467 109.801 90.6568 109.954 89.6631C110.091 88.7662 110.235 87.8713 110.306 86.9667C110.394 86.1214 110.37 85.2683 110.237 84.4291C110.165 84.0313 110.054 83.6419 109.903 83.2668C109.785 82.9762 109.603 82.7186 109.479 82.4339L110.031 82.2886C110.212 82.5418 110.359 82.8172 110.469 83.108C110.659 83.563 110.791 84.04 110.862 84.5279V84.5279Z" fill="#1E1E1E"/>
<path d="M110.241 84.4291C110.374 85.2683 110.398 86.1214 110.31 86.9667C110.239 87.8713 110.095 88.7662 109.958 89.6631C109.805 90.6568 109.626 91.6467 109.406 92.6288C109.249 93.3203 109.071 94.0041 108.852 94.6782C108.821 94.7731 108.788 94.8719 108.755 94.9649C108.735 94.8293 108.718 94.6957 108.695 94.5601C108.636 94.1839 108.542 93.8142 108.414 93.4559C108.396 93.4099 108.367 93.3688 108.331 93.3358C108.418 93.1421 108.482 92.9155 108.548 92.7334C108.679 92.377 108.797 92.0147 108.898 91.6486C109.519 89.3901 109.749 87.0421 109.578 84.7061C109.541 83.8976 109.411 83.0962 109.191 82.3176H109.435C109.45 82.3602 109.466 82.4009 109.483 82.4416C109.607 82.7264 109.789 82.984 109.907 83.2746C110.057 83.6471 110.169 84.034 110.241 84.4291V84.4291Z" fill="#FF5200"/>
<path d="M110.2 21.9847C110.173 21.9963 110.148 22.006 110.122 22.0195C110.004 22.0835 109.894 22.1648 109.778 22.2365C109.503 22.4089 109.222 22.5794 108.935 22.7324C108.381 23.0291 107.8 23.2742 107.201 23.4646C105.943 23.8514 104.642 24.0792 103.327 24.1426C101.899 24.2056 100.469 24.1803 99.0442 24.067C97.7742 24.002 96.5091 23.8629 95.2552 23.6506C94.0111 23.4147 92.8049 23.0107 91.6697 22.4496C92.9123 21.7851 94.2307 21.2733 95.5962 20.9251C97.2702 20.4953 98.9717 20.1807 100.689 19.9836C100.9 19.9836 101.109 19.9836 101.32 19.9836C101.531 19.9836 101.785 19.9836 102.018 20.0011C102.144 20.0011 102.281 20.0321 102.405 20.0321C105.065 20.3711 107.757 20.867 110.2 21.9847Z" fill="#FF5200"/>
<path d="M109.578 84.7059C109.752 87.0415 109.524 89.3895 108.906 91.6484C108.805 92.0146 108.687 92.3768 108.555 92.7332C108.489 92.9153 108.426 93.1342 108.338 93.3357C108.375 93.3686 108.404 93.4098 108.422 93.4558C108.55 93.8141 108.644 94.1838 108.703 94.5599C108.726 94.6955 108.743 94.8292 108.763 94.9648C108.795 94.8698 108.828 94.771 108.859 94.6781L109.373 94.8582C109.226 95.2689 109.062 95.675 108.883 96.0766C108.78 96.3033 108.431 96.1909 108.404 95.9875C108.36 95.9598 108.323 95.922 108.296 95.8772C108.269 95.8324 108.253 95.782 108.249 95.7299C108.216 95.3793 108.17 95.0267 108.114 94.6781C108.067 94.3914 108.001 94.1105 107.949 93.8257C107.916 93.8292 107.883 93.826 107.852 93.8162C107.821 93.8064 107.792 93.7903 107.767 93.7689C107.742 93.7475 107.722 93.7212 107.707 93.6916C107.693 93.6621 107.685 93.63 107.684 93.5972C107.7 93.3725 107.755 93.1524 107.846 92.9463C107.91 92.7526 107.968 92.5589 108.028 92.3652C108.152 91.9603 108.265 91.5516 108.369 91.1409C108.74 89.6831 108.949 88.1891 108.995 86.6856C109.02 85.9265 109.003 85.1666 108.943 84.4095C108.887 83.718 108.774 83.0303 108.732 82.3388L109.198 82.3271C109.416 83.1029 109.543 83.901 109.578 84.7059Z" fill="#1E1E1E"/>
<path d="M109.404 73.591C109.526 74.5512 109.56 75.5206 109.504 76.487C109.433 77.4403 109.257 78.3828 108.979 79.2977C108.846 79.7587 108.704 80.2159 108.592 80.6789C108.5 80.9776 108.426 81.2816 108.371 81.5893C107.144 81.6164 105.917 81.6268 104.691 81.6203C101.429 81.6035 98.1697 81.4744 94.9141 81.2329C94.7989 81.053 94.6929 80.8675 94.5964 80.6769C94.457 80.3689 94.3486 80.0477 94.273 79.7181C94.123 79.0522 94.0162 78.3773 93.9533 77.6977C93.7611 76.1948 93.7137 74.6769 93.8119 73.1649C93.8778 72.3339 94.0734 71.5435 94.2168 70.7299C95.4217 70.7132 96.6259 70.7074 97.8295 70.7125C101.567 70.7396 105.3 70.8959 109.028 71.1813C109.028 71.253 109.047 71.3266 109.059 71.4021C109.099 71.6462 109.15 71.8883 109.194 72.1324C109.268 72.6089 109.345 73.099 109.404 73.591ZM105.58 73.8971C105.611 73.8605 105.634 73.8175 105.647 73.7713C105.66 73.725 105.663 73.6764 105.655 73.6289C105.647 73.5815 105.63 73.5362 105.603 73.4962C105.576 73.4562 105.541 73.4225 105.5 73.3973C104.954 73.0583 104.255 73.0641 103.635 73.0099C102.943 72.944 102.252 72.884 101.558 72.8549C100.202 72.7968 98.7186 72.8104 97.4537 73.3334C97.429 73.3445 97.4071 73.3611 97.3897 73.3818C97.3411 73.3866 97.2958 73.4086 97.2619 73.4438C97.2221 73.4875 97.1988 73.5437 97.196 73.6027C97.1922 73.6478 97.1922 73.6931 97.196 73.7383C97.196 73.7809 97.2057 73.8235 97.2096 73.8661C97.2135 73.9087 97.2096 73.9533 97.2231 73.9959C97.2244 74.0558 97.239 74.1147 97.2658 74.1683C97.2744 74.1814 97.2841 74.1937 97.2948 74.2051C97.3048 74.2164 97.3159 74.2268 97.3278 74.2361C97.3278 74.2477 97.3413 74.2574 97.3471 74.2671C97.3545 74.2793 97.3636 74.2904 97.3742 74.3C97.3491 74.3136 97.3239 74.3252 97.3006 74.3407C97.2711 74.361 97.2477 74.3891 97.2331 74.4219C97.2186 74.4547 97.2135 74.4909 97.2183 74.5264C97.2231 74.562 97.2377 74.5955 97.2604 74.6233C97.2832 74.651 97.3132 74.6719 97.3471 74.6836C97.6474 74.7746 98.0445 74.6623 98.3564 74.6409C98.6682 74.6196 99.0285 74.5925 99.3656 74.579C100.055 74.548 100.749 74.5441 101.438 74.579C102.117 74.6038 102.795 74.6626 103.468 74.7552C103.803 74.7998 104.137 74.854 104.47 74.9141C104.745 74.9625 105.225 75.1581 105.467 74.9741C105.514 74.9445 105.547 74.8985 105.561 74.8453C105.574 74.7921 105.567 74.7357 105.541 74.6874C105.518 74.6443 105.488 74.6061 105.45 74.5751C105.487 74.5035 105.514 74.4273 105.531 74.3484C105.535 74.3417 105.54 74.3352 105.545 74.3291C105.572 74.2777 105.584 74.2203 105.582 74.1625C105.582 74.1218 105.582 74.0811 105.582 74.0404L105.58 73.8971Z" fill="#165960"/>
<path d="M102.275 66.1194C102.275 66.1194 102.252 66.1 102.248 66.1C102.193 66.0768 102.134 66.0631 102.074 66.0593C101.88 66.0458 101.671 66.04 101.469 66.038C101.268 66.0361 101.049 66.038 100.84 66.0477C100.756 66.0497 100.672 66.0575 100.59 66.071C100.561 66.071 100.532 66.0826 100.503 66.0884C100.531 66.21 100.548 66.3338 100.555 66.4584C100.565 66.5397 100.572 66.6211 100.58 66.7025L101.115 66.7373C101.508 66.7606 101.903 66.7606 102.296 66.7373C102.308 66.6637 102.318 66.5882 102.327 66.5165C102.337 66.4448 102.353 66.3228 102.376 66.2163C102.339 66.187 102.306 66.1545 102.275 66.1194V66.1194ZM107.176 66.224C107.228 67.0298 107.242 67.9674 106.777 68.6686C106.753 68.7041 106.721 68.7338 106.683 68.7556C106.646 68.7774 106.605 68.7907 106.562 68.7945C106.068 69.5229 104.751 69.366 104.011 69.3757C102.881 69.3931 101.752 69.3989 100.621 69.4028C99.5341 69.4028 98.4183 69.4686 97.3278 69.3253C96.8194 69.286 96.3231 69.1506 95.8652 68.9262C95.4294 68.6764 95.3693 68.2638 95.3442 67.8027C95.2783 66.6695 95.166 65.5189 95.1969 64.3838C95.2002 64.3313 95.2211 64.2815 95.2563 64.2424C95.2914 64.2034 95.3388 64.1774 95.3907 64.1687C95.3325 63.8666 95.7335 63.7232 95.9718 63.6496C96.3872 63.5199 96.8095 63.4132 97.2367 63.33C98.7852 63.0475 100.359 62.9248 101.932 62.9639C102.721 62.9639 103.507 63.0046 104.294 63.051C105.008 63.0937 105.77 63.082 106.461 63.2951C106.486 63.2608 106.519 63.2339 106.558 63.2174C106.597 63.2009 106.639 63.1954 106.681 63.2017C106.723 63.2079 106.762 63.2255 106.794 63.2526C106.826 63.2797 106.851 63.3152 106.864 63.3552C107.013 63.822 107.017 64.3644 107.058 64.8525C107.104 65.3116 107.147 65.7668 107.176 66.224V66.224ZM106.558 67.2913C106.589 66.8955 106.589 66.4978 106.558 66.102C106.558 66.0807 106.558 66.0593 106.558 66.038C106.358 66.1689 106.146 66.2799 105.925 66.3693C105.711 66.4681 105.51 66.5785 105.293 66.6695C104.851 66.8634 104.398 67.0315 103.937 67.1732C103.605 67.2666 103.266 67.3358 102.924 67.3804V67.5257C102.948 67.7051 102.948 67.8868 102.924 68.0662C102.904 68.1448 102.855 68.213 102.787 68.2572C102.718 68.3013 102.636 68.3182 102.556 68.3044C102.339 68.4229 102.105 68.506 101.862 68.5505L101.764 68.0255C101.818 68.022 101.871 68.0156 101.924 68.0061C102.027 67.9848 102.132 67.9596 102.234 67.9345C102.226 67.7925 102.226 67.6502 102.234 67.5083C102.234 67.487 102.234 67.4657 102.234 67.4424C101.861 67.4647 101.486 67.4647 101.113 67.4424L100.629 67.4076C100.642 67.5858 100.656 67.7621 100.665 67.9403L100.171 67.9829C100.152 67.7776 100.135 67.5742 100.117 67.3688C99.505 67.3204 98.891 67.2603 98.2827 67.1751C97.4589 67.094 96.6486 66.9091 95.8711 66.625C95.8962 67.0124 95.9175 67.3843 95.9447 67.7621C95.9563 67.9383 95.933 68.196 96.0706 68.3316C96.2352 68.4544 96.4274 68.5349 96.6304 68.566C97.0955 68.682 97.5713 68.7501 98.0503 68.7693C99.0324 68.8294 100.018 68.8255 101.002 68.8313H101.285C102.192 68.8313 103.1 68.8313 104.009 68.8081C104.464 68.7984 104.927 68.8081 105.382 68.7713C105.696 68.7442 106.041 68.6628 106.211 68.3703C106.234 68.3299 106.267 68.2959 106.306 68.2715C106.435 67.9579 106.52 67.6281 106.558 67.2913V67.2913ZM106.44 65.763C106.473 65.7571 106.507 65.7618 106.537 65.7765C106.515 65.4375 106.49 65.0985 106.467 64.7596C106.45 64.4806 106.42 64.1881 106.417 63.8995H106.384C105.942 63.7767 105.486 63.7116 105.028 63.7058C104.574 63.6767 104.121 63.6477 103.672 63.6244C102.734 63.5741 101.797 63.5314 100.857 63.5334C99.9186 63.5272 98.981 63.5919 98.0522 63.7271C97.6086 63.7949 97.167 63.8821 96.7292 63.9828C96.4967 64.037 96.2604 64.0932 96.0318 64.1649C95.9027 64.2128 95.7766 64.2684 95.6541 64.3315C95.7413 64.8932 95.7955 65.4627 95.8362 66.0342C96.6846 66.1969 97.5176 66.3983 98.3757 66.5049C98.9375 66.5727 99.5012 66.625 100.065 66.6695C100.065 66.594 100.065 66.5184 100.053 66.4429C100.028 66.2894 100.045 66.1318 100.104 65.9877C100.086 65.9562 100.08 65.9195 100.087 65.8841C100.093 65.8487 100.112 65.8167 100.14 65.794C100.184 65.7402 100.235 65.6932 100.292 65.6545C100.345 65.627 100.402 65.6062 100.46 65.5925C100.588 65.5642 100.717 65.5448 100.847 65.5344C101.092 65.5111 101.339 65.4976 101.585 65.4918C101.841 65.4694 102.097 65.4831 102.349 65.5325C102.542 65.5867 102.794 65.7765 102.788 66.0012C102.802 66.0174 102.813 66.0357 102.821 66.0555C102.87 66.2174 102.891 66.3863 102.883 66.5552C102.883 66.5998 102.883 66.6424 102.883 66.685C103.206 66.6457 103.526 66.5875 103.842 66.5107C104.278 66.4061 104.724 66.2937 105.146 66.1504C105.34 66.0826 105.553 66.038 105.752 65.9702C105.975 65.8804 106.205 65.811 106.44 65.763V65.763Z" fill="#1E1E1E"/>
<path d="M106.558 66.102C106.589 66.4979 106.589 66.8955 106.558 67.2914C106.519 67.6241 106.435 67.9499 106.308 68.2599C106.269 68.2843 106.236 68.3183 106.213 68.3587C106.043 68.6512 105.698 68.7326 105.384 68.7597C104.929 68.8004 104.466 68.7868 104.011 68.7965C103.102 68.812 102.194 68.8256 101.287 68.8197V68.6105C101.334 68.6105 101.378 68.6105 101.425 68.6105C101.569 68.5992 101.713 68.5785 101.855 68.5485C102.097 68.5041 102.332 68.421 102.548 68.3025C102.628 68.3163 102.711 68.2994 102.779 68.2553C102.847 68.2111 102.896 68.1429 102.916 68.0643C102.94 67.8849 102.94 67.7032 102.916 67.5238V67.3785C103.258 67.3339 103.597 67.2647 103.929 67.1713C104.391 67.0296 104.843 66.8614 105.285 66.6676C105.502 66.5766 105.704 66.4739 105.917 66.3674C106.138 66.278 106.35 66.167 106.55 66.0361C106.556 66.0594 106.558 66.0807 106.558 66.102Z" fill="#165960"/>
<path d="M106.537 65.7787C106.507 65.764 106.473 65.7592 106.44 65.7652C106.205 65.8132 105.975 65.8826 105.752 65.9724C105.559 66.0402 105.348 66.0848 105.146 66.1526C104.724 66.2959 104.278 66.4083 103.842 66.5129C103.526 66.5897 103.206 66.6479 102.884 66.6872C102.884 66.6446 102.884 66.602 102.884 66.5574C102.891 66.3885 102.87 66.2195 102.822 66.0577C102.814 66.0379 102.803 66.0196 102.789 66.0034C102.789 65.7787 102.546 65.5889 102.349 65.5346C102.098 65.4852 101.841 65.4716 101.586 65.494C101.34 65.494 101.092 65.5133 100.848 65.5366C100.717 65.547 100.588 65.5664 100.46 65.5947C100.402 65.6084 100.345 65.6292 100.292 65.6567C100.235 65.6954 100.184 65.7424 100.141 65.7961C100.113 65.8189 100.094 65.8508 100.087 65.8863C100.08 65.9217 100.086 65.9584 100.104 65.9899C100.045 66.134 100.028 66.2916 100.053 66.4451C100.053 66.5206 100.053 66.5962 100.065 66.6717C99.5014 66.6272 98.9377 66.5749 98.3759 66.5071C97.5178 66.4005 96.6848 66.1991 95.8364 66.0363C95.7957 65.4649 95.7415 64.8954 95.6543 64.3336C95.7768 64.2706 95.9029 64.215 96.032 64.1671C96.2606 64.0954 96.4969 64.0392 96.7294 63.985C97.1672 63.8842 97.6088 63.7913 98.0524 63.7293C98.9812 63.5941 99.9188 63.5294 100.857 63.5356C101.797 63.5356 102.734 63.5762 103.672 63.6266C104.125 63.6499 104.578 63.6789 105.028 63.708C105.486 63.7138 105.942 63.7789 106.384 63.9017H106.417C106.417 64.1903 106.45 64.4828 106.467 64.7617C106.49 65.0988 106.516 65.4378 106.537 65.7787Z" fill="#165960"/>
<path d="M102.548 45.8556C103.601 46.2251 104.485 46.9626 105.037 47.9322C105.78 49.2075 106.26 50.6181 106.45 52.0815C106.653 53.5601 106.595 55.0629 106.277 56.5213C105.975 57.9141 105.434 59.3785 104.511 60.4826C104.074 60.9886 103.522 61.382 102.901 61.6295C102.28 61.8769 101.609 61.9713 100.944 61.9045C99.5881 61.7847 98.3345 61.1328 97.4575 60.0914C95.4003 57.6661 95.5088 54.3053 96.1752 51.3744C96.5103 49.9022 96.888 48.3448 97.9282 47.1961C98.7607 46.2732 99.9056 45.6915 101.142 45.5631L101.336 45.5496C101.39 45.5466 101.444 45.5466 101.498 45.5496C101.543 45.5496 101.585 45.5496 101.628 45.5612C101.676 45.5827 101.714 45.6196 101.739 45.6658C102.014 45.7003 102.286 45.7639 102.548 45.8556ZM100.4 46.3903C99.4528 46.7132 98.6367 47.3361 98.0755 48.1647C97.6799 48.8165 97.3909 49.5273 97.2193 50.2703C97.0023 51.0974 96.8144 51.9401 96.6808 52.7885C96.2759 55.33 96.5277 58.3034 98.6179 60.0817C99.0544 60.4463 99.5596 60.7199 100.103 60.8862C100.647 61.0525 101.219 61.1083 101.785 61.0502C103.023 60.9262 103.916 60.1301 104.497 59.0821C105.81 56.7673 106.142 53.9198 105.568 51.3338C105.316 50.0882 104.842 48.7749 104.026 47.7637C103.629 47.2533 103.099 46.8625 102.494 46.6344C102.312 46.5687 102.126 46.5175 101.936 46.4813C101.742 46.4465 101.558 46.429 101.37 46.4058C101.155 46.3784 100.938 46.3654 100.722 46.367C100.675 46.367 100.631 46.3496 100.584 46.3438C100.573 46.3408 100.562 46.3369 100.551 46.3322L100.4 46.3903Z" fill="#1E1E1E"/>
<path d="M100.721 46.3727C100.938 46.3711 101.155 46.384 101.37 46.4114C101.564 46.4347 101.758 46.4521 101.936 46.487C102.126 46.5232 102.312 46.5743 102.494 46.64C103.099 46.8681 103.629 47.259 104.026 47.7693C104.842 48.7747 105.31 50.0939 105.587 51.3433C106.169 53.9235 105.83 56.7671 104.516 59.0917C103.921 60.1396 103.034 60.9358 101.804 61.0597C101.238 61.1178 100.667 61.0621 100.123 60.8957C99.5788 60.7294 99.0737 60.4558 98.6371 60.0912C96.5412 58.3129 96.2893 55.3395 96.7 52.798C96.8337 51.9515 97.0216 51.1089 97.2385 50.2798C97.4101 49.5369 97.6991 48.8261 98.0947 48.1742C98.6559 47.3457 99.472 46.7227 100.419 46.3998C100.506 46.3804 100.615 46.3746 100.721 46.3727Z" fill="#165960"/>
<path d="M105.51 73.3972C105.551 73.4224 105.586 73.4561 105.613 73.4961C105.639 73.5361 105.657 73.5814 105.665 73.6288C105.672 73.6763 105.669 73.7249 105.656 73.7711C105.643 73.8174 105.621 73.8604 105.589 73.897V74.0248C105.589 74.0655 105.589 74.1062 105.589 74.1469C105.592 74.2047 105.579 74.2621 105.553 74.3135C105.548 74.3196 105.543 74.3261 105.539 74.3328C105.522 74.4117 105.495 74.4879 105.458 74.5595L105.097 74.3987L105.08 74.2922C105.055 74.243 105.045 74.1881 105.049 74.1333C105.049 74.0946 105.049 74.0558 105.061 74.0171C105.072 73.9783 105.061 73.9551 105.061 73.9222C104.84 73.8158 104.603 73.7502 104.359 73.7285C104.026 73.6897 103.693 73.6568 103.362 73.6219C102.717 73.5561 102.07 73.4999 101.425 73.4708C100.78 73.4418 100.104 73.4379 99.4469 73.4708C98.8658 73.4999 98.2692 73.5812 97.6822 73.649C97.6822 73.649 97.6822 73.649 97.6822 73.6607C97.6822 73.7033 97.6958 73.7459 97.7035 73.7885C97.7113 73.8311 97.7171 73.8737 97.7229 73.9164C97.7365 73.9756 97.7365 74.0372 97.7229 74.0965C97.713 74.1263 97.6986 74.1544 97.6803 74.1798L97.2929 74.1895C97.2821 74.1781 97.2724 74.1658 97.2638 74.1527C97.237 74.0991 97.2225 74.0402 97.2212 73.9803C97.2212 73.9377 97.2212 73.895 97.2076 73.8505C97.1941 73.8059 97.2076 73.7653 97.1941 73.7226C97.1902 73.6775 97.1902 73.6322 97.1941 73.587C97.1969 73.528 97.2201 73.4719 97.2599 73.4282C97.2938 73.393 97.3391 73.371 97.3878 73.3662C97.4052 73.3455 97.427 73.3289 97.4517 73.3178C98.7166 72.7948 100.204 72.7812 101.556 72.8393C102.25 72.8684 102.941 72.9284 103.633 72.9943C104.255 73.064 104.954 73.0582 105.51 73.3972Z" fill="#1E1E1E"/>
<path d="M105.537 74.6717C105.564 74.7199 105.571 74.7763 105.557 74.8295C105.543 74.8827 105.51 74.9288 105.464 74.9584C105.222 75.1424 104.741 74.9468 104.466 74.8983C104.133 74.8383 103.8 74.784 103.465 74.7395C102.791 74.6469 102.114 74.588 101.435 74.5632C100.745 74.538 100.052 74.5419 99.3619 74.5632C99.0249 74.5768 98.6878 74.602 98.3527 74.6252C98.0176 74.6485 97.6437 74.7589 97.3435 74.6678C97.3096 74.6561 97.2796 74.6353 97.2568 74.6075C97.2341 74.5798 97.2195 74.5463 97.2146 74.5107C97.2098 74.4752 97.215 74.439 97.2295 74.4062C97.2441 74.3734 97.2674 74.3453 97.297 74.325C97.3202 74.3095 97.3454 74.2978 97.3706 74.2843C97.36 74.2747 97.3509 74.2636 97.3435 74.2513C97.3435 74.2417 97.3299 74.232 97.3241 74.2203C97.3122 74.211 97.3012 74.2007 97.2912 74.1894L97.6786 74.1797C97.8956 74.1371 98.1319 74.1254 98.3237 74.0983C98.6665 74.048 99.0113 74.015 99.3581 73.9879C100.063 73.934 100.771 73.9217 101.477 73.9511C102.195 73.9798 102.911 74.0445 103.622 74.1448C103.957 74.1913 104.29 74.2455 104.621 74.3114C104.751 74.3366 104.921 74.354 105.082 74.3908L105.442 74.5516C105.482 74.5845 105.515 74.6254 105.537 74.6717V74.6717Z" fill="#1E1E1E"/>
<path d="M105.069 74.3019L105.086 74.4085C104.925 74.3716 104.755 74.3542 104.625 74.329C104.294 74.2632 103.96 74.2089 103.625 74.1624C102.914 74.0621 102.199 73.9975 101.481 73.9687C100.775 73.9393 100.067 73.9516 99.3618 74.0055C99.0151 74.0327 98.6703 74.0656 98.3274 74.116C98.1337 74.1431 97.8993 74.1547 97.6824 74.1973C97.7007 74.1719 97.7151 74.1438 97.725 74.114C97.7386 74.0547 97.7386 73.9931 97.725 73.9339C97.725 73.8913 97.7114 73.8486 97.7056 73.806C97.6998 73.7634 97.692 73.7208 97.6843 73.6782C97.6843 73.6782 97.6843 73.6782 97.6843 73.6665C98.2654 73.5987 98.8582 73.5174 99.449 73.4883C100.106 73.4554 100.768 73.4573 101.427 73.4883C102.085 73.5193 102.721 73.5736 103.364 73.6394C103.695 73.6743 104.028 73.7072 104.361 73.746C104.605 73.7677 104.843 73.8333 105.063 73.9397C105.063 73.9726 105.063 74.0036 105.063 74.0346C105.063 74.0656 105.063 74.1121 105.051 74.1508C105.044 74.2018 105.05 74.2539 105.069 74.3019V74.3019Z" fill="#FF5200"/>
<path d="M103.459 37.125C103.489 37.3562 103.497 37.5896 103.484 37.8223C103.484 37.925 103.471 38.0296 103.457 38.1323C103.457 38.1942 103.443 38.2485 103.441 38.2989C102.63 38.3628 101.814 38.388 101.001 38.3725C101.026 38.1129 101.001 37.8456 101.016 37.586C101.016 37.4659 101.028 37.3439 101.039 37.2238C101.039 37.185 101.039 37.0669 101.07 37.0301C101.101 36.9932 101.189 36.9932 101.239 36.9855C101.359 36.9661 101.479 36.9545 101.599 36.9448C101.845 36.9232 102.091 36.9161 102.337 36.9235C102.565 36.9293 102.791 36.9507 103.015 36.9874C103.141 37.0068 103.267 37.0281 103.403 37.0533C103.421 37.0572 103.439 37.0623 103.457 37.0688C103.459 37.0874 103.46 37.1062 103.459 37.125V37.125Z" fill="#FF5200"/>
<path d="M102.411 45.7917C102.458 45.8106 102.505 45.832 102.55 45.8556C102.283 45.7682 102.007 45.7098 101.727 45.6813C101.703 45.635 101.664 45.5982 101.616 45.5767C101.723 45.5939 101.829 45.6178 101.932 45.6483C102.094 45.6873 102.254 45.7351 102.411 45.7917V45.7917Z" fill="#1E1E1E"/>
<path d="M102.376 66.2185C102.353 66.3173 102.341 66.4122 102.327 66.5187C102.314 66.6253 102.308 66.6659 102.296 66.7395C101.903 66.7628 101.508 66.7628 101.115 66.7395L100.58 66.7047C100.58 66.6233 100.565 66.542 100.555 66.4606C100.548 66.336 100.531 66.2122 100.503 66.0906C100.532 66.0906 100.561 66.0771 100.59 66.0732C100.673 66.0597 100.756 66.0519 100.84 66.0499C101.049 66.0499 101.258 66.0383 101.469 66.0403C101.68 66.0422 101.872 66.0403 102.074 66.0616C102.134 66.0653 102.193 66.079 102.248 66.1022C102.248 66.1022 102.273 66.1216 102.275 66.1216C102.306 66.1568 102.34 66.1892 102.376 66.2185V66.2185Z" fill="#FF5200"/>
<path d="M102.236 67.4428C102.236 67.466 102.236 67.4873 102.236 67.5086C102.227 67.6505 102.227 67.7929 102.236 67.9348C102.134 67.96 102.029 67.9852 101.926 68.0065C101.873 68.0159 101.819 68.0224 101.766 68.0258C101.655 68.0316 101.545 68.0316 101.434 68.0258C101.273 68.0233 101.112 68.0103 100.952 67.9871C100.865 67.9716 100.78 67.9503 100.694 67.9328H100.677C100.677 67.7546 100.654 67.5784 100.64 67.4001L101.124 67.435C101.495 67.4594 101.866 67.462 102.236 67.4428V67.4428Z" fill="#FF5200"/>
<path d="M102 39.0466C102.107 39.6534 102.058 40.2774 101.857 40.8598C101.669 41.3582 101.408 41.8257 101.082 42.2467H100.363H100.028C100.399 41.7846 100.732 41.2936 101.024 40.7784C101.213 40.4321 101.381 40.0744 101.526 39.7072C101.622 39.5043 101.682 39.2859 101.702 39.0621L102 39.0466Z" fill="#FF5200"/>
<path d="M101.756 68.0256L101.855 68.5505C101.713 68.5805 101.569 68.6012 101.425 68.6125C101.378 68.6125 101.334 68.6125 101.287 68.6125C101.118 68.6093 100.949 68.5924 100.782 68.5621C100.548 68.549 100.327 68.448 100.164 68.2793C100.136 68.2365 100.123 68.1859 100.126 68.135C100.129 68.0841 100.148 68.0356 100.181 67.9965C100.181 67.9868 100.181 67.9791 100.181 67.9694L100.675 67.9268H100.693C100.778 67.9442 100.863 67.9655 100.95 67.981C101.11 68.0042 101.271 68.0172 101.433 68.0197C101.54 68.0272 101.648 68.0292 101.756 68.0256V68.0256Z" fill="#1E1E1E"/>
<path d="M101.287 68.6185V68.8277H101.004C100.02 68.8277 99.0344 68.8277 98.0523 68.7657C97.5733 68.7465 97.0975 68.6783 96.6324 68.5623C96.4294 68.5312 96.2372 68.4507 96.0726 68.3279C95.935 68.1923 95.9583 67.9405 95.9467 67.7584C95.9195 67.371 95.8982 67.001 95.873 66.6213C96.6506 66.9055 97.4609 67.0903 98.2847 67.1715C98.893 67.2509 99.507 67.3109 100.119 67.3652C100.137 67.5705 100.154 67.7739 100.173 67.9792C100.173 67.9889 100.173 67.9967 100.173 68.0064C100.141 68.0454 100.121 68.094 100.118 68.1449C100.115 68.1958 100.128 68.2464 100.156 68.2892C100.319 68.4579 100.54 68.5589 100.774 68.572C100.943 68.6014 101.115 68.6169 101.287 68.6185V68.6185Z" fill="#165960"/>
<path d="M100.584 46.3495C100.63 46.3495 100.675 46.365 100.721 46.3728C100.615 46.3728 100.506 46.3728 100.4 46.3902L100.551 46.3379C100.562 46.3426 100.573 46.3465 100.584 46.3495V46.3495Z" fill="#165960"/>
<path d="M98.2518 38.8316C98.2518 38.8742 98.2324 38.9207 98.2247 38.9672C98.1846 39.1788 98.1196 39.3849 98.031 39.5812C97.86 39.9366 97.6453 40.2691 97.3917 40.5711C96.6469 41.4876 95.6948 42.2138 94.6139 42.6897C93.5331 43.1656 92.3545 43.3776 91.1756 43.3082C90.7104 43.2844 90.2482 43.2196 89.7945 43.1145C89.3567 43.0099 88.9324 42.8569 88.4985 42.7406C88.886 40.5227 89.2734 38.3066 89.6414 36.0887C89.6493 36.051 89.6493 36.0121 89.6414 35.9744L89.6685 35.9899C90.0792 36.2359 90.5131 36.449 90.9276 36.6543C91.7175 37.0402 92.5278 37.3829 93.3548 37.6809C94.9414 38.238 96.5831 38.6238 98.2518 38.8316V38.8316Z" fill="#165960"/>
<path d="M93.9243 80.8724C93.965 80.9653 94.0056 81.0661 94.0521 81.1532L93.471 81.1048L93.01 81.0622C92.9325 80.8975 92.855 80.7329 92.7853 80.5663C92.6439 80.2331 92.5218 79.8941 92.4134 79.5493C92.1862 78.8396 92.0267 78.1099 91.9368 77.3701C91.7583 75.9089 91.8383 74.4277 92.1732 72.9942C92.2661 72.5913 92.3824 72.1922 92.5122 71.8009C92.578 71.5982 92.6497 71.3967 92.7272 71.1966C92.7937 71.0525 92.845 70.9019 92.8802 70.7472C93.134 70.7472 93.3897 70.7336 93.655 70.7297C93.4311 71.3717 93.2816 72.0372 93.2095 72.7133C93.1066 73.5129 93.0645 74.3191 93.0836 75.125C93.0972 75.9212 93.1553 76.7173 93.2405 77.5076C93.3062 78.2564 93.4149 79.0009 93.5659 79.7372C93.6502 80.1258 93.7702 80.5058 93.9243 80.8724V80.8724Z" fill="#FF5200"/>
<path d="M93.341 90.2052L93.7788 90.2265C93.7745 90.2811 93.7674 90.3354 93.7575 90.3892C93.7523 90.4162 93.7395 90.4411 93.7207 90.461C93.7018 90.4809 93.6776 90.495 93.6509 90.5015C93.6548 90.535 93.6548 90.5688 93.6509 90.6023C93.5775 90.9865 93.5251 91.3745 93.494 91.7645C93.4785 91.9679 93.4708 92.1694 93.4688 92.3708C93.4814 92.5788 93.4644 92.7875 93.4185 92.9907C93.4017 93.0363 93.3725 93.0762 93.3341 93.106C93.2958 93.1358 93.2498 93.1543 93.2015 93.1592C93.1776 93.1961 93.1445 93.226 93.1055 93.2461C93.0665 93.2662 93.0229 93.2757 92.979 93.2738C92.9352 93.2718 92.8926 93.2584 92.8555 93.2349C92.8184 93.2115 92.7881 93.1787 92.7676 93.1399C92.4071 92.3408 92.1468 91.5001 91.9928 90.6371C91.6771 89.1133 91.547 87.5568 91.6053 86.0017C91.6316 85.2261 91.7067 84.453 91.83 83.6869C91.9258 83.0305 92.0735 82.3828 92.2717 81.7498L92.7734 81.9125C92.6417 82.6292 92.4848 83.3401 92.386 84.0665C92.1965 85.5524 92.1783 87.0551 92.3317 88.5451C92.4051 89.2922 92.5234 90.0341 92.6862 90.7669C92.7463 91.0323 92.816 91.2958 92.8799 91.5573C92.9045 91.1792 92.9543 90.8032 93.0291 90.4318C93.0482 90.3645 93.0893 90.3056 93.1458 90.2645C93.2024 90.2234 93.2711 90.2025 93.341 90.2052V90.2052Z" fill="#1E1E1E"/>
<path d="M93.1513 89.2933C93.1841 89.6033 93.249 89.909 93.345 90.2056C93.2762 90.2048 93.2091 90.2268 93.1541 90.2682C93.0991 90.3095 93.0593 90.3679 93.0409 90.4342C92.9661 90.8056 92.9163 91.1816 92.8917 91.5597C92.8201 91.2981 92.7503 91.0347 92.698 90.7693C92.5323 90.0393 92.4107 89.2999 92.3339 88.5552C92.1804 87.0652 92.1986 85.5625 92.3881 84.0767C92.483 83.3502 92.6399 82.6393 92.7755 81.9226C92.8114 81.9486 92.8528 81.9659 92.8965 81.9733C92.9401 81.9807 92.9849 81.9779 93.0273 81.9652C92.8769 82.3694 92.7988 82.7969 92.7968 83.2282C92.7639 84.0282 92.7813 84.8341 92.8162 85.6321C92.8511 86.4302 92.9111 87.2748 93.0099 88.0903C93.039 88.4932 93.0932 88.8942 93.1513 89.2933Z" fill="#FF5200"/>
<path d="M93.3779 70.0402C93.0893 70.0402 92.7968 70.0518 92.514 70.0615C91.4428 70.0925 90.3677 70.1158 89.3003 70.2145C88.9517 70.2475 88.5894 70.2901 88.2291 70.356C88.1497 68.7908 88.0587 67.2275 87.9715 65.6624C87.9289 64.8875 87.8901 64.1282 87.8417 63.3611L87.8301 63.1577C88.1563 63.9209 88.5383 64.659 88.973 65.366C90.1068 67.2084 91.6059 68.7992 93.3779 70.0402Z" fill="#165960"/>
<path d="M91.9892 70.7686H92.2778C92.1797 70.9671 92.0924 71.1708 92.0163 71.3787C91.8669 71.7381 91.7376 72.1054 91.6289 72.479C91.4148 73.242 91.2734 74.0236 91.2066 74.8132C91.0743 76.3777 91.2286 77.9531 91.6618 79.4622C91.7789 79.8732 91.9186 80.2774 92.0802 80.6729C92.1228 80.7795 92.1693 80.8821 92.2158 80.9867C91.6018 80.9267 90.9896 80.8647 90.3756 80.793C89.8545 80.7388 89.3315 80.6826 88.8104 80.6226C88.2893 80.5625 87.7624 80.4695 87.2394 80.5722C87.2214 80.5778 87.2039 80.5849 87.1871 80.5935C87.1403 80.4207 87.084 80.2507 87.0186 80.084C86.9489 79.8903 86.8791 79.6773 86.8133 79.4719C86.6777 79.0632 86.5459 78.6506 86.4258 78.2361C86.1798 77.4008 86.0188 76.5428 85.9454 75.6752C85.8774 74.8985 85.9185 74.116 86.0675 73.3507C86.1412 72.9855 86.2415 72.6262 86.3677 72.2756C86.4331 72.0961 86.5095 71.9208 86.5963 71.7507C86.6254 71.6906 86.6602 71.6306 86.6912 71.5724C86.7248 71.5151 86.7515 71.454 86.7707 71.3904C87.5629 71.1232 88.3843 70.9516 89.2172 70.879C90.1373 70.815 91.0652 70.7976 91.9892 70.7686Z" fill="#165960"/>
<path d="M90.3619 50.1715C90.3515 50.8491 90.2868 51.5247 90.1682 52.1919C89.9944 53.1051 89.7416 54.0015 89.4127 54.8709C89.0834 55.7542 88.6902 56.6143 88.2853 57.4628C88.0761 57.9005 87.863 58.3383 87.6519 58.7761C87.5376 59.0105 87.4039 59.2546 87.2877 59.5025C87.2761 59.4405 87.2606 59.3805 87.247 59.3204C87.0049 58.057 86.8837 56.7734 86.8848 55.4869C86.8848 54.8574 86.908 54.2298 86.9526 53.6002C86.9797 53.236 87.0126 52.8699 87.0533 52.5057C87.3206 50.0824 87.6809 47.663 88.0742 45.2629C88.942 46.4406 89.618 47.7482 90.0771 49.1371C90.1895 49.4761 90.2805 49.8229 90.3619 50.1715Z" fill="#165960"/>
<path d="M89.9456 35.502L89.6685 35.9862L89.6414 35.9707C89.6493 36.0084 89.6493 36.0473 89.6414 36.085C89.2734 38.303 88.8802 40.519 88.4985 42.737L88.4114 43.2542C88.3397 43.6746 88.268 44.093 88.1983 44.5153L87.6288 44.4223C87.7696 43.5622 87.9155 42.7015 88.0666 41.8401C87.9647 41.7977 87.8674 41.7452 87.776 41.6832L87.3189 41.4159C87.0748 41.2726 86.7377 41.1428 86.6351 40.8619C86.5324 40.581 86.7494 40.2808 86.8927 40.0348C87.0593 39.7442 87.2239 39.4536 87.3828 39.1553C87.703 38.5639 88.0072 37.964 88.2952 37.3558C88.4385 37.0536 88.5838 36.7514 88.7233 36.4453C88.8241 36.1578 88.9615 35.8843 89.132 35.6318C89.0681 35.5833 89.0022 35.5349 88.9383 35.4826L89.438 35.2385C89.6104 35.3218 89.777 35.4129 89.9456 35.502ZM88.7155 38.0996C88.5644 38.4096 88.4088 38.7175 88.2487 39.0236C87.9723 39.5505 87.6837 40.0716 87.3828 40.5868L87.3595 40.6236L87.4235 40.6663L87.7973 40.8852C87.9135 40.953 88.0608 41.0188 88.1964 41.1002C88.3746 40.0993 88.5476 39.0992 88.7155 38.0996V38.0996Z" fill="#1E1E1E"/>
<path d="M88.2485 39.0236C88.4099 38.7175 88.5655 38.4095 88.7153 38.0996C88.5449 39.0992 88.3718 40.0993 88.1962 41.1002C88.0606 41.0188 87.9134 40.953 87.7972 40.8852L87.4233 40.6663L87.3594 40.6236L87.3826 40.5868C87.6835 40.0767 87.9721 39.5557 88.2485 39.0236Z" fill="#FF5200"/>
<path d="M87.5996 70.5167L87.5531 70.5302C87.5221 70.4586 87.4873 70.3869 87.4543 70.3152C87.3672 70.1215 87.2839 69.9278 87.2064 69.7186C87.065 69.3486 86.9275 68.9767 86.819 68.597C86.578 67.8225 86.3877 67.0331 86.2495 66.2338C86.1662 65.7689 86.0984 65.3001 86.0383 64.8313C86.1119 65.0599 86.1856 65.2865 86.2611 65.5151C86.4548 66.0827 86.635 66.6522 86.8287 67.2197C86.9313 67.5161 87.0224 67.8202 87.1386 68.1127C87.1948 68.2541 87.2529 68.3956 87.3188 68.5331C87.3684 68.6305 87.4267 68.7232 87.4931 68.8101C87.5183 69.3292 87.5415 69.8503 87.5686 70.3695C87.5671 70.4203 87.5777 70.4708 87.5996 70.5167Z" fill="#FF5200"/>
<path d="M87.344 65.7187L87.3905 66.7899C87.2859 66.4684 87.1832 66.1468 87.0767 65.8214C86.7331 64.8547 86.4408 63.8706 86.2011 62.8731C85.7961 60.9974 85.7247 59.065 85.99 57.1645C86.0674 56.6182 86.1837 56.0778 86.298 55.5393C86.298 55.5083 86.3154 55.4792 86.3212 55.4482V55.4909C86.3162 56.6045 86.4011 57.7168 86.575 58.8168C86.7147 59.6901 86.916 60.5523 87.1774 61.3971C87.1445 62.0499 87.2103 62.7162 87.2374 63.3671C87.2684 64.1516 87.3014 64.9342 87.344 65.7187Z" fill="#165960"/>
<path d="M87.1966 80.6032L87.185 80.9577C87.1536 81.0054 87.1111 81.0447 87.0612 81.0725C87.0113 81.1002 86.9555 81.1155 86.8984 81.117C86.8414 81.1185 86.7848 81.1062 86.7335 81.0812C86.6822 81.0562 86.6378 81.0191 86.6039 80.9732C86.4776 80.761 86.3854 80.5302 86.3307 80.2894C86.2513 80.055 86.1738 79.8226 86.0983 79.5863C85.9569 79.1485 85.8251 78.7049 85.7108 78.2574C85.4721 77.374 85.3241 76.4686 85.2692 75.5552C85.2274 74.7334 85.309 73.91 85.5113 73.1125C85.6125 72.7291 85.7513 72.3566 85.9259 72.0006C85.9995 71.8514 86.0808 71.6577 86.1874 71.4834L86.6968 71.5725C86.6658 71.6306 86.631 71.6907 86.6019 71.7507C86.5151 71.9209 86.4387 72.0962 86.3733 72.2757C86.2471 72.6262 86.1468 72.9855 86.0731 73.3508C85.9241 74.1161 85.883 74.8985 85.9511 75.6753C86.0288 76.5467 86.195 77.408 86.4469 78.2458C86.5632 78.6603 86.6949 79.0729 86.8344 79.4817C86.9002 79.687 86.97 79.8904 87.0397 80.0938C87.1012 80.2606 87.1536 80.4307 87.1966 80.6032V80.6032Z" fill="#1E1E1E"/>
<path d="M86.3931 53.5632L86.9568 53.6C86.9122 54.2296 86.889 54.8572 86.889 55.4868H86.3214V55.4441L85.8081 55.2892C85.8217 55.2408 85.8372 55.1904 85.8527 55.142C85.9721 54.7003 86.1465 54.2753 86.3718 53.877C86.3776 53.7686 86.3854 53.6698 86.3931 53.5632Z" fill="#1E1E1E"/>
<path d="M85.4901 69.306C85.5347 69.1859 85.5773 69.0619 85.6199 68.936C85.5487 69.3147 85.4457 69.6866 85.3119 70.0479C85.033 70.8228 84.6707 71.5802 84.3937 72.3628C84.0871 73.2034 83.9355 74.0927 83.9463 74.9875C83.956 75.5687 84.0102 76.1498 84.0586 76.7309C83.8728 76.348 83.7361 75.9432 83.6518 75.526C83.4581 74.449 83.7816 73.3449 84.169 72.3492C84.572 71.3225 85.1066 70.3482 85.4901 69.306Z" fill="#FF5200"/>
<path d="M148.84 55.0094C148.453 54.8738 146.911 54.8861 144.215 55.0462C144.079 57.0789 144.028 58.3981 144.062 59.0037C144.112 59.8212 144.108 60.9666 144.05 62.4401L142.694 62.3898C142.744 60.9757 142.748 59.8722 142.706 59.0793C142.663 58.4336 142.709 57.1189 142.845 55.1353C142.229 55.178 141.622 55.2244 141.024 55.2748L140.91 53.9188C142.107 53.8181 143.346 53.7342 144.627 53.667C147.273 53.5237 148.845 53.5527 149.342 53.7542L148.84 55.0094ZM148.676 56.1078C149.289 56.7405 149.547 57.6975 149.451 58.9785C149.424 59.4186 149.341 59.8534 149.205 60.2725C149.092 60.6313 148.922 60.9691 148.699 61.2721C148.502 61.5364 148.252 61.7579 147.967 61.9229C147.678 62.0849 147.356 62.1796 147.025 62.1999C146.971 62.2089 146.916 62.2134 146.861 62.2135C146.414 62.2259 145.98 62.068 145.646 61.7718C145.1 61.2824 144.801 60.4017 144.749 59.1296C144.707 58.0332 144.869 57.1486 145.235 56.4758C145.602 55.803 146.11 55.453 146.76 55.4259C147.11 55.3929 147.462 55.4369 147.793 55.5547C148.124 55.6725 148.425 55.8612 148.676 56.1078ZM148.095 58.8759C148.16 58.0081 148.031 57.4056 147.707 57.0686C147.603 56.9731 147.481 56.8993 147.348 56.8518C147.215 56.8042 147.073 56.7837 146.932 56.7916H146.843C146.65 56.7916 146.456 57.0163 146.318 57.4424C146.159 57.9679 146.098 58.518 146.136 59.0657C146.169 59.9587 146.316 60.5205 146.578 60.7471C146.629 60.7875 146.688 60.8172 146.751 60.8345C146.814 60.8518 146.879 60.8564 146.944 60.8478C147.16 60.8332 147.363 60.7386 147.513 60.5825C147.68 60.4139 147.803 60.208 147.874 59.982C147.943 59.7816 148 59.5771 148.044 59.3698C148.072 59.2065 148.089 59.0415 148.095 58.8759Z" fill="#F2F2F2"/>
<path d="M159.33 55.1992C159.027 55.0804 157.957 55.0423 156.12 55.0849C155.976 57.0892 155.926 58.3954 155.969 59.0037C156.019 59.8211 156.015 60.9666 155.955 62.4401L154.599 62.3897C154.657 60.9756 154.661 59.8721 154.611 59.0792C154.568 58.4335 154.615 57.1143 154.75 55.1217C154.041 55.1488 153.348 55.1818 152.664 55.2244L152.575 53.8684C153.35 53.8161 154.138 53.7754 154.94 53.7406C155.742 53.7057 156.684 53.6999 157.759 53.7154C158.834 53.7309 159.531 53.8045 159.843 53.9304L159.33 55.1992ZM160.265 53.7076L161.621 53.758C161.435 58.8461 161.342 61.7317 161.342 62.4149H159.986C159.986 62.0378 160.02 60.8413 160.087 58.8254H158.913V62.4149H157.547V58.8254H157.042V57.4695H157.547V56.129H158.913V57.4695H160.139C160.182 56.2168 160.224 54.9629 160.265 53.7076V53.7076Z" fill="#F2F2F2"/>
<path d="M164.349 61.0125C164.52 60.9935 164.68 60.9179 164.804 60.7975C164.933 60.678 165.038 60.5346 165.114 60.3752C165.188 60.2078 165.247 60.0341 165.29 59.8561C165.336 59.6624 165.365 59.5307 165.379 59.4454C165.389 59.3813 165.395 59.3166 165.396 59.2517L166.752 59.3273C166.724 59.7925 166.621 60.2502 166.448 60.6832C166.279 61.144 165.996 61.5549 165.627 61.8784C165.29 62.1653 164.868 62.3317 164.426 62.3511C164.362 62.3601 164.297 62.3646 164.232 62.3646C163.698 62.3812 163.177 62.1911 162.779 61.8339C162.414 61.503 162.161 61.0651 162.059 60.5825C161.921 59.9596 161.849 59.324 161.844 58.6861C161.823 57.7943 161.954 56.9055 162.231 56.0575C162.566 55.0463 163.067 54.3593 163.734 53.9964C164.451 53.609 165.097 53.5883 165.672 53.9344C165.909 54.0773 166.112 54.2712 166.266 54.502C166.445 54.7637 166.576 55.0548 166.654 55.362C166.74 55.7138 166.782 56.0749 166.78 56.4371C166.78 56.9924 166.299 57.5781 165.338 58.1941C164.826 58.5174 164.29 58.8004 163.734 59.0406C163.556 59.1161 163.397 59.1781 163.254 59.2343C163.304 60.0672 163.459 60.6038 163.721 60.8382C163.899 60.9764 164.125 61.039 164.349 61.0125ZM164.385 55.2109C164.108 55.3543 163.866 55.6642 163.659 56.1408C163.443 56.6586 163.304 57.2056 163.248 57.764C163.543 57.6426 163.83 57.5035 164.108 57.3476C164.798 56.9601 165.228 56.6386 165.396 56.379C165.398 56.1748 165.375 55.9712 165.327 55.7727C165.294 55.6203 165.239 55.4734 165.164 55.3369C165.117 55.2488 165.051 55.1726 164.97 55.1141C164.922 55.0815 164.866 55.064 164.808 55.0637C164.656 55.0751 164.511 55.1259 164.385 55.2109V55.2109Z" fill="#F2F2F2"/>
<path d="M175.963 54.5288C176.099 55.8512 176.163 56.7487 176.157 57.2213C176.157 57.4983 176.141 58.0678 176.107 58.926C176.072 59.7841 176.056 60.3226 176.056 60.5822C176.056 60.7255 176.019 61.2311 175.944 62.0989C175.877 62.9254 175.843 63.389 175.841 63.4898H174.485C174.485 63.3464 174.519 62.8454 174.586 61.9866C174.662 61.1511 174.7 60.6829 174.7 60.5822C174.7 60.3052 174.716 59.7318 174.751 58.864C174.783 58.0285 174.8 57.4809 174.801 57.2213C174.801 56.9928 174.78 56.5976 174.737 56.032C174.644 56.2857 174.578 56.4717 174.543 56.5879C174.382 57.1432 174.154 58.2641 173.86 59.9507C173.831 60.1115 173.747 60.257 173.621 60.3614C173.499 60.464 173.344 60.5202 173.185 60.5202C173.025 60.5202 172.87 60.464 172.748 60.3614C172.625 60.2603 172.54 60.1202 172.508 59.9643C172.17 58.0762 171.901 56.7739 171.7 56.0571C171.682 55.9913 171.653 55.8983 171.611 55.7801C171.603 55.8086 171.598 55.8378 171.597 55.8673C171.573 56.2973 171.56 56.8514 171.56 57.5293C171.56 58.2093 171.572 58.7574 171.597 59.1797C171.614 59.3902 171.673 59.8325 171.775 60.5066C171.886 61.1475 171.957 61.7943 171.99 62.4437H170.625C170.593 61.8594 170.528 61.2774 170.431 60.7004C170.32 59.9914 170.255 59.5065 170.237 59.2456C170.213 58.8078 170.2 58.237 170.198 57.5332C170.198 56.83 170.212 56.2412 170.237 55.7704C170.262 55.4838 170.324 54.9607 170.431 54.2033C170.453 54.0408 170.533 53.892 170.658 53.7849C170.78 53.6778 170.937 53.6198 171.099 53.6222H171.783C171.921 53.6197 172.056 53.6589 172.17 53.7346C172.284 53.8106 172.371 53.9213 172.416 54.0503C172.736 54.8426 172.939 55.383 173.023 55.6697C173.065 55.8382 173.123 56.0785 173.201 56.3903C173.213 56.3247 173.23 56.2599 173.251 56.1966C173.36 55.8092 173.639 55.0886 174.059 54.0348C174.095 53.9493 174.147 53.8721 174.214 53.8078C174.281 53.7435 174.36 53.6935 174.447 53.661C174.533 53.6257 174.625 53.6091 174.718 53.6125C174.811 53.6158 174.902 53.639 174.985 53.6803L175.591 53.9709C175.699 54.02 175.791 54.0982 175.857 54.1968C175.923 54.2954 175.959 54.4104 175.963 54.5288V54.5288Z" fill="#F2F2F2"/>
<path d="M177.102 57.3979C176.884 57.1932 176.712 56.9438 176.599 56.6666C176.485 56.3895 176.433 56.0912 176.446 55.7921C176.438 55.4224 176.514 55.0557 176.666 54.7189C176.796 54.4312 176.996 54.1807 177.248 53.9906C177.472 53.8261 177.719 53.6956 177.982 53.6032C178.221 53.5169 178.473 53.4723 178.728 53.4714H178.739C179.549 53.4714 180.173 53.6903 180.61 54.1281C180.813 54.3416 180.97 54.594 181.073 54.87C181.175 55.146 181.22 55.44 181.205 55.734C181.205 56.5927 180.872 57.2204 180.206 57.6168C179.792 57.8377 179.334 57.9629 178.865 57.9829C178.811 57.9926 178.757 57.9971 178.702 57.9965C178.111 58.0131 177.537 57.7983 177.102 57.3979ZM179.768 58.072L181.124 58.0469C181.16 58.8945 181.138 59.7436 181.06 60.5883C181.03 60.8361 180.95 61.0754 180.826 61.2923C180.703 61.5091 180.537 61.6991 180.339 61.8513C179.895 62.1703 179.357 62.3306 178.811 62.3065C178.645 62.3071 178.48 62.2948 178.317 62.2697C178.134 62.2367 177.956 62.1814 177.786 62.1051C177.366 61.9301 177.028 61.6028 176.839 61.1888C176.705 60.9159 176.616 60.6237 176.573 60.3229C176.488 59.5843 176.462 58.8399 176.498 58.0972L177.854 58.1224C177.828 58.7888 177.85 59.4562 177.918 60.1195C177.928 60.3579 178.02 60.5856 178.177 60.7646C178.357 60.8987 178.58 60.9621 178.803 60.9428C178.965 60.9469 179.127 60.9273 179.283 60.8847C179.386 60.8614 179.479 60.8066 179.549 60.7278C179.589 60.676 179.625 60.6209 179.655 60.5631C179.681 60.5069 179.696 60.4465 179.7 60.3849C179.774 59.6164 179.797 58.8436 179.768 58.072V58.072ZM178.72 54.8235C178.647 54.8247 178.575 54.8331 178.505 54.8487C178.404 54.8748 178.307 54.9112 178.214 54.9572C178.087 55.0205 177.984 55.1249 177.924 55.2536C177.842 55.4183 177.803 55.6007 177.809 55.7843C177.801 55.8951 177.815 56.0064 177.852 56.1112C177.89 56.216 177.948 56.3118 178.024 56.3926C178.121 56.4801 178.236 56.5456 178.36 56.5847C178.484 56.6238 178.616 56.6356 178.745 56.6192C179.045 56.6183 179.338 56.533 179.591 56.3732C179.678 56.2896 179.744 56.1877 179.786 56.0751C179.827 55.9624 179.843 55.8419 179.832 55.7223C179.852 55.494 179.783 55.2666 179.638 55.0889C179.465 54.9184 179.159 54.8326 178.72 54.8313V54.8235Z" fill="#F2F2F2"/>
<path d="M185.544 61.4289L185.67 55.5653L187.026 55.5905L186.861 63.0483H185.205C185.082 63.0504 184.96 63.0196 184.853 62.9592C184.76 62.9085 184.676 62.8431 184.605 62.7655C184.521 62.6467 184.456 62.5161 184.411 62.378C184.343 62.194 184.291 62.0352 184.254 61.9054C184.217 61.7756 184.159 61.5703 184.084 61.2913C183.916 60.6095 183.705 59.6745 183.45 58.4864C183.291 57.7271 183.114 56.867 182.919 55.9062C182.886 56.539 182.861 57.0155 182.844 57.3358C182.836 57.5799 182.874 58.3631 182.958 59.6855C182.983 60.0322 183.001 60.2957 183.008 60.4758C183.016 60.656 183.03 60.8845 183.047 61.1596C183.065 61.4347 183.074 61.6671 183.078 61.8608C183.082 62.0545 183.078 62.2269 183.078 62.378H181.722C181.722 61.9906 181.68 61.1228 181.596 59.7746C181.512 58.4018 181.475 57.5676 181.484 57.2719C181.55 55.9327 181.614 54.9467 181.678 54.3139C181.684 54.2096 181.714 54.108 181.764 54.0163C181.814 53.9246 181.884 53.845 181.968 53.7831C182.23 53.5894 182.72 53.5352 183.435 53.6456L183.903 53.7212L183.991 54.2016C184.648 57.6857 185.166 60.0948 185.544 61.4289ZM184.419 53.8742C184.942 53.8238 185.485 53.7754 186.05 53.7289C186.614 53.6824 187.307 53.632 188.128 53.5778C188.858 53.5242 189.591 53.5074 190.323 53.5275C190.771 53.521 191.218 53.5784 191.65 53.6979L191.131 54.9725C190.971 54.9144 190.558 54.8892 189.893 54.897C189.75 57.0045 189.695 58.3741 189.728 59.0056C189.779 59.814 189.779 60.9594 189.728 62.442L188.372 62.3916C188.433 61.0033 188.438 59.8998 188.386 59.0811C188.343 58.4147 188.394 57.0329 188.537 54.9357C187.314 54.9938 185.991 55.0991 184.568 55.2515L184.419 53.8742Z" fill="#F2F2F2"/>
<path d="M195.795 59.9898C195.909 60.9376 195.974 61.8906 195.989 62.8451H194.633C194.615 61.8771 194.544 60.9109 194.418 59.951C194.031 59.9336 193.701 59.9181 193.432 59.9007C193.187 59.8864 192.941 59.8948 192.698 59.9258C192.603 60.6896 192.548 61.4577 192.533 62.2271H191.177C191.187 61.515 191.233 60.8038 191.315 60.0963L190.974 60.1467L190.747 58.8081C190.984 58.7655 191.232 58.7268 191.493 58.6939C191.562 58.1773 191.642 57.6801 191.733 57.2023C191.87 56.3745 192.055 55.5556 192.289 54.7499C192.397 54.3676 192.556 54.0019 192.764 53.6632C192.895 53.4429 193.102 53.2772 193.345 53.1964C193.471 53.1498 193.608 53.1368 193.74 53.1589C193.873 53.181 193.998 53.2373 194.102 53.3223C194.17 53.3804 194.23 53.4346 194.281 53.4811C194.373 53.5893 194.449 53.7099 194.507 53.8395C194.621 54.0676 194.717 54.3047 194.792 54.5485C194.881 54.8248 194.986 55.2336 195.108 55.7747C195.229 56.3158 195.349 56.9434 195.468 57.6575C195.518 57.9694 195.569 58.289 195.619 58.6261H195.987V59.982L195.795 59.9898ZM193.544 58.535C193.738 58.5525 193.967 58.5699 194.228 58.5854C194.076 57.4485 193.856 56.3216 193.57 55.211C193.331 56.0588 193.142 56.9196 193.002 57.7892C192.959 58.0333 192.921 58.2871 192.888 58.5486C193.106 58.5246 193.326 58.5201 193.544 58.535V58.535Z" fill="#F2F2F2"/>
<path d="M197.083 53.0121C197.241 53.008 197.397 53.0361 197.543 53.0947C197.689 53.1533 197.821 53.2413 197.932 53.3531C198.042 53.4604 198.129 53.5892 198.188 53.7314C198.246 53.8737 198.275 54.0264 198.273 54.1802C198.276 54.3324 198.248 54.4836 198.189 54.6241C198.13 54.7646 198.043 54.8912 197.932 54.9957C197.817 55.1047 197.682 55.19 197.535 55.2465C197.387 55.3031 197.23 55.3297 197.072 55.325C196.885 55.3339 196.699 55.2899 196.536 55.1981C196.373 55.1062 196.239 54.9703 196.15 54.8059C196.047 54.6185 195.994 54.4076 195.997 54.1938C195.996 53.9726 196.058 53.7559 196.175 53.5681C196.258 53.3984 196.387 53.256 196.548 53.1575C196.709 53.059 196.895 53.0086 197.083 53.0121V53.0121ZM196.427 55.6543L197.783 55.6659C197.732 59.6176 197.728 61.8504 197.769 62.3644L196.413 62.4787C196.372 61.9221 196.376 59.6473 196.427 55.6543Z" fill="#F2F2F2"/>
<path d="M202.672 53.5798L204.028 53.605L203.834 63.0484H202.178C202.054 63.0507 201.932 63.0199 201.824 62.9592C201.732 62.9084 201.649 62.843 201.578 62.7655C201.493 62.6472 201.428 62.5165 201.384 62.3781C201.316 62.1941 201.264 62.0352 201.225 61.9055C201.186 61.7757 201.13 61.5703 201.055 61.2914C200.887 60.6095 200.676 59.6746 200.423 58.4865C200.262 57.7272 200.085 56.8671 199.892 55.9063C199.857 56.5391 199.832 57.0156 199.817 57.3359C199.808 57.5799 199.845 58.3632 199.929 59.6856C200.014 61.0609 200.057 61.9584 200.057 62.3781H198.701C198.701 61.9907 198.659 61.1229 198.575 59.7747C198.49 58.4019 198.452 57.5677 198.461 57.2719C198.528 55.9328 198.592 54.9468 198.654 54.314C198.661 54.2097 198.691 54.1081 198.741 54.0163C198.791 53.9246 198.861 53.8451 198.945 53.7832C199.203 53.5818 199.692 53.5359 200.411 53.6457L200.878 53.7212L200.967 54.2016C201.623 57.6974 202.14 60.1111 202.517 61.4425L202.672 53.5798Z" fill="#F2F2F2"/>
<path d="M206.918 57.6631C207.401 57.801 207.842 58.0573 208.2 58.4088C208.497 58.6914 208.722 59.0405 208.856 59.4272C208.991 59.8139 209.032 60.2271 208.975 60.6326C208.909 61.1746 208.654 61.6759 208.255 62.0487C207.87 62.4163 207.359 62.6241 206.827 62.6298H206.701C205.942 62.6298 205.348 62.4025 204.919 61.9479C204.439 61.4314 204.245 60.7108 204.338 59.7861V59.7609L205.694 59.8365V59.912C205.643 60.4351 205.719 60.8018 205.92 61.0123C206.089 61.206 206.38 61.2816 206.792 61.2661C206.901 61.2679 207.009 61.2467 207.109 61.204C207.209 61.1613 207.299 61.098 207.373 61.0181C207.514 60.861 207.604 60.6653 207.633 60.4564C207.664 60.1523 207.591 59.8466 207.424 59.5905C207.209 59.2787 206.888 59.0562 206.521 58.9648C206.122 58.8452 205.746 58.6592 205.409 58.4147C205.126 58.2151 204.888 57.9567 204.714 57.6573C204.568 57.4008 204.461 57.1239 204.398 56.8359C204.31 56.4303 204.327 56.0088 204.447 55.6116C204.567 55.2143 204.787 54.8543 205.086 54.5657C205.488 54.1818 206.016 53.9573 206.571 53.9342C207.381 53.8915 207.988 54.1104 208.392 54.5908C208.573 54.822 208.697 55.0929 208.752 55.3812C208.808 55.6047 208.83 55.835 208.82 56.065C208.808 56.1902 208.787 56.3145 208.758 56.4369L208.088 56.2858L207.431 56.1328C207.459 56.026 207.465 55.9146 207.449 55.8054C207.446 55.6839 207.409 55.5657 207.342 55.4645C207.232 55.3366 207.001 55.2824 206.647 55.2998C206.474 55.3036 206.305 55.356 206.161 55.4509C206.031 55.5343 205.923 55.6471 205.845 55.7802C205.772 55.9085 205.727 56.0502 205.711 56.1967C205.689 56.3533 205.7 56.513 205.745 56.6648C205.79 56.8166 205.867 56.9569 205.971 57.0761C206.225 57.3569 206.553 57.5604 206.918 57.6631V57.6631Z" fill="#F2F2F2"/>
<path d="M131.75 57.1974L133.687 57.6816C133.706 57.6857 133.722 57.696 133.734 57.7108C133.746 57.7256 133.753 57.744 133.753 57.763C133.753 57.782 133.746 57.8004 133.734 57.8152C133.722 57.83 133.706 57.8403 133.687 57.8444L131.75 58.3286C131.657 58.3499 131.572 58.3964 131.503 58.463C131.435 58.5297 131.386 58.6139 131.363 58.7064L130.878 60.6434C130.874 60.6611 130.863 60.6767 130.849 60.6878C130.834 60.6989 130.816 60.7049 130.798 60.7049C130.78 60.7049 130.762 60.6989 130.747 60.6878C130.733 60.6767 130.722 60.6611 130.718 60.6434L130.231 58.7064C130.209 58.6151 130.161 58.5317 130.095 58.4652C130.028 58.3986 129.945 58.3514 129.854 58.3286L127.917 57.8444C127.898 57.8403 127.881 57.83 127.869 57.8152C127.858 57.8004 127.851 57.782 127.851 57.763C127.851 57.744 127.858 57.7256 127.869 57.7108C127.881 57.696 127.898 57.6857 127.917 57.6816L129.854 57.1974C129.945 57.1745 130.028 57.1273 130.095 57.0608C130.161 56.9943 130.209 56.9109 130.231 56.8196L130.718 54.8825C130.722 54.8649 130.733 54.8493 130.747 54.8382C130.762 54.8271 130.78 54.821 130.798 54.821C130.816 54.821 130.834 54.8271 130.849 54.8382C130.863 54.8493 130.874 54.8649 130.878 54.8825L131.363 56.8196C131.386 56.9121 131.435 56.9963 131.503 57.063C131.572 57.1296 131.657 57.1761 131.75 57.1974V57.1974Z" fill="#F2F2F2"/>
<path d="M73.4085 57.1974L75.3456 57.6816C75.3641 57.6857 75.3807 57.696 75.3926 57.7108C75.4045 57.7256 75.411 57.744 75.411 57.763C75.411 57.782 75.4045 57.8004 75.3926 57.8152C75.3807 57.83 75.3641 57.8403 75.3456 57.8444L73.4085 58.3286C73.3172 58.3514 73.2338 58.3986 73.1673 58.4652C73.1007 58.5317 73.0536 58.6151 73.0307 58.7064L72.5445 60.6434C72.5397 60.6611 72.5293 60.6767 72.5147 60.6878C72.5002 60.6989 72.4824 60.7049 72.4641 60.7049C72.4458 60.7049 72.428 60.6989 72.4135 60.6878C72.399 60.6767 72.3885 60.6611 72.3837 60.6434L71.8995 58.7064C71.8759 58.6139 71.8272 58.5297 71.7589 58.463C71.6905 58.3964 71.6051 58.3499 71.512 58.3286L69.575 57.8444C69.5564 57.8403 69.5398 57.83 69.5279 57.8152C69.516 57.8004 69.5095 57.782 69.5095 57.763C69.5095 57.744 69.516 57.7256 69.5279 57.7108C69.5398 57.696 69.5564 57.6857 69.575 57.6816L71.512 57.1974C71.6051 57.1761 71.6905 57.1296 71.7589 57.063C71.8272 56.9963 71.8759 56.9121 71.8995 56.8196L72.3837 54.8825C72.3885 54.8649 72.399 54.8493 72.4135 54.8382C72.428 54.8271 72.4458 54.821 72.4641 54.821C72.4824 54.821 72.5002 54.8271 72.5147 54.8382C72.5293 54.8493 72.5397 54.8649 72.5445 54.8825L73.0307 56.8196C73.0536 56.9109 73.1007 56.9943 73.1673 57.0608C73.2338 57.1273 73.3172 57.1745 73.4085 57.1974V57.1974Z" fill="#F2F2F2"/>
<g clip-path="url(#clip0_105_209)">
<path d="M5.58979 59.2586C5.63383 60.7818 5.3422 61.8599 4.71488 62.4929C4.53438 62.6819 4.31673 62.8317 4.07558 62.9328C3.83443 63.0339 3.57496 63.0843 3.31343 63.0806C2.5206 63.0806 1.91531 62.8634 1.49754 62.429C0.915603 61.8293 0.654665 60.7465 0.714728 59.1807L2.11618 59.2326C2.08014 60.3987 2.21362 61.1376 2.5166 61.4495C2.66475 61.5974 2.93303 61.6714 3.31743 61.6714C3.39126 61.6737 3.46481 61.6612 3.53363 61.6344C3.60245 61.6076 3.66512 61.5671 3.71784 61.5155C4.06621 61.1596 4.22304 60.416 4.18833 59.2846C4.18833 59.0847 4.18833 58.8468 4.1623 58.567C4.06883 58.6277 3.96789 58.6761 3.86199 58.7109C3.61969 58.8205 3.35717 58.8783 3.0912 58.8808C2.7499 58.8831 2.41653 58.7782 2.1382 58.581C1.94207 58.445 1.77188 58.2751 1.63568 58.0792C1.48717 57.8719 1.36227 57.6486 1.2633 57.4136C1.16062 57.1654 1.07565 56.9102 1.00903 56.65C0.93947 56.3968 0.884656 56.1399 0.844864 55.8804C0.808827 55.6465 0.780796 55.4046 0.758773 55.1568C0.736751 54.9089 0.724738 54.717 0.720734 54.5831C0.716729 54.4491 0.720734 54.3252 0.720734 54.2113H2.12219C2.13344 54.8649 2.2099 55.5158 2.35042 56.1542C2.49457 56.8206 2.69478 57.2424 2.95105 57.4196C3.0139 57.4497 3.08305 57.4643 3.15272 57.4622C3.22238 57.4601 3.29053 57.4414 3.35146 57.4076C3.76923 57.2423 3.98279 56.8725 3.99213 56.2982C3.97411 56.1602 3.95809 55.9983 3.94007 55.8164C3.94096 55.8091 3.94015 55.8017 3.93772 55.7948C3.9353 55.7879 3.93131 55.7816 3.92606 55.7764H3.94007C3.84397 54.8209 3.75655 54.034 3.6778 53.4157L5.07926 53.2598C5.16735 53.9634 5.25477 54.7457 5.34153 55.6065C5.37583 55.8096 5.39789 56.0145 5.4076 56.2202C5.51304 57.5795 5.57377 58.5923 5.58979 59.2586Z" fill="#F2F2F2"/>
<path d="M6.50454 57.3917C6.27832 57.1811 6.10038 56.9241 5.98289 56.6384C5.8654 56.3528 5.81114 56.0451 5.82383 55.7365C5.81603 55.3541 5.89473 54.9749 6.05407 54.6271C6.18781 54.3307 6.39442 54.0728 6.65469 53.8775C6.88669 53.7079 7.14234 53.5732 7.41348 53.4777C7.66102 53.3898 7.92155 53.3438 8.18428 53.3418H8.19629C9.03316 53.3418 9.67783 53.5677 10.1303 54.0194C10.3401 54.2395 10.5028 54.4999 10.6085 54.7848C10.7141 55.0697 10.7606 55.3731 10.7449 55.6766C10.7449 56.5641 10.4006 57.2118 9.71186 57.6196C9.28524 57.8483 8.81225 57.9774 8.32843 57.9973C8.27226 58.0073 8.21529 58.012 8.15825 58.0113C7.547 58.029 6.95321 57.8065 6.50454 57.3917V57.3917ZM9.25939 58.0953L10.6608 58.0693C10.6975 58.944 10.6761 59.8201 10.5968 60.692C10.5646 60.9474 10.4823 61.194 10.3545 61.4177C10.2267 61.6413 10.0559 61.8376 9.85201 61.9952C9.39231 62.3242 8.83538 62.4896 8.27037 62.465C8.10012 62.4657 7.93009 62.453 7.76184 62.427C7.57265 62.3933 7.38839 62.3362 7.21327 62.2571C7.01467 62.1723 6.83137 62.0555 6.67071 61.9113C6.48833 61.7405 6.33961 61.5371 6.23225 61.3116C6.09383 61.0302 6.00124 60.7286 5.95797 60.4181C5.86933 59.6566 5.84322 58.8891 5.87989 58.1233L7.28134 58.1493C7.25346 58.8369 7.27487 59.5256 7.34541 60.2102C7.35696 60.4554 7.45155 60.6893 7.61369 60.8738C7.79954 61.0119 8.02954 61.0773 8.26036 61.0578C8.4279 61.062 8.59517 61.0418 8.75687 60.9978C8.86331 60.9745 8.95946 60.9178 9.03116 60.8359C9.07305 60.7823 9.11055 60.7255 9.14327 60.666C9.1674 60.608 9.18226 60.5466 9.18732 60.4841C9.26705 59.6905 9.29113 58.8923 9.25939 58.0953V58.0953ZM8.17627 54.7451C8.10144 54.7453 8.02689 54.754 7.95404 54.7711C7.8503 54.7969 7.74962 54.8337 7.65373 54.881C7.52206 54.9464 7.41628 55.0541 7.35342 55.1868C7.26993 55.3578 7.22939 55.5464 7.23529 55.7365C7.2267 55.8505 7.24203 55.9651 7.2803 56.0728C7.31856 56.1805 7.37893 56.2791 7.45752 56.3622C7.55745 56.4525 7.67574 56.5201 7.80429 56.5605C7.93284 56.6008 8.06861 56.613 8.2023 56.5961C8.51206 56.5955 8.81535 56.5075 9.0772 56.3422C9.16678 56.2563 9.23567 56.1512 9.27867 56.0349C9.32167 55.9186 9.33767 55.794 9.32546 55.6706C9.34671 55.4356 9.27483 55.2016 9.12525 55.0189C8.94707 54.835 8.62874 54.7451 8.17627 54.7451V54.7451Z" fill="#F2F2F2"/>
<path d="M14.5389 59.4584C15.7214 60.6844 16.3134 61.6539 16.3147 62.3669H14.9033C14.9033 62.1497 14.673 61.7625 14.2125 61.2055C13.6915 60.5889 13.1282 60.0092 12.5268 59.4704L12.5128 62.5088H11.1113L11.1233 58.283V58.271L11.1494 53.3656L11.75 53.2756C12.2087 53.204 12.6714 53.1606 13.1354 53.1457C13.4611 53.1313 13.7874 53.1527 14.1084 53.2097C14.3147 53.248 14.5162 53.309 14.7091 53.3916C14.8607 53.4636 15.0016 53.5565 15.1275 53.6674C15.58 54.0499 15.8109 54.6449 15.8202 55.4525C15.8191 55.8078 15.7512 56.1597 15.62 56.49C15.494 56.8195 15.3103 57.1241 15.0774 57.3895C14.8671 57.6352 14.6382 57.8644 14.3927 58.0751C14.1617 58.2705 13.9168 58.4489 13.66 58.6088C13.9763 58.9047 14.2686 59.1865 14.5389 59.4584ZM12.5368 57.6454C12.8221 57.4897 13.0952 57.3126 13.3537 57.1156C13.6279 56.9014 13.87 56.6489 14.0724 56.366C14.2773 56.1097 14.3938 55.7942 14.4047 55.4665C14.4047 55.0847 14.3407 54.8408 14.2045 54.7369C13.9856 54.545 13.4324 54.497 12.5448 54.5929L12.5368 57.6454Z" fill="#F2F2F2"/>
<path d="M24.6095 58.4872C24.8249 58.6669 24.9968 58.893 25.1123 59.1485C25.2277 59.404 25.2838 59.6823 25.2762 59.9625C25.2753 60.3358 25.1944 60.7046 25.039 61.0442C24.8836 61.3838 24.6573 61.6863 24.3752 61.9314C23.7826 62.4538 22.9464 62.771 21.8666 62.8829C21.5964 62.9089 21.3221 62.9229 21.0438 62.9229C20.8075 62.9229 20.6133 62.9229 20.4552 62.9089L19.8285 62.8449L19.8025 53.3739L20.4031 53.2839C20.8618 53.2123 21.3245 53.1689 21.7886 53.154C22.1143 53.1396 22.4406 53.1611 22.7616 53.218C22.9679 53.2564 23.1693 53.3173 23.3622 53.3999C23.5139 53.4719 23.6547 53.5648 23.7806 53.6757C24.2331 54.0582 24.464 54.6532 24.4733 55.4608C24.4813 56.3137 24.0329 57.092 23.1279 57.7956C23.6698 57.9054 24.1776 58.1425 24.6095 58.4872V58.4872ZM21.2059 54.6012L21.218 57.3398C21.4182 57.2359 21.5923 57.1399 21.7665 57.026C22.6288 56.4929 23.0599 55.9759 23.0599 55.4748C23.0599 55.093 22.9958 54.8491 22.8597 54.7452C22.6635 54.5533 22.1009 54.5053 21.214 54.6012H21.2059ZM23.4403 60.888C23.5704 60.7652 23.6744 60.6175 23.7459 60.4537C23.8175 60.2898 23.8552 60.1132 23.8567 59.9345C23.8568 59.8619 23.8405 59.7902 23.8089 59.7247C23.7774 59.6593 23.7314 59.6019 23.6745 59.5567C23.3769 59.3318 23.0256 59.1885 22.6555 59.1409C22.1817 59.0527 21.6996 59.0172 21.218 59.0349V61.5136C22.2604 61.4883 23.0038 61.2798 23.4483 60.888H23.4403Z" fill="#F2F2F2"/>
<path d="M30.3975 60.0581C30.515 61.0362 30.5818 62.0196 30.5977 63.0046H29.1963C29.1789 62.0058 29.1053 61.0087 28.9761 60.0181C28.5757 60.0002 28.2353 59.9842 27.957 59.9662C27.7038 59.9514 27.4498 59.9601 27.1982 59.9922C27.1005 60.7803 27.0437 61.5729 27.028 62.3669H25.6266C25.6366 61.632 25.684 60.8981 25.7687 60.1681C25.6386 60.1861 25.5205 60.204 25.4164 60.222L25.1821 58.8388C25.4264 58.7948 25.6826 58.7568 25.9529 58.7208C26.021 58.1911 26.1051 57.6774 26.2012 57.1816C26.3395 56.331 26.528 55.4893 26.7658 54.6609C26.8772 54.2669 27.0416 53.8896 27.2543 53.5395C27.3915 53.3134 27.6042 53.1428 27.8549 53.0578C27.9854 53.0097 28.1263 52.9963 28.2636 53.0191C28.4008 53.0419 28.5298 53.1 28.6377 53.1877L28.8219 53.3516C28.9217 53.4648 29.0053 53.5913 29.0702 53.7274C29.1868 53.9634 29.2832 54.2088 29.3585 54.461C29.4506 54.7489 29.5593 55.1707 29.6848 55.7264C29.8103 56.2821 29.9344 56.9298 30.0572 57.6694C30.1092 57.9912 30.1613 58.321 30.2133 58.6689H30.5937V60.0681L30.3975 60.0581ZM28.0691 58.5649C28.2693 58.5829 28.5056 58.6009 28.7759 58.6169C28.6187 57.4436 28.3914 56.2808 28.0952 55.1347C27.8487 56.0096 27.6528 56.8979 27.5085 57.7953C27.4645 58.0492 27.4245 58.309 27.3904 58.5789C27.6158 58.5542 27.8429 58.5495 28.0691 58.5649V58.5649Z" fill="#F2F2F2"/>
<path d="M34.3675 59.3484H35.7789C35.7774 59.8595 35.7026 60.3677 35.5567 60.8576C35.4605 61.194 35.3155 61.5146 35.1263 61.8091C34.9851 62.0375 34.7925 62.2299 34.5637 62.3708C34.3905 62.4712 34.2064 62.5517 34.0151 62.6107C33.8539 62.6582 33.6867 62.6824 33.5186 62.6827C33.2897 62.6833 33.0617 62.6551 32.8399 62.5987C32.579 62.5222 32.3337 62.4004 32.1151 62.2389C31.8395 62.0466 31.6059 61.8004 31.4284 61.5153C31.2006 61.1234 31.0332 60.6996 30.9319 60.2579C30.7831 59.6404 30.7046 59.008 30.6977 58.3729C30.6927 57.9035 30.7343 57.4348 30.8218 56.9736C30.9172 56.442 31.0544 55.9186 31.2322 55.4085C31.408 54.9004 31.6799 54.4308 32.033 54.0252C32.3303 53.6601 32.7352 53.3978 33.1902 53.2756C33.4254 53.2191 33.6704 53.2181 33.9061 53.2725C34.1417 53.327 34.3613 53.4355 34.5477 53.5894C34.914 53.8919 35.1937 54.2856 35.3585 54.7308C35.5337 55.1418 35.6308 55.5817 35.6448 56.0281H34.2433C34.238 55.8778 34.2138 55.7287 34.1713 55.5844C34.1218 55.4063 34.0548 55.2335 33.9711 55.0687C33.9026 54.9256 33.8043 54.7988 33.6828 54.6969C33.6619 54.6776 33.6372 54.6631 33.6103 54.6541C33.5833 54.6451 33.5548 54.642 33.5266 54.6449C33.1782 54.7328 32.8539 55.1766 32.5536 55.9762C32.2608 56.7284 32.116 57.53 32.1271 58.3369C32.1372 58.5368 32.1492 58.7487 32.1672 58.9366C32.1852 59.1245 32.2112 59.3484 32.2453 59.5823C32.2767 59.8002 32.3296 60.0145 32.4034 60.2219C32.4699 60.4086 32.555 60.5881 32.6577 60.7577C32.7497 60.9132 32.8773 61.0448 33.0301 61.1415C33.1829 61.235 33.3594 61.2828 33.5386 61.2794C33.6233 61.2777 33.7062 61.2553 33.7802 61.2141C33.8542 61.173 33.917 61.1145 33.963 61.0435C34.0885 60.8698 34.1777 60.6726 34.2253 60.4638C34.2776 60.2549 34.319 60.0434 34.3494 59.8301C34.3661 59.6701 34.3721 59.5092 34.3675 59.3484V59.3484Z" fill="#F2F2F2"/>
<path d="M39.2024 58.7087C39.8066 59.2016 40.3306 59.7848 40.7561 60.4378C41.1805 61.0435 41.4317 61.7532 41.4828 62.4907L40.0814 62.5447C40.0264 62.0507 39.8466 61.5789 39.5588 61.1734C39.2237 60.6481 38.8043 60.1815 38.3175 59.7921C38.0578 59.5793 37.7727 59.3993 37.4686 59.2564V62.9085H36.0672V58.6827C36.0335 58.5911 36.0159 58.4944 36.0151 58.3968C36.015 58.3115 36.0327 58.2271 36.0672 58.149V53.4614H37.4787V57.6592C37.637 57.5964 37.7865 57.513 37.9231 57.4114C38.6799 56.8277 39.1197 55.593 39.2425 53.7073L40.6439 53.7973C40.4878 56.0428 39.8958 57.5953 38.8681 58.4548C38.9742 58.5268 39.0803 58.6127 39.2024 58.7087Z" fill="#F2F2F2"/>
<path d="M45.6292 53.6757C46.0816 54.0582 46.3125 54.6532 46.3219 55.4608C46.3299 56.5042 45.6679 57.4304 44.3358 58.2393C43.9182 58.4916 43.481 58.7102 43.0285 58.893L43.0164 62.5171H41.615L41.655 53.3739L42.2557 53.2839C42.7137 53.2123 43.1757 53.1689 43.6391 53.154C43.9655 53.1396 44.2924 53.1611 44.6141 53.2179C44.8204 53.2563 45.0218 53.3173 45.2147 53.3998C45.365 53.4722 45.5045 53.565 45.6292 53.6757V53.6757ZM43.6271 57.0259C44.4906 56.4929 44.9218 55.9758 44.9204 55.4747C44.9204 55.0929 44.8544 54.8491 44.7202 54.7451C44.5013 54.5532 43.9481 54.5053 43.0605 54.6012L43.0485 57.3398C43.2454 57.2491 43.4354 57.1442 43.6171 57.0259H43.6271Z" fill="#F2F2F2"/>
<path d="M50.7244 60.0581C50.8419 61.0362 50.9087 62.0196 50.9247 63.0046H49.5232C49.5023 62.0082 49.4248 61.0137 49.291 60.0261C48.8905 60.0081 48.5522 59.9921 48.2719 59.9741C48.0194 59.9594 47.766 59.9681 47.5151 60.0001C47.4164 60.7882 47.3596 61.5809 47.3449 62.3749H45.9435C45.9543 61.64 46.0024 60.9061 46.0876 60.176C45.9575 60.194 45.8394 60.212 45.7353 60.23L45.499 58.8587C45.7413 58.8148 45.9995 58.7768 46.2698 58.7408C46.3379 58.2111 46.422 57.6973 46.5181 57.2016C46.6566 56.344 46.8472 55.4955 47.0887 54.6609C47.2001 54.2669 47.3645 53.8896 47.5772 53.5395C47.7144 53.3134 47.9271 53.1428 48.1778 53.0578C48.3083 53.0097 48.4492 52.9963 48.5865 53.0191C48.7237 53.0419 48.8527 53.1 48.9606 53.1877L49.1448 53.3516C49.2394 53.4644 49.3182 53.5895 49.3791 53.7234C49.5041 53.9599 49.6086 54.2067 49.6914 54.461C49.7815 54.7489 49.8916 55.1707 50.0177 55.7264C50.1438 56.2821 50.268 56.9258 50.3901 57.6694C50.4422 57.9912 50.4942 58.321 50.5463 58.6689H50.9247V60.0681L50.7244 60.0581ZM48.398 58.5569C48.5982 58.5749 48.8345 58.5929 49.1028 58.6089C48.9471 57.4355 48.7204 56.2727 48.4241 55.1267C48.1776 56.0016 47.9818 56.8899 47.8374 57.7873C47.7934 58.0412 47.7534 58.301 47.7193 58.5709C47.9449 58.5488 48.1721 58.5468 48.398 58.5649V58.5569Z" fill="#F2F2F2"/>
<path d="M54.6968 59.3484H56.0983C56.0971 59.8609 56.0223 60.3705 55.876 60.8617C55.7798 61.1981 55.6348 61.5187 55.4456 61.8132C55.3044 62.0416 55.1118 62.2339 54.883 62.3749C54.7098 62.4752 54.5258 62.5557 54.3344 62.6147C54.1732 62.6621 54.006 62.6863 53.8379 62.6867C53.609 62.6875 53.381 62.6593 53.1592 62.6027C52.8984 62.5262 52.653 62.4044 52.4345 62.2429C52.1589 62.0506 51.9253 61.8044 51.7478 61.5193C51.5183 61.1254 51.3509 60.6986 51.2512 60.254C51.1015 59.6366 51.0229 59.0042 51.017 58.369C51.0121 57.8996 51.0536 57.4309 51.1411 56.9697C51.2323 56.4381 51.3662 55.9147 51.5415 55.4045C51.7173 54.8965 51.9892 54.4269 52.3424 54.0212C52.6392 53.6566 53.0433 53.3944 53.4976 53.2716C53.733 53.215 53.9784 53.2138 54.2144 53.2683C54.4503 53.3228 54.6703 53.4314 54.857 53.5855C55.2196 53.8892 55.4958 54.2828 55.6578 54.7269C55.8331 55.1378 55.9301 55.5777 55.9441 56.0242H54.5427C54.538 55.8739 54.5144 55.7248 54.4726 55.5804C54.424 55.402 54.3569 55.2292 54.2724 55.0647C54.2053 54.9214 54.1075 54.7945 53.9861 54.6929C53.9652 54.6737 53.9405 54.6591 53.9136 54.6501C53.8867 54.6412 53.8581 54.638 53.8299 54.6409C53.4816 54.7289 53.1565 55.1726 52.8549 55.9722C52.5637 56.7248 52.4196 57.5262 52.4305 58.333C52.4305 58.5329 52.4525 58.7448 52.4705 58.9327C52.4885 59.1206 52.5145 59.3444 52.5486 59.5783C52.5793 59.7962 52.6317 60.0104 52.7047 60.218C52.7727 60.4044 52.8585 60.5838 52.961 60.7537C53.053 60.9093 53.1806 61.0408 53.3334 61.1375C53.4862 61.231 53.6627 61.2789 53.8419 61.2754C53.9265 61.2735 54.0094 61.2511 54.0834 61.21C54.1574 61.1689 54.2202 61.1104 54.2664 61.0396C54.3918 60.8658 54.481 60.6687 54.5286 60.4599C54.5809 60.2509 54.6223 60.0394 54.6528 59.8262C54.6779 59.6681 54.6927 59.5085 54.6968 59.3484V59.3484Z" fill="#F2F2F2"/>
<path d="M59.5278 58.7087C60.1331 59.201 60.6579 59.7843 61.0834 60.4378C61.5092 61.0431 61.7619 61.7528 61.8142 62.4907L60.4127 62.5447C60.3577 62.0507 60.1779 61.5789 59.8902 61.1734C59.555 60.6481 59.1357 60.1815 58.6489 59.7921C58.3888 59.5797 58.1038 59.3998 57.8 59.2564V62.9085H56.3885V58.6827C56.3538 58.5914 56.3362 58.4945 56.3365 58.3968C56.3353 58.3114 56.3531 58.2267 56.3885 58.149V53.4614H57.8V57.6592C57.9579 57.5968 58.1068 57.5134 58.2425 57.4114C59.0019 56.8277 59.4417 55.593 59.5618 53.7073L60.9733 53.7973C60.8171 56.0428 60.2252 57.5953 59.1974 58.4548C59.3116 58.534 59.4219 58.6187 59.5278 58.7087V58.7087Z" fill="#F2F2F2"/>
</g>
<defs>
<clipPath id="clip0_105_209">
<rect width="61.1194" height="10.0667" fill="white" transform="translate(0.69458 53.0117)"/>
</clipPath>
</defs>
</svg>
